<?xml version="1.0" encoding="UTF-8" standalone="no"?>
<svg
   xmlns:dc="http://purl.org/dc/elements/1.1/"
   xmlns:cc="http://creativecommons.org/ns#"
   xmlns:rdf="http://www.w3.org/1999/02/22-rdf-syntax-ns#"
   xmlns:svg="http://www.w3.org/2000/svg"
   xmlns="http://www.w3.org/2000/svg"
   xmlns:sodipodi="http://sodipodi.sourceforge.net/DTD/sodipodi-0.dtd"
   xmlns:inkscape="http://www.inkscape.org/namespaces/inkscape"
   version="1.0"
   width="444.03448pt"
   height="728.47937pt"
   viewBox="0 0 444.03448 728.47937"
   preserveAspectRatio="xMidYMid meet"
   id="svg1485"
   sodipodi:docname="c3p0.svg"
   inkscape:version="1.0.1 (1.0.1+r73)">
  <defs
     id="defs1489" />
  <sodipodi:namedview
     pagecolor="#ffffff"
     bordercolor="#666666"
     borderopacity="1"
     objecttolerance="10"
     gridtolerance="10"
     guidetolerance="10"
     inkscape:pageopacity="0"
     inkscape:pageshadow="2"
     inkscape:window-width="1920"
     inkscape:window-height="1016"
     id="namedview1487"
     showgrid="false"
     inkscape:zoom="0.30505371"
     inkscape:cx="-741.09088"
     inkscape:cy="601.01046"
     inkscape:window-x="0"
     inkscape:window-y="27"
     inkscape:window-maximized="1"
     inkscape:current-layer="svg1485"
     inkscape:document-rotation="0"
     fit-margin-top="0"
     fit-margin-left="0"
     fit-margin-right="0"
     fit-margin-bottom="0" />
  <metadata
     id="metadata1171">
Created by potrace 1.16, written by Peter Selinger 2001-2019
<rdf:RDF>
  <cc:Work
     rdf:about="">
    <dc:format>image/svg+xml</dc:format>
    <dc:type
       rdf:resource="http://purl.org/dc/dcmitype/StillImage" />
    <dc:title></dc:title>
  </cc:Work>
</rdf:RDF>
</metadata>
  <path
     d="m 169.69033,39.039142 c -2.3,1.5 -2.3,1.7 -0.6,3 2.5,1.7 4,1.7 6,-0.3 1.5,-1.6 2.1,-1.5 7.7,1.2 3.4,1.6 8.7,4.6 11.7,6.7 l 5.6,3.9 -4.9,-5 c -5.5,-5.6 -13.3,-9.6 -17.7,-9 -2,0.3 -2.9,0 -2.9,-0.9 0,-1.8 -2.1,-1.6 -4.9,0.4 z"
     id="path1349"
     style="fill:#000000;stroke:none;stroke-width:0.1" />
  <path
     d="m 158.59033,45.939142 c -5.1,3 -10.6,7.9 -12.2,10.8 -0.7,1.3 0.4,0.8 3.2,-1.5 2.3,-1.9 6.7,-5.3 9.8,-7.7 6.3,-4.7 5.9,-5.5 -0.8,-1.6 z"
     id="path1351"
     style="fill:#000000;stroke:none;stroke-width:0.1" />
  <path
     d="m 202.99033,58.939142 c 1.5,2.2 2.9,5.6 3.2,7.6 0.4,2.2 1.2,3.8 2,3.8 2.9,0 -3.1,-13.7 -6.5,-14.8 -0.8,-0.3 -0.2,1.3 1.3,3.4 z"
     id="path1353"
     style="fill:#000000;stroke:none;stroke-width:0.1" />
  <path
     d="m 142.59033,63.539142 c 0,0.7 -0.3,2.4 -0.6,3.8 -0.4,1.8 -0.1,1.6 1,-0.9 1.9,-3.9 1.9,-4.1 0.6,-4.1 -0.5,0 -1,0.6 -1,1.2 z"
     id="path1355"
     style="fill:#000000;stroke:none;stroke-width:0.1" />
  <path
     d="m 181.39033,76.939142 c -4.6,2.4 -5,4.4 -2.2,10.2 1.4,2.9 3.1674,4.91908 3.8674,4.91908 0.8,0 0.96802,-0.15179 0.36802,-0.65179 -1.3,-0.9 -3.75609,-7.18465 -1.30839,-9.0521 2.76702,-2.11107 7.08448,-2.09805 9.97297,1.98481 2.5,2.6 2.7,3.4 2.1,7.6 -0.3,2.6 -2.6,9.199998 -5,14.799998 -2.61471,8.82708 -3.79638,9.60251 -1.99638,12.00251 1.1,1.3 1.39638,3.69749 1.39638,4.59749 0,2.8 -3.2,5.8 -7,6.8 -3.3,0.8 -4.91432,0.12944 -8.11432,-4.47056 -1.8,-2.6 -2.89205,-6.10511 -2.89205,-7.20511 0,-1.8 1.60637,-1.12433 6.50637,-1.12433 4.8,0 5.5,-0.2 5.5,-2 0,-2.2 -2.2,-2.5 -9.3,-1.4 -3.1,0.6 -3.09684,1.71273 -2.69684,3.21273 -1.7739,1.01345 -1.81242,1.47052 -6.71242,-5.82948 -5.9,-8.6 -8.69074,-15.983248 -7.39074,-15.983248 0.5,0 0.5,-1.4 -0.1,-3.4 -0.9,-2.8 -0.8,-4 0.6,-6 2.2,-3.5 5.27137,-3.8236 8.97137,0.0764 l 2.9983,2.67963 1.71114,-1.92981 c 2.8,-3.3 2.41919,-3.62622 -2.28081,-7.22622 -6.8,-5.2 -12.8,-4.3 -16.9,2.5 -1.2,2.1 -3.8,5.5 -5.6,7.6 -3.8,4.2 -3.8,4.6 -1.8,7.3 1.4,1.8 1.4,1.7 1.5,-1.4 0,-3.4 3.6,-8.1 5,-6.5 0.4,0.4 1.6,3.5 2.8,6.8 1.1,3.3 3.6,9.499998 5.6,13.799998 4,8.7 3.6,9.6 -3,7.8 -2.1,-0.6 -4,-0.8 -4.3,-0.5 -0.3,0.2 0.5,0.7 1.7,1.1 1.2,0.3 2.2,0.9 2.2,1.4 0,1.3 -5.1,-0.1 -7.4,-2 -1.7,-1.4 -1.9,-1.4 -1.4,-0.1 0.3,0.9 1.6,5.2 2.8,9.5 2.7,9.9 2.6,9.6 5.5,8.5 3.7,-1.4 4.5,2.3 1.1,5.7 -1.8,1.7 -2.6,3.7 -2.6,6 0,3.9 -2.3,5.7 -13.5,10 -10.2,4.1 -5.5,4 10.5,-0.1 7.6,-2 14.1,-3.6 14.4,-3.6 0.3,0 1.2,1.2 2,2.7 1.5,2.7 1.5,2.6 1.6,-4.4 0,-7.6 0.6,-10.3 2.2,-10.3 0.6,0 0.8,2.5 0.3,6.7 -0.4,4.2 -0.2,7.9 0.5,9.7 0.8,2.3 0.8,3.2 -0.5,4.6 -2.8,3.1 -1.8,4.6 3.8,5.9 8.3,1.9 20.9,2.5 25,1.2 2,-0.7 5,-2.5 6.7,-4.1 3.1,-2.9 4,-5.3 1.6,-4.4 -1.7,0.6 -2.1,0 -3.1,-4.4 -0.4,-2 -0.3,-3.2 0.4,-3.2 0.6,0 1.1,0.6 1.1,1.4 0,0.7 0.7,2 1.6,2.7 1.5,1.2 1.6,1 0.9,-2.1 -1.1,-5.4 1.1,-2.5 3.5,4.5 l 2.1,6 -4,3.7 c -4.5,4.2 -4.2,4.8 0.7,1.8 1.8,-1.1 4.6,-2 6.2,-2 2.4,0 2.8,-0.3 2.3,-1.8 -0.3,-0.9 -1.6,-2.8 -2.9,-4.2 -1.3,-1.4 -2.9,-4.3 -3.7,-6.5 -1.8,-5 -3,-11.5 -2.2,-11.5 1,0 3.5,6.7 3.5,9.3 0,1.5 1,2.9 3,4.1 4.8,2.8 13.8,14.3 18.1,23.2 3.7,7.7 8.9,24.7 7.8,25.8 -0.3,0.3 -2.7,-0.6 -5.3,-1.9 -2.7,-1.4 -5.3,-2.2 -5.9,-1.8 -0.7,0.4 0.2,1.2 2,1.9 5.5,2.3 9.9,8.7 12.3,17.7 1.2,4.5 3.1,11.1 4.3,14.7 2.2,7 2.8,14 1.2,15.3 -0.6,0.6 -0.6,1 0.3,1.4 0.6,0.2 1.2,0.9 1.2,1.4 0,0.6 -0.5,0.7 -1.1,0.3 -1.6,-0.9 -2.9,1.5 -2.9,5.3 0,2.7 -0.4,3.3 -2,3.3 -1.2,0 -3.4,0.7 -5,1.5 l -3,1.6 v 12.9 c 0,8.7 -0.4,13.1 -1.2,13.6 -0.8,0.5 -1,-2.3 -0.5,-11.4 0.3,-6.7 0.5,-12.2 0.3,-12.2 -0.1,0 -3.1,1.2 -6.7,2.6 -4.1,1.7 -9.1,2.8 -13.9,3.1 -7.3,0.5 -7.7,0.4 -15.2,-3.6 -9.2,-4.9 -12.2,-5.1 -23.9,-1.6 -4.6,1.4 -8.9,2.3 -9.6,2 -2,-0.7 -1.5,-3.1 1,-4.8 l 2.2,-1.6 h -2.7 c -2.9,-0.1 -4.5,-1.6 -2.8,-2.6 0.6,-0.3 4,-1.2 7.6,-1.8 l 6.6,-1.3 -5.1,-3.4 c -3.8,-2.6 -5,-4 -4.7,-5.3 0.4,-1.5 0,-1.8 -1.7,-1.4 -5.3,1.3 -15,2 -14.4,1 0.4,-0.6 2.7,-1.3 5.3,-1.6 2.5,-0.2 5.3,-1.2 6.1,-2 1.3,-1.3 1.2,-1.7 -1.4,-3.2 -3.4,-2 -7.3,-7.8 -10.2,-15.2 l -2,-5.2 3.2,-2.5 c 5.1,-3.8 24.6,-14.4 29.9,-16.2 2.6,-0.8 5,-1.9 5.3,-2.4 0.9,-1.4 -7.7,1 -17.5,4.9 -10.4,4.2 -19.9,6.6 -22.8,5.7 -2.1,-0.7 -2.5,-1.5 -7.6,-12.8 -2.6,-5.8 -4.3,-8.3 -6.8,-9.8 -4.6,-2.8 -5.5,-2.5 -6.2,2 -0.3,2.2 -1.1,4 -1.6,4 -0.6,0 -1,-0.5 -1,-1 0,-0.6 -0.7,-1 -1.5,-1 -0.8,0 -1.5,0.6 -1.5,1.2 0,0.7 -0.4,1.9 -0.9,2.7 -0.7,1.1 -1.3,1.1 -3.2,-0.3 -3,-2.1 -5.3,-2.1 -4.5,0 0.3,0.9 0.3,1.4 -0.1,1.2 -14.6,-7.2 -18.999998,-9.1 -25.199998,-10.4 -8.3,-1.7 -8.6,-1.6 -9.6,4.8 -0.7,3.8 1.8,13.8 3.5,13.8 0.4,0 1.1,-1.7 1.4,-3.8 1.2,-6.3 1.6,-7.2 4.8,-8.8 2.8,-1.5 3.1,-1.4 5.4,0.7 2,1.8 2.4,1.9 2.4,0.6 0,-2.3 15.999998,7.3 18.199998,11 1,1.5 1.8,4.4 1.8,6.3 0,4.1 -4.6,23.6 -8.5,35.8 -1.5,4.6 -2.5,8.5 -2.3,8.7 0.2,0.2 6.6,3 14.3,6.3 14.5,6.2 34.3,15.9 50.8,25 l 9.6,5.2 -3.9,6.3 c -2.1,3.4 -4.8,9.1 -6,12.7 -1.2,3.6 -2.3,6.6 -2.4,6.8 -0.2,0.1 -2.8,-0.9 -5.8,-2.2 -6.8,-3 -12.3,-3.7 -12.3,-1.6 0,1.1 -1.2,1.5 -4.8,1.3 l -4.7,-0.1 v 3.6 c 0.1,3 0.3,3.4 1.1,1.9 0.5,-0.9 1.7,-1.7 2.4,-1.7 2.5,0 1.7,4.9 -1.2,7.6 -2.6,2.4 -2.6,2.5 -1.4,7.9 1,4.3 1,5.9 0,7.7 -1.3,2.3 -1.3,2.3 -2,-0.9 -0.8,-4.1 -2.6,-6.3 -4.5,-5.6 -1.9,0.7 -1.7,4.9 0.6,9.8 1,2.2 1.9,3.6 1.9,3.1 0.1,-0.6 0.7,-0.1 1.5,0.9 1.3,1.8 1.5,1.8 4.1,0.1 l 2.7,-1.8 -1.8,3.1 c -2.1,3.5 -6.4,4.4 -6.4,1.3 0,-1.5 -0.2,-1.5 -1,-0.2 -1.6,2.3 0.1,18 1.9,18 0.4,0 0.4,-2.5 -0.1,-5.6 -1,-6.5 -0.5,-7.8 2.3,-6.3 2.8,1.5 4.8,0.5 6.1,-3.1 1,-2.9 4.4,-5.8 5.5,-4.7 0.3,0.3 -0.2,3.6 -1,7.4 -0.9,3.7 -2.1,11.8 -2.7,18 -1.2,10.8 -1.3,11.2 -4.1,12.3 -3,1.3 -3.4,2.4 -4.5,13.3 -0.5,5.4 -0.3,7.1 0.8,8 0.9,0.7 3.4,6.8 5.7,13.7 6,17.7 16.4,39 19,39 1.1,0 1.9,-25.9 1.2,-37.5 -0.7,-12.1 -1.7,-10.3 -3.1,6.1 -0.5,6.7 -1.4,13.2 -1.9,14.5 -0.8,2.2 -1.1,2 -3.4,-3.1 -1.3,-3 -3.7,-10 -5.2,-15.5 -1.4,-5.5 -3.8,-12.5 -5.1,-15.6 -2.1,-4.6 -2.4,-6.8 -2.2,-13 0.3,-7.2 0.4,-7.4 3.1,-7.7 1.5,-0.2 2.7,-0.9 2.7,-1.6 0,-7.2 4.4,-33.2 6,-34.9 1,-1.1 6,4.2 6.1,6.7 0.1,1.1 0.2,11.1 0.3,22.1 0.1,13.5 0.5,20.7 1.3,22 1,1.6 1.2,0.1 1.3,-8.5 0,-5.8 0.3,-17.5 0.6,-26 l 0.6,-15.5 -3.2,-1.8 c -5.3,-2.9 -2.8,-3 2.8,-0.1 5,2.6 10.5,7.4 8.5,7.4 -0.5,0 -1.8,-0.9 -2.8,-2 -1,-1.1 -2.2,-2 -2.7,-2 -0.4,0 -0.8,13.5 -0.8,30 0,16.5 0.3,30 0.8,30 0.4,0 1.5,-0.9 2.4,-1.9 1.1,-1.4 1.3,-2.2 0.5,-3 -1.7,-1.7 -2.6,-12.7 -2,-22.9 l 0.6,-9.2 h 4.2 4.3 l 0.6,4.5 c 0.4,2.5 1.1,4.5 1.7,4.5 0.5,0 0.9,-0.5 0.9,-1 0,-0.6 0.5,-1 1.1,-1 0.7,0 0.8,3.1 0.4,10 -0.8,9.9 -0.7,10 1.5,10 2.1,0 2.2,0.3 1.5,3.7 -0.5,2.1 -0.9,5.8 -1,8.3 l -0.2,4.5 -8.1,0.9 c -7.9,0.9 -8.1,1 -8.8,3.9 -0.4,2 -0.1,3.4 0.9,4.4 1.3,1.3 1.3,1.8 -0.1,4.2 -1,1.8 -1.3,3.4 -0.7,4.7 0.7,1.7 0.8,1.8 1.2,0.1 0.3,-0.9 1.1,-1.7 2,-1.7 1.2,0 1.4,-0.9 1.1,-4.3 -0.3,-2.3 -0.8,-5.1 -1.3,-6.1 -0.8,-1.8 -0.5,-1.9 3.4,-1.3 2.4,0.3 4.5,0.8 4.9,1.1 0.3,0.4 0,4.4 -0.7,8.9 -0.7,4.5 -1.6,12.5 -2,17.7 -0.6,10 -1.6,13.3 -3.2,10.9 -0.6,-1 -0.9,-0.5 -0.9,1.4 0,1.6 0.4,2.6 0.9,2.2 0.5,-0.3 1.2,-0.1 1.6,0.5 0.3,0.5 -0.1,1 -0.9,1 -1,0 -1.6,0.9 -1.6,2.4 0,1.3 -0.3,3.1 -0.6,4 -0.4,1.1 -0.1,1.6 1.1,1.6 1.3,0 1.6,0.6 1.1,2.2 -0.3,1.3 -0.6,2.9 -0.6,3.5 0,0.7 -0.4,1.3 -1,1.3 -0.5,0 -1,-0.7 -1,-1.5 0,-0.8 -0.4,-1.5 -1,-1.5 -1.6,0 -3,3.7 -3,7.9 v 4 l -8.2,-0.6 c -6.5,-0.4 -8.8,-1 -10.7,-2.7 -1.9,-1.7 -2.3,-1.8 -1.8,-0.4 1.6,4.4 1.8,9.2 0.7,13.8 -1.3,5.5 -2,6.3 -4.4,5.4 -1.2,-0.5 -1.6,-2.1 -1.6,-7.3 0,-11.8 1.1,-20.1 2.7,-20.1 0.9,0 1.2,-0.7 0.9,-1.8 -1.1,-3.7 -5.4,-23.9 -6,-28.2 -0.4,-3.2 -0.3,-4.1 0.4,-3 0.5,0.8 1,2.7 1,4.1 0,3.3 2.8,12.6 4,13.4 0.5,0.3 0.6,-4.1 0.3,-10.7 -0.4,-9.2 -0.3,-11.1 0.7,-10.1 0.7,0.7 1.4,2 1.5,3 0.1,2.5 1.5,4.4 2.5,3.8 1.4,-0.9 7,11 7,14.6 0,1.8 0.6,3.7 1.4,4.3 0.7,0.6 1.6,2.8 1.9,4.9 0.7,4.5 -0.7,4.8 -6.1,1.2 -4.4,-3 -6.2,-3.2 -6.2,-0.7 0,2.4 5.3,9.7 7.9,11.1 2.3,1.3 6.1,1.4 7.9,0.2 0.8,-0.5 1.5,-3.7 1.9,-8.2 0.5,-7.1 0.4,-7.7 -3.1,-13.9 -6,-10.7 -11.2,-21.9 -15,-32.5 -5.4,-14.8 -8.7,-22.5 -9.7,-22.5 -0.4,0 -1.3,1.9 -2,4.2 -1.4,5.4 0.2,26.2 3.3,43.1 l 2.2,11.9 -6.6,6.1 -6.6,6.2 -0.6,13.5 c -0.4,9.2 -0.2,14.8 0.6,17.5 1,3.2 1.3,3.6 1.6,1.7 0.2,-1.2 0.7,-2 1.2,-1.7 0.4,0.2 -0.3,4.1 -1.5,8.5 -2.2,7.8 -2.2,8 -0.3,8 1.4,0 1.9,0.6 1.6,2.2 -0.2,1.6 -1,2.3 -2.4,2.2 -1.8,0 -1.9,0.3 -1,2.3 0.6,1.2 2,2.4 3.1,2.5 1.6,0.2 2.1,1.4 2.7,5.2 0.4,2.7 1.4,5.6 2.4,6.5 0.9,0.9 1.4,1 1,0.4 -0.4,-0.8 -0.1,-1.3 0.8,-1.3 1,0 1.6,-0.9 1.6,-2.4 0,-1.4 0.4,-2.7 0.8,-3 0.4,-0.2 0.8,2.5 0.9,6.2 0,3.7 1.5,13.7 3.3,22.2 2.3,11 3.4,18.8 3.6,27 0.2,6.3 1,15.1 1.9,19.5 0.8,4.4 1.5,11.3 1.5,15.2 0,4.5 0.4,7.3 1.1,7.3 4,0 6.9,-5.1 6.9,-12 0,-3.8 -2.2,-7.1 -3.5,-5 -1.7,2.7 -2.5,0.3 -2.5,-7.5 0,-4.6 -1.3,-16.7 -3,-26.7 -3.3,-20.5 -5.4,-39.4 -4.5,-40.8 0.3,-0.6 1.3,-1 2.2,-1 1,0 1.4,-0.6 1,-2 -0.7,-2.8 0.8,-2.5 2.8,0.7 1.7,2.6 1.9,2.6 2.6,0.8 1.6,-4.6 4.4,7.5 5.9,25.9 2,23.8 3.3,35.1 4.1,36.6 1,1.6 0.8,-0.8 -2.1,-38.6 -1.6,-21.9 -2,-24.4 -3.9,-26.3 -1.7,-1.7 -2.1,-3.3 -2.1,-8 0,-8.2 -1.2,-11.1 -4.7,-11.2 -2.8,-0.1 -2.8,-0.1 0.5,-1.2 1.8,-0.5 3.4,-0.8 3.6,-0.6 0.2,0.2 1.1,4.4 1.9,9.2 0.9,4.9 1.7,9.1 2,9.3 0.2,0.2 1.7,0.1 3.4,-0.2 2.8,-0.5 3,-0.9 4.2,-7.9 0.8,-4.9 1.9,-7.9 3.2,-9.1 1.7,-1.6 2.2,-1.6 2.9,-0.4 1.5,2.4 4.2,15.5 3.8,18.6 -0.2,1.9 -1,-0.6 -2.3,-6.9 -1.7,-8.7 -2,-9.6 -3.4,-8.2 -0.8,0.8 -1.8,4.4 -2.2,8.2 -0.5,5.2 -1.2,7.1 -2.9,8.5 l -2.1,1.7 2,32.8 c 1.4,20.6 2.9,36.3 4.1,42.2 1,5.1 2,9.4 2.2,9.5 0.2,0.1 1.5,1 3.1,1.9 3.7,2.4 3.7,5.2 0,4.2 -1.6,-0.4 -2.8,-0.7 -2.8,-0.8 -0.1,-0.1 -0.6,-1.4 -1.3,-3 -1.4,-3.4 -5.4,-3.7 -8,-0.5 -3.2,3.9 -9.6,11.2 -16.3,18.4 -6.5,7 -8.8,11.9 -7.4,15.7 0.5,1.2 1,1.1 2.9,-0.8 3.3,-3.2 12.6,-6.4 20.9,-7 3.9,-0.4 8.8,-0.9 10.7,-1.2 l 3.5,-0.6 -3,-1.3 c -4,-1.8 -7.7,-1.6 -16,0.6 -3.8,1 -7.1,1.7 -7.3,1.5 -0.1,-0.1 3.5,-2.1 8,-4.3 7,-3.4 8,-4.2 6.1,-4.8 -2.9,-0.8 -2.9,-1.2 0.7,-6.1 l 3.1,-4.2 3.3,2 c 1.8,1 3.8,3 4.4,4.4 1.1,2.3 0.9,2.4 -3.4,3.1 -4.9,0.7 -7,2.4 -2.9,2.4 1.4,0 4.1,0.6 5.9,1.4 3.2,1.3 3.3,1.7 4,8.2 0.4,3.8 0.9,8.4 1.2,10.1 l 0.6,3.3 -3.2,-1.2 c -2.5,-0.8 -5.2,-0.8 -10.9,0.1 -4.2,0.6 -11.1,1.1 -15.3,1.1 -4.3,0 -7.8,0.3 -7.8,0.7 0,0.5 0.7,1.6 1.4,2.5 2.9,3.9 26.8,4.8 33.5,1.3 1.6,-0.8 3.5,-2.9 4.4,-4.6 1.3,-2.8 1.3,-3.7 0.2,-5.9 -2.2,-4.2 -2.7,-11.1 -1.6,-19.5 1,-6.9 0.9,-8.9 -0.9,-15.9 -4.3,-17.8 -4.9,-35 -2.4,-77.6 1.6,-27.8 1.7,-28.5 4.1,-30.5 1.3,-1.1 4.3,-5.8 6.7,-10.4 l 4.3,-8.3 3.2,4.5 c 3.3,4.8 6.8,8 4,3.7 -5.5,-8.6 -7.1,-12 -5.5,-12 1.2,0 1.6,-1 1.6,-3.9 0,-2.3 0.6,-4.4 1.6,-5.2 1.5,-1.2 1.6,-1 1.2,2.5 -0.4,3.3 -0.2,3.6 0.9,2.1 0.7,-1 1.4,-2.3 1.6,-2.9 0.3,-0.8 0.8,-0.7 1.8,0.2 0.9,0.9 1,1.2 0.1,1.2 -0.7,0 -1.2,0.6 -1.2,1.4 0,1 1.3,1.6 3.8,1.8 l 3.7,0.3 v 5.7 c 0,5.5 0.1,5.7 2.4,5.1 1.7,-0.4 2.2,-0.2 1.9,0.8 -0.2,0.8 -2.2,1.6 -4.4,1.9 l -3.9,0.5 3.6,2.7 c 1.9,1.5 5.2,3.4 7.2,4.3 2,0.8 3.7,1.9 3.7,2.3 0,0.4 -1.4,5.6 -3,11.7 -1.7,6 -3,11.6 -3,12.4 0,2.4 4,-1.9 6.7,-7.4 2.7,-5.3 3.8,-6.5 6.4,-6.5 1.1,0 1.9,1.2 2.4,3.7 0.4,2.1 1.3,4.9 2,6.4 1.2,2.3 1.1,5.2 -1,22 -2.2,18.2 -4.2,38.7 -4.8,48.9 -0.2,4.5 -0.2,4.5 -4.7,5.6 l -4.5,1.1 -0.8,-3.1 c -0.4,-1.7 -1.1,-15.6 -1.6,-30.8 -0.4,-15.3 -1.1,-28.1 -1.4,-28.5 -0.4,-0.3 -0.7,-0.4 -0.7,-0.2 0,0.2 -0.7,4.2 -1.6,8.9 -0.9,5.3 -1.7,17.5 -2.1,32 -0.4,17.9 -0.9,23.9 -1.9,25.1 -0.8,0.9 -1.1,1.9 -0.7,2.4 0.5,0.4 -0.4,0 -1.9,-1 -3.2,-2 -3.6,-3.5 -1,-3.5 1.6,0 1.8,-0.8 1.5,-6.2 -0.1,-3.5 -0.4,-14.6 -0.7,-24.8 -0.6,-29 -2.1,-26.6 -2.1,3.3 0,21.1 -0.3,26.4 -1.4,27.3 -1.1,0.8 -1.1,1.5 -0.2,3.2 0.8,1.6 1,5.3 0.5,12.1 -0.7,9.6 -0.6,9.9 1.6,11.1 1.2,0.7 7.5,1.5 13.9,2 10.5,0.6 12.4,1.1 19.5,4.4 12.3,5.8 18.2,7 31.6,6.3 6.3,-0.4 13.5,-1.2 16,-2 l 4.5,-1.3 -0.3,-5 c -0.4,-6.1 -1.1,-6.9 -7.5,-9 -6.4,-2.1 -12.5,-5.1 -15.2,-7.4 -1.1,-0.9 -5.1,-2.5 -8.8,-3.5 -8.4,-2.2 -15.6,-6.8 -17.9,-11.5 -2.8,-5.4 -2.3,-18.5 1.2,-38.5 1.6,-9.4 3,-18.2 3,-19.6 0,-1.5 0.7,-3.2 1.5,-3.9 1.1,-0.9 1.5,-3.2 1.5,-7.7 0,-3.6 1.2,-13.4 2.6,-21.7 l 2.7,-15.1 5.3,-5.6 c 2.9,-3.1 5.6,-6.9 6,-8.4 1,-3.9 -1,-11.4 -5.1,-19.8 l -3.6,-7.2 2.5,-10.5 c 4.7,-20 9.7,-47.5 9.9,-55 0.1,-4.1 -0.6,-11.8 -1.6,-17.1 l -1.8,-9.7 2.6,-12.8 c 1.4,-7.1 2.5,-15.3 2.5,-18.2 0,-4.5 -0.3,-5.2 -1.9,-5.2 -1.1,0 -2.3,0.4 -2.6,1 -1.6,2.6 -2,0 -2,-13.2 -0.1,-10.1 -0.9,-19.9 -2.9,-33.3 -2.6,-17.9 -2.9,-19.2 -5.7,-22 -3.3,-3.5 -4,-9.7 -1.4,-13.1 2.6,-3.4 1.8,-12.9 -2.5,-30.3 -2.2,-8.9 -4,-18.3 -4,-20.9 v -4.7 l 8.5,8.5 c 11.5,11.4 19,21 25,32.2 4.4,8.2 5.4,9.3 8.5,10.1 1.9,0.5 4.6,1.9 6,3.2 1.8,1.7 4.6,2.6 10,3.4 14.1,2.1 49.4,11.2 50.4,13 0.5,0.9 4.7,5.1 9.3,9.5 5.3,5 8.3,8.6 8.3,10 0,3.5 1.7,5.3 3.7,4 2,-1.2 3,-5.4 1.4,-5.4 -0.6,0 -1.1,0.7 -1.1,1.5 0,0.8 -0.4,1.5 -0.9,1.5 -0.5,0 -1.2,-2.2 -1.6,-4.9 -0.8,-5.7 0.6,-9.1 3.6,-9.1 1.8,0 2,0.4 1.3,4.5 -0.5,3.6 -0.3,4.5 0.7,4.3 1.1,-0.2 1.3,0.9 1.1,4.7 -0.3,6.4 0.9,8.6 3.6,6.2 1,-0.9 2.6,-1.7 3.5,-1.7 1.9,0 2.4,-4.4 0.8,-6.9 -0.8,-1.2 -1.3,-1.1 -3,1 -2,2.3 -2,2.3 -2.1,0.3 0,-1.2 -0.3,-4.2 -0.6,-6.7 -0.6,-4 -0.4,-4.6 1.6,-5.2 2,-0.6 2.1,-0.8 0.4,-2.6 -1.1,-1.3 -2.1,-1.6 -2.9,-0.9 -0.6,0.5 -2.9,1.2 -5.2,1.6 -3.7,0.6 -4.1,0.4 -4.7,-2 -0.7,-3 1.5,-8 3.9,-9 2.8,-1 6.2,-0.7 7.4,0.8 0.6,0.7 1.7,3.1 2.5,5.2 1.3,3.9 2,4.2 6.4,2.8 3.3,-1 2.7,1.2 -0.8,2.6 -2.5,1 -3,1.8 -3,4.6 0,3 0.3,3.4 2.5,3.4 3,0 3.2,1.5 1.1,8.4 -1,3.3 -1.1,4.6 -0.3,4.3 0.6,-0.2 1.5,-2.1 1.9,-4.2 1.1,-4.9 1.5,-5.3 3.2,-3 1.2,1.6 1.6,1.7 3,0.6 2.3,-2 2.1,-4.4 -0.4,-3.6 -1.5,0.5 -1.8,0.3 -1.4,-1 0.4,-0.8 0.1,-3.6 -0.5,-6.2 -1.5,-5.9 0.2,-8.4 1.8,-2.7 0.6,2.2 1.1,4.7 1.1,5.6 0,1 0.5,1.8 1,1.8 3,0 -1.3,-12.8 -5.8,-17.6 -1.5,-1.5 -1.6,-2.4 -0.8,-4.6 1.3,-3.4 0.3,-4.3 -11.2,-9.9 -8.8,-4.3 -12.2,-5 -4.6,-1 5.5,3 6.1,6.1 1.1,6.1 -2.5,0 -4.1,0.8 -6.4,3.5 -3.1,3.5 -3.1,3.5 -6.7,2 -3.2,-1.4 -4.3,-1.4 -9.1,-0.1 l -5.5,1.4 -0.8,-3.1 c -1,-3.5 0,-8.4 2.1,-10.4 1.1,-1.2 2.2,-1 6.2,0.7 2.7,1.2 5.8,1.9 6.9,1.7 1.7,-0.2 1.3,-0.6 -1.8,-2 -5.7,-2.5 -6.9,-3.7 -5.5,-5.4 1.4,-1.6 5.5,-1 10.2,1.3 3.3,1.7 3.4,1.2 0.5,-2.8 -1.1,-1.7 -4.4,-4.1 -7.2,-5.3 -6.5,-2.8 -11,-3.9 -10.1,-2.5 0.3,0.5 1.2,1 1.8,1 0.7,0 1.9,0.4 2.7,1 1.2,0.7 1,1.2 -1.2,3 -1.5,1.1 -4.3,4.3 -6.3,7 -2,2.8 -4.3,5 -5,5 -0.7,0 -6.8,-1.6 -13.6,-3.5 -11.9,-3.4 -15.3,-3.7 -11.5,-1 5,3.7 -5.5,4.9 -12.8,1.4 -6,-2.8 -7.9,-5 -7,-8.3 0.3,-1.4 0.9,-2.6 1.3,-2.6 0.3,0 4.2,1.1 8.5,2.5 14.5,4.6 14.9,4.7 18.7,2.7 3.3,-1.6 3.9,-2.8 4.2,-8.1 0.2,-2 -0.6,-2.6 -5.8,-4.2 -8.5,-2.6 -19.1,-10.9 -23,-17.9 -2.1,-3.7 -3.8,-5.6 -5.3,-5.8 -2,-0.3 -1.9,0 1.1,3 3.2,3.3 3.2,3.3 0.8,3.6 -1.4,0.2 -4,-0.8 -6.8,-2.8 -2.4,-1.8 -4.7,-3 -5,-2.6 -1.2,1.2 0.9,3.7 5.2,6.4 2.5,1.5 4.5,3.1 4.5,3.5 0,0.5 -0.9,2.1 -2,3.7 -2,2.9 -7,4.7 -7,2.5 0,-0.6 -1.1,-2.2 -2.5,-3.5 -1.4,-1.3 -2.3,-2.5 -2,-2.8 0.2,-0.2 -0.2,-1.7 -1,-3.3 -0.8,-1.5 -1.5,-4.4 -1.5,-6.4 0,-2.8 -0.5,-3.7 -2.4,-4.5 -1.3,-0.5 -3.4,-0.6 -4.5,-0.3 -2.1,0.5 -2.1,0.7 -0.5,2.4 1,1.1 1.5,2.1 1.2,2.4 -0.2,0.3 -2.6,-2.1 -5.1,-5.3 -5.2,-6.3 -5.7,-8.8 -2.9,-14.4 1.4,-2.6 1.5,-3.5 0.5,-3.1 -0.8,0.3 -0.3,-1.2 1.2,-3.8 2.8,-5 3.4,-10.9 1,-10.9 -0.9,0 -3.4,-0.9 -5.6,-2.1 -2.2,-1.1 -4.8,-1.9 -5.7,-1.7 -1.3,0.3 -0.9,0.8 1.4,2 1.7,0.9 3.7,2.5 4.5,3.4 1,1.3 0.1,1.1 -3.3,-0.8 -4,-2.2 -4.8,-2.4 -4.8,-1.1 0,3 -1.4,0.3 -3.1,-6 -0.9,-3.4 -3,-9.9 -4.7,-14.5 -3.5,-9.1 -3.2,-9.6 3.7,-5.7 5.5,3.2 6.7,2.5 1.4,-0.8 -7.8,-4.9 -19.2,-7.7 -31.4,-7.7 -8.6,0 -9.6,-0.4 -12.1,-5.4 -3,-5.9 -4.7,-7.6 -8.1,-7.6 -4.6,0 -7.5,-5.2 -4.3,-7.9 1,-0.9 1.6,-0.8 2.6,0.4 0.7,0.8 1.7,1.5 2.2,1.5 0.5,0 0.8,-7.6 0.6,-18.8 -0.2,-10.3 0.1,-20.599998 0.5,-22.899998 0.9,-4.2 0.9,-4.2 -3.3,-6.3 -2.5,-1.3 -5.1,-1.9 -6.5,-1.6 -1.9,0.5 -2.5,0 -3.4,-2.5 -0.9,-2.6 -0.8,-3 0.4,-2.5 2.2,0.8 1.8,-1.2 -0.4,-2.4 -2.8,-1.5 -10.1,-1.2 -13.3,0.6 z m 23.5,24.399998 c -0.1,6.6 -0.7,12.8 -1.2,13.8 -0.9,1.4 -1,1.1 -1.1,-1.6 0,-2.1 -0.4,-3.1 -1.1,-2.7 -0.5,0.4 -0.9,1.9 -0.7,3.3 0.2,1.7 -0.2,2.7 -0.9,2.6 -4,-0.3 -4,0 -2.6,-9.2 0.8,-4.8 1.3,-11.399998 1.2,-14.699998 -0.1,-3.3 -0.1,-6.4 0,-6.8 0,-0.5 1.6,0 3.4,1.2 l 3.2,2.1 z m -6.6,18 c 1.2,0 1.4,0.8 0.9,3.7 -1.1,6.2 -1.7,7.3 -3.5,7.3 -1.5,0 -1.8,-0.9 -1.8,-6.1 -0.1,-4.9 0.2,-5.9 1.4,-5.5 0.8,0.3 2.2,0.6 3,0.6 z m -32.74034,4.92994 c 0,1.8 1.44034,2.57006 4.84034,5.67006 l 4.7,4.4 h -3.3 c -4.1,0 -12.8,-4.3 -14.3,-7.2 -1,-1.9 -0.8,-2.5 1.5,-4.5 3.7,-3.2 6.55966,-1.77006 6.55966,1.62994 z m 22.04034,6.57006 c 0,0.9 -4.4,2.3 -5.4,1.8 -0.4,-0.3 -0.2,-0.9 0.5,-1.4 1.5,-1 4.9,-1.2 4.9,-0.4 z m 11,4.4 c 0,0.5 1.2,2.3 2.6,4 l 2.6,3.1 h -5 c -8.2,0 -14.2,-1.1 -14.2,-2.7 0,-2.1 6.1,-5.3 10.3,-5.3 2,0 3.7,0.4 3.7,0.9 z m -33.7,3.1 c 0.8,0 0.8,0.3 0,1.1 -1.3,1.3 -4.3,0.5 -4.3,-1.2 0,-0.6 0.7,-0.8 1.6,-0.5 0.9,0.3 2.1,0.6 2.7,0.6 z m -2.4,5.6 c 3.5,0.7 3.2,2.4 -0.4,2.4 -3,0 -5.5,-1 -5.5,-2.1 0,-1.1 1.6,-1.1 5.9,-0.3 z m 21.2,12.4 c 1,0.6 1.9,2.1 1.9,3.4 0,3.3 3.3,6 6.5,5.2 2.7,-0.7 3.5,-2.6 1,-2.6 -1.8,0 -1.9,-1.4 -0.5,-4.1 1.9,-3.4 9,-0.6 9,3.6 0,4.9 -12.5,6.8 -20.8,3.1 -3.7,-1.7 -4.2,-2.3 -4.2,-5.1 0,-1.7 0.3,-3.5 0.7,-3.8 1,-1 4.2,-0.8 6.4,0.3 z m 59.4,0.4 c 6.7,2.8 13.1,17.9 11.9,28.2 -1,7.9 -3.4,6.7 -3.4,-1.7 0,-2.1 -0.4,-3.9 -1,-3.9 -0.5,0 -1,1.5 -1,3.3 0,3.3 -0.1,3.3 -4.2,3.1 -2.8,-0.1 -4.3,-0.6 -4.3,-1.5 0,-0.8 -1.9,-4.6 -4.2,-8.4 -4.7,-7.7 -7.6,-15.2 -6.9,-17.2 1.2,-3.1 7.8,-4.1 13.1,-1.9 z m 13.4,39.1 c 0.2,0.3 0,0.9 -0.5,1.4 -0.5,0.5 -2.2,0 -3.9,-1.1 l -3,-2 3.4,0.6 c 1.9,0.3 3.7,0.8 4,1.1 z m 14.4,35.3 c 2.9,3.7 7.3,9.4 9.7,12.7 3.8,5.2 4,5.7 1.4,3.5 -4.5,-3.8 -17.8,-19.6 -20.9,-24.9 -2,-3.5 4.9,2.7 9.8,8.7 z m -121.7,-1.7 c 1.9,3.8 4.5,10.9 3.9,10.9 -0.3,0 -2,-3.2 -3.9,-7 -1.9,-3.9 -3.1,-7 -2.6,-7 0.5,0 1.7,1.4 2.6,3.1 z m -19.9,10.2 c 1.8,4.4 3.1,8.2 2.9,8.4 -1.1,1.1 -4,-1.6 -6.1,-5.8 -1.4,-2.6 -3.2,-5.2 -4.1,-5.7 -1.4,-0.8 -1.4,-1.4 -0.3,-5.2 l 1.3,-4.3 1.6,2.3 c 0.8,1.3 3,6 4.7,10.3 z m 2.7,-7 c 0.8,2.3 2,6 2.6,8.3 0.5,2.2 1.9,4.9 3,5.9 2,1.8 2,1.7 2,-3.1 l 0.1,-4.9 3.4,3.9 c 2.8,3.2 6.2,10.3 5.2,11.2 -0.1,0.1 -2.8,0.3 -6,0.5 l -5.8,0.4 -4,-10.4 c -3.6,-9.7 -5.1,-18 -3,-16.6 0.5,0.3 1.6,2.4 2.5,4.8 z m -9.3,7.8 c 1.1,1.1 1.8,2.4 1.4,2.7 -0.4,0.4 -1.1,-0.1 -1.6,-1.1 -0.6,-0.9 -1.7,-1.7 -2.4,-1.7 -0.8,0 -1.5,-0.5 -1.5,-1 0,-1.6 1.9,-1.1 4.1,1.1 z m 180.2,5.1 c -2.2,7.7 -3.2,9.1 -3.3,4.5 0,-3.7 2.6,-9.7 4.2,-9.7 0.4,0 0,2.4 -0.9,5.2 z m -180.5,0.2 c 3.5,4 14.7,23.4 13.9,24.2 -0.3,0.4 -17.5,-7.5 -22.6,-10.3 -0.3,-0.2 0.6,-4.4 3,-13.6 0.5,-2 1.4,-3.7 1.8,-3.7 0.5,0 2.2,1.5 3.9,3.4 z m 173.7,7.6 c 0.8,1.2 4.4,14 3.9,14 -0.1,0 -2.3,-2.6 -4.8,-5.7 -4.2,-5.3 -4.4,-5.9 -2.9,-7.5 1.8,-2 2.9,-2.3 3.8,-0.8 z m -148.5,4 c 0,0.5 -1.2,1 -2.6,1 -2.4,0 -2.6,0.3 -2.1,2.9 0.4,2.1 0.2,3.1 -0.9,3.5 -3.4,1.3 -4.3,0.6 -4.1,-2.9 0.2,-2.9 0.7,-3.7 2.7,-4.1 1.4,-0.3 3,-0.7 3.5,-0.9 2,-0.7 3.5,-0.5 3.5,0.5 z m 6,7.5 c 0.5,1.4 1.7,2.5 2.7,2.5 1.5,0.1 1.4,0.4 -0.6,2 -1.3,1.1 -2.9,2 -3.7,2 -0.8,0 -1.4,0.4 -1.4,0.9 0,0.6 1.6,0.7 3.5,0.4 3.3,-0.5 3.5,-0.4 3.5,2.1 0,3.4 -2,4.2 -5.9,2.2 -2.1,-1.2 -2.8,-2.1 -2.4,-3.3 0.4,-1.1 0.3,-1.4 -0.6,-0.9 -1.4,0.9 -7.1,-0.2 -7.1,-1.5 0,-0.4 2.5,-1.6 5.5,-2.4 3,-0.9 5.5,-1.9 5.5,-2.2 0,-0.3 -0.9,-0.3 -2,0 -1.6,0.4 -2,0 -2,-1.9 0,-3.4 3.7,-3.3 5,0.1 z m 21.9,20 c 0,2.6 -0.2,2.7 -0.9,1 -0.5,-1.1 -0.9,-3.4 -0.9,-5 0,-2.6 0.2,-2.7 0.9,-1 0.5,1.1 0.9,3.3 0.9,5 z m 30.1,-0.8 c -0.1,3.6 -0.3,4.4 -1,3.1 -0.9,-1.4 -0.3,-7.8 0.6,-7.8 0.2,0 0.4,2.1 0.4,4.7 z m 165,3.5 c 4.2,6.4 4.7,7.8 2.9,7.8 -1.6,0 -6.9,-5.6 -6.9,-7.4 0,-0.9 -0.8,-1.6 -2,-1.6 -2,0 -2.8,-2.8 -1.3,-4.3 1.7,-1.7 3.6,-0.2 7.3,5.5 z m -164,11 c 0,2.2 -0.5,2.8 -2.1,2.8 -1.9,0 -2.1,-0.4 -1.5,-3.1 0.3,-1.7 0.6,-3.9 0.6,-4.8 0.1,-3 3,2 3,5.1 z m -11.5,4.2 c 3.1,1.6 5.8,2.3 7.5,2 3.9,-0.8 10.8,1.3 12.1,3.7 0.6,1.1 2.4,2.5 4,3.1 2.2,0.7 2.8,1.5 2.4,2.8 -0.4,1.3 0.4,2.3 3,3.8 1.9,1.2 3.5,2.5 3.5,3 0,0.5 1.9,1.2 4.1,1.6 5.8,0.9 20.9,7.6 20.9,9.3 0,2 -6,1.6 -10.5,-0.7 -4.7,-2.4 -4.5,-2.4 -4.5,-0.5 0,2.2 -3.3,1.8 -5.9,-0.6 -1.4,-1.3 -2,-2.7 -1.6,-4 0.7,-2.2 -0.5,-2.5 -2.4,-0.7 -1,1.1 -1.5,0.9 -2.6,-0.5 -1.2,-1.7 -1.4,-1.7 -4.8,0.3 l -3.6,2.1 -14.8,-7.5 c -8.1,-4.1 -16.3,-8.8 -18.2,-10.4 -3.1,-2.6 -3.3,-3 -2.1,-5.3 2.5,-4.7 6.2,-5.1 13.5,-1.5 z m 3,19.7 c 7.8,4.2 15.1,9.5 15.9,11.4 0.3,0.9 -1.9,0.1 -5.7,-2 -8.1,-4.5 -29.8,-20.1 -29,-20.8 0.3,-0.4 3.3,1.3 6.7,3.7 3.3,2.4 8.8,5.8 12.1,7.7 z m 56.5,-3.6 c -1.8,2.6 -3.4,4.4 -3.7,4.1 -0.5,-0.5 6,-9.6 6.5,-9.1 0.2,0.2 -1,2.4 -2.8,5 z m -54.2,16.3 c 4.1,4 7.2,7.6 6.9,7.9 -0.9,0.8 -12.3,-8.6 -20.2,-16.8 l -7,-7.2 6.4,4.4 c 3.5,2.4 9.8,7.7 13.9,11.7 z m -23.8,1.1 c -0.1,6 -3.8,8.1 -7.5,4.1 -1,-1.1 -2.2,-1.7 -2.6,-1.4 -1.5,0.9 -1,-0.8 0.7,-2.7 2.1,-2.4 9.4,-2.4 9.4,0 z m 58,1.3 c 0,2.3 -1.8,4.1 -3.4,3.5 -0.9,-0.4 -1.6,-1.6 -1.6,-2.7 0,-1.5 0.7,-2 2.5,-2 1.4,0 2.5,0.6 2.5,1.2 z m 14,7.1 c 0,1.7 -0.5,1.9 -3.2,1.4 -1.8,-0.3 -4.6,-1 -6.1,-1.6 -2.3,-0.9 -2.6,-1.4 -1.8,-3 1,-1.8 1.3,-1.9 6.1,-0.3 3.7,1.2 5,2.1 5,3.5 z m -20,1.1 c 0,2.2 -1.7,2.8 -4,1.6 -2.9,-1.6 -2.5,-3 1,-3 1.9,0 3,0.5 3,1.4 z m -73.7,4.3 c 1.9,0.9 2.7,1.8 1.9,2.1 -0.7,0.2 -2.2,-0.4 -3.3,-1.4 -1.8,-1.6 -2.3,-1.6 -4.2,-0.4 -2,1.2 -2.1,1.2 -0.8,-0.3 1.7,-2.1 2.4,-2.1 6.4,0 z m 83.7,-0.1 c 4.7,1.9 5.4,4.4 1.1,4.4 -4.7,0 -9.1,-2 -9.1,-4.1 0,-2.4 2.5,-2.5 8,-0.3 z m -39.4,6.2 c 1.6,0.9 2.2,0.7 3.2,-0.9 1.2,-1.8 1.4,-1.8 3.7,-0.3 2.2,1.4 18.7,4.3 25,4.4 1.5,0 0.5,1.5 -4.5,6.5 -7,7.1 -11.1,9.5 -16,9.5 -2.5,0 -4.1,-1.1 -8,-5.3 -2.7,-2.8 -4.9,-6 -5,-7 0,-1 -0.7,-2 -1.6,-2.4 -1.1,-0.4 -1.4,-1.3 -0.9,-3 0.5,-2.2 0.4,-2.3 -1.6,-1.3 -1.7,0.9 -2.4,0.8 -4,-0.6 -1,-0.9 -1.9,-2 -1.9,-2.5 0,-0.8 8.6,1.3 11.6,2.9 z m 63.3,6.4 c -3.7,3.5 -8.3,9.2 -10.4,12.8 -2.1,3.6 -5,7.8 -6.4,9.3 -1.7,1.9 -2.5,3.7 -2.3,5.6 0.3,2.3 -0.6,3.7 -4.9,7.5 -5.6,5 -11.8,9 -15.9,10.1 -1.4,0.3 0.6,-1.2 4.4,-3.5 8,-4.8 9,-5.9 15.2,-17 8.7,-15.8 13,-21.7 19.5,-26.5 3.4,-2.5 6.4,-4.5 6.7,-4.5 0.4,0 -2.3,2.8 -5.9,6.2 z m -25.8,21.1 c -4.4,8.9 -6.7,12.6 -8.2,13 -1.8,0.5 -2,0.2 -1.4,-2 0.3,-1.4 2.8,-5.6 5.5,-9.5 2.7,-3.8 5.4,-8.6 6.1,-10.6 1.2,-3.7 3.1,-5.9 3.7,-4.2 0.2,0.5 -2.4,6.5 -5.7,13.3 z m -60.1,-8.3 c 0,1.9 1.9,3 5.1,3 1,0 1.9,0.4 1.9,1 0,0.5 -2.5,1 -5.6,1 -5.4,0 -5.6,-0.1 -5,-2.3 0.3,-1.2 0.6,-3.3 0.6,-4.6 0,-2 0.2,-2.1 1.5,-1.1 0.8,0.7 1.5,2 1.5,3 z m 76,31.6 c 0.5,2.1 0.9,6.8 0.9,10.4 0,5.2 -0.2,6 -1,4.1 -1.3,-3.2 -2.9,-1.6 -3.6,3.7 -0.8,5.7 0.2,9 3,9.4 2,0.3 2,0.5 -1,2.1 -4.3,2.3 -10.8,3.1 -17.6,2.3 -4.9,-0.6 -5.4,-0.9 -4.9,-2.8 0.4,-1.8 0.2,-2 -1.6,-1.6 -1.8,0.5 -2.2,0.1 -2.8,-2.7 -1,-5.4 0.5,-9.2 6.8,-17.6 6.1,-8.1 12,-13.1 14.3,-12.3 0.7,0.3 1.5,-0.3 1.9,-1.2 0.6,-1.6 0.8,-1.6 2.7,0.3 1.1,1.1 2.4,3.8 2.9,5.9 z m 14.1,23.9 -0.9,4 -0.1,-3.6 c -0.1,-2 0.2,-5.2 0.6,-7 l 0.8,-3.4 0.3,3 c 0.2,1.6 -0.1,4.8 -0.7,7 z m -57.2,0.6 c 0.5,2.7 1.3,3.4 4.6,4.5 l 4,1.2 -3.3,0.1 c -5.4,0.2 -7.2,-1.4 -7.2,-6.1 0,-4.7 0.9,-4.5 1.9,0.3 z m -5,20.7 c 1.7,21.1 1.5,30.2 -0.6,31.8 -1.7,1.3 -1.7,1.3 0,1.4 1,0 5.1,1.5 9.2,3.4 8.2,3.8 12.2,8.2 15,16.7 2.8,8.3 1.1,7.6 -2.4,-1 -4,-9.6 -6.9,-12.4 -12.3,-11.9 -3.4,0.3 -3.7,0.1 -3.2,-1.8 0.8,-3.3 -1.9,-3.6 -7,-0.9 -5,2.7 -6.2,2.1 -4.6,-2.1 1.1,-2.7 1,-2.7 -0.8,-1.1 -1.8,1.7 -1.8,1.5 -0.6,-4.5 1.4,-6.8 4.3,-36 4.5,-44.2 0.1,-8.7 1.6,-1.3 2.8,14.2 z m 35.9,-9.7 c -2.2,0.5 -5.4,0.5 -7.5,0 -3.3,-0.8 -2.8,-0.9 3.7,-0.9 6.5,0 7,0.1 3.8,0.9 z m -28,25.7 c 0.4,8.9 0.3,16.2 -0.1,16.2 -1.4,0 -1.6,-2.4 -2,-21.5 -0.5,-22.8 1,-19.2 2.1,5.3 z m 35.2,-17.9 c 0,0.5 -1.3,8 -3,16.6 -1.6,8.6 -3,18.1 -3,21.2 0,6.9 -1.4,6.7 -5.6,-1 -3.5,-6.7 -5.4,-6.2 -5.4,1.5 0,4.2 -0.3,4.8 -2,4.8 -3.6,0 -4.3,-4.2 -3,-17.5 0.6,-6.6 1.7,-14.9 2.3,-18.5 1.2,-6.3 1.3,-6.5 4.7,-7.1 5.6,-1 15,-1 15,0 z m -52.6,44.9 c 1.2,4.2 -0.1,11.5 -2.5,14.6 -3,3.8 -3.9,3.2 -3.9,-2.4 0,-3.8 0.4,-5 1.5,-5 2.9,0 1.4,-1.8 -2,-2.4 l -3.5,-0.7 3.7,-3.8 c 2.1,-2.1 4.2,-3.7 4.8,-3.6 0.5,0.1 1.4,1.6 1.9,3.3 z m 57.9,-1.2 c 0.4,2.2 -0.2,2.8 -5.5,5.5 -8.2,4.1 -9.4,3.1 -2.5,-1.9 3.1,-2.4 5.7,-4.7 5.7,-5.2 0,-2.1 1.8,-0.9 2.3,1.6 z m -92.6,13.4 c -0.8,6.8 -1.6,9.2 -2.9,8.4 -0.7,-0.4 -0.8,-3.1 -0.4,-7.2 0.8,-7.2 1.2,-8.5 2.8,-7.6 0.7,0.4 0.8,2.8 0.5,6.4 z m 7.6,-5.3 c 0.8,1.3 -1.3,12.4 -2.8,15.2 -1.3,2.5 -1.4,2.2 -1.4,-4.4 -0.1,-3.9 0.2,-8 0.5,-9.3 0.6,-2.1 2.8,-3 3.7,-1.5 z m 16.5,3.4 c 0.4,4.4 -1.3,8.9 -3.3,8.9 -1.8,0 -1.9,-1.2 -0.4,-8 1.2,-5.8 3.2,-6.3 3.7,-0.9 z m -13.2,4.6 c -1.6,5.2 -2.1,3 -0.9,-4.1 0.4,-2.9 0.8,-3.4 1.5,-2.2 0.5,1 0.3,3.3 -0.6,6.3 z m 5.7,-2 c -0.9,8.9 -2.2,10.9 -2.2,3.6 -0.1,-6.4 0.5,-9.3 1.9,-9.3 0.5,0 0.6,2.6 0.3,5.7 z m 72.7,30.2 c -0.6,2.5 -1.8,5.6 -2.5,6.8 -1.3,1.9 -1.8,2 -4.4,1 -3.6,-1.3 -3.1,-2.7 0.9,-2.7 3.5,0 4.6,-1.7 5.7,-9.1 0.4,-3.3 0.9,-4.5 1.1,-3 0.2,1.3 -0.1,4.4 -0.8,7 z m -10.9,71.6 -0.8,11 -0.1,-8 c -0.2,-7.6 0.8,-17.1 1.5,-15 0.1,0.6 -0.1,5.9 -0.6,12 z m -59.2,11.7 c 0.1,4.1 -0.7,6.8 -2,6.8 -1.1,0 -1.2,-9.4 -0.2,-13 l 0.7,-2.5 0.7,2.5 c 0.4,1.4 0.7,4.2 0.8,6.2 z m 57.4,6.7 c -2.1,1.6 -4.9,4.1 -6.3,5.6 -3,3.3 -7.1,5.5 -10.2,5.5 -1.8,0 -1.5,-0.4 1.9,-2.8 11.9,-7.9 15.8,-10.8 16.1,-11.5 0.2,-0.4 0.8,-0.4 1.3,-0.1 0.5,0.3 -0.7,1.8 -2.8,3.3 z m 17.6,11.1 2.9,1.5 -2.5,3.9 c -1.9,2.9 -2.7,3.5 -3.4,2.5 -0.6,-1.1 -1.1,-1.1 -2,-0.2 -0.7,0.7 -1.9,0.8 -3.3,0.3 -1.1,-0.5 -4,-1.4 -6.3,-2 -2.8,-0.7 -4.3,-1.6 -4.3,-2.6 0,-1 0.6,-1.4 1.5,-1 1,0.3 1.5,-0.1 1.5,-1.3 0,-1 0.3,-3.3 0.6,-5 0.6,-2.7 0.4,-3 -1.1,-2.5 -1.7,0.7 -1.7,0.6 0,-1.9 l 1.7,-2.7 5.9,4.8 c 3.3,2.6 7.2,5.4 8.8,6.2 z m 14.6,5.4 c 1.2,1.5 5.1,3.4 10.3,5.1 4.5,1.5 8.2,3.1 8.2,3.6 0,0.5 -1.6,1.5 -3.5,2.3 -1.9,0.8 -3.5,2.2 -3.5,3 0,1.3 -1.4,1.6 -7.8,1.6 -6.8,0 -8.3,-0.3 -11.2,-2.5 -1.9,-1.4 -4.2,-2.5 -5.2,-2.5 -4.9,0 0.8,-9.3 7.2,-11.9 3.4,-1.3 3.2,-1.4 5.5,1.3 z"
     id="path1357"
     style="fill:#000000;stroke:none;stroke-width:0.1"
     sodipodi:nodetypes="csscsccccsccssscccsccccccccccccccccscccccsccsccsccccccccssccccccssscssccscccscccscssccsscsccccccccccccccccscccccccccccssssccccccscccscscsccccsccsccccsccccsccccccscscscsccccccsccccccccscccccccccssssscscccccssscscccccscccsccccsccsccsscscsssssccscccsscccsccsccscccscccccsccccccccccscccccccsscccccssscsccsccccccssccsccccccccscccccscccccccccccccscccccccsccccccssccccccccccccsssccccssccsccccccscscsccccsccccscccccsccsccccccccccsccccscscccccccccccssccccscsccccccscscssscsccccsccccsccccccccssscccccccccssccccsccccccccccccccscccsccccscccccccccccscssscsccccccccscccccsccccscsccscccccccccccccccsccccscsccssccsccssccssccssssssssscssccscscscsccccssscsccccsccccccccccscsccsccccccccccccccccccsccsssccscccccsccscccsscccccscccsscscccscscscscscsccsccsssscssccsccccscscscsccccccccccccccccsssssccccscccccscssssccccsscsscccccccssccccccsccccccsccscccccccsccccccccsssscscssscccccccccccsscccccccccccsccccsccccccccccccsccsccscscsscccsccssccccccccsccccccccccccsccccccccsccccscccccccccsccccccsccscccccsccscsccccccccsssscscc" />
  <path
     d="m 213.09033,94.939142 c -0.4,1.6 -1.1,4.6 -1.7,6.799998 -1.3,5.4 -0.2,5.7 2.2,0.5 2.2,-4.899998 2.4,-6.699998 1.1,-8.799998 -0.8,-1.2 -1.1,-0.8 -1.6,1.5 z"
     id="path1361"
     style="fill:#000000;stroke:none;stroke-width:0.1" />
  <path
     d="m 122.79033,158.33914 c -3.7,0.9 -4.9,1.7 -3.8,2.7 0.3,0.4 2.5,-0.3 4.9,-1.5 4.5,-2.2 4.2,-2.5 -1.1,-1.2 z"
     id="path1365"
     style="fill:#000000;stroke:none;stroke-width:0.1" />
  <path
     d="m 165.89033,160.43914 c -1.1,1.1 -4.2,1.3 -14.3,0.9 -4.3,-0.2 -7.5,0.2 -9,1.1 -2.3,1.3 -1.3,1.4 10,1.9 6.9,0.3 13.1,0.9 13.8,1.3 0.7,0.5 1.2,0.3 1.2,-0.5 0,-0.7 0.3,-2.3 0.6,-3.6 0.7,-2.3 -0.5,-2.9 -2.3,-1.1 z"
     id="path1367"
     style="fill:#000000;stroke:none;stroke-width:0.1" />
  <path
     d="m 147.59033,170.13914 c 0,1.1 31.4,8.6 33.4,7.9 1.6,-0.6 -6.1,-4.3 -12.4,-6 -6.2,-1.7 -21,-3.1 -21,-1.9 z"
     id="path1369"
     style="fill:#000000;stroke:none;stroke-width:0.1" />
  <path
     d="m 275.49033,180.23914 c 1.2,1.7 2.7,3.1 3.2,3.1 1.6,0 -0.9,-3.8 -3.3,-5.1 -2.1,-1.1 -2.1,-1.1 0.1,2 z"
     id="path1371"
     style="fill:#000000;stroke:none;stroke-width:0.1" />
  <path
     d="m 288.59033,202.73914 c 0,1.6 5,7.9 5.7,7.2 0.5,-0.5 -4.4,-8.6 -5.2,-8.6 -0.3,0 -0.5,0.6 -0.5,1.4 z"
     id="path1373"
     style="fill:#000000;stroke:none;stroke-width:0.1" />
  <path
     d="m 92.190332,222.93914 c -1.6,6.3 -2.4,11 -1.8,11.6 0.5,0.5 2.5,1.1 4.4,1.4 l 3.6,0.6 2.099998,-8.8 c 1.1,-4.9 2.4,-9.9 2.7,-11 0.5,-1.8 0.2,-2.1 -1.8,-1.7 -1.499998,0.3 -2.899998,-0.2 -3.699998,-1.1 -0.8,-0.9 -1.7,-1.6 -2,-1.6 -0.4,0 -2,4.8 -3.5,10.6 z m 6.2,3.2 c 0.3,0.9 -0.3,1.3 -1.9,1 -1.2,-0.1 -2.4,-0.9 -2.7,-1.6 -0.3,-0.9 0.3,-1.3 1.9,-1 1.2,0.1 2.4,0.9 2.7,1.6 z m -2.2,5.3 c 0.3,0.6 0.2,1.5 -0.3,2 -1.3,1.3 -4.3,0.1 -4.3,-1.7 0,-1.6 3.6,-1.9 4.6,-0.3 z"
     id="path1375"
     style="fill:#000000;stroke:none;stroke-width:0.1" />
  <path
     d="m 80.190332,226.43914 c -0.8,4.2 -0.8,4.9 0.3,4.9 1.4,0 2.5,-6 1.3,-7.2 -0.6,-0.6 -1.2,0.2 -1.6,2.3 z"
     id="path1377"
     style="fill:#000000;stroke:none;stroke-width:0.1" />
  <path
     d="m 206.79033,236.43914 c -3.9,3.8 -4,6.6 -0.8,13.5 4.1,8.8 13.9,11.3 17.6,4.4 1,-1.8 0.8,-1.9 -1.6,-1 -2.9,1.2 -9.5,-0.2 -11.2,-2.3 -0.6,-0.6 -1.3,-2.6 -1.7,-4.2 -0.5,-2.1 -0.4,-2.6 0.3,-1.6 0.8,1.1 1.3,0.8 2.7,-1.3 1.7,-2.5 1.5,-5.6 -0.3,-5.6 -0.5,0 -1.5,1.2 -2.2,2.7 -0.7,1.7 -1.4,2.3 -1.7,1.5 -0.3,-0.7 0.5,-3 1.6,-5.2 2.5,-4.8 1.6,-5.1 -2.7,-0.9 z"
     id="path1379"
     style="fill:#000000;stroke:none;stroke-width:0.1" />
  <path
     d="m 316.09033,234.83914 c 2.2,0.8 5.1,1.4 6.4,1.4 2,0.1 2.1,-0.1 1.1,-1.4 -0.8,-1 -2.9,-1.5 -6.4,-1.4 l -5.1,0.1 z"
     id="path1381"
     style="fill:#000000;stroke:none;stroke-width:0.1" />
  <path
     d="m 77.890332,236.33914 c -0.7,1.1 -1.3,2.4 -1.3,2.9 0,0.5 -1.6,2.6 -3.5,4.7 -1.9,2 -3.6,4.6 -3.6,5.8 -0.4,7.9 -0.3,13.4 0.3,12.8 0.4,-0.4 1.4,-2.9 2.2,-5.5 1.4,-4.6 1.4,-4.7 -0.7,-4.7 -1.7,0 -1.9,-0.2 -0.8,-0.9 2.1,-1.4 5.1,0.5 5.2,3.2 0,1.2 0.9,-1.4 2,-5.8 1.1,-4.4 1.9,-9.5 1.7,-11.3 -0.3,-3.1 -0.4,-3.1 -1.5,-1.2 z"
     id="path1383"
     style="fill:#000000;stroke:none;stroke-width:0.1" />
  <path
     d="m 217.59033,237.73914 c 0,0.8 5.5,6.6 6.2,6.6 1.5,0 0.8,-3 -1.2,-5 -1.7,-1.7 -5,-2.8 -5,-1.6 z"
     id="path1385"
     style="fill:#000000;stroke:none;stroke-width:0.1" />
  <path
     d="m 215.19033,242.23914 c -0.3,0.4 0.3,1.6 1.4,2.6 2.6,2.3 5.2,0.6 3,-2 -1.4,-1.7 -3.6,-2 -4.4,-0.6 z"
     id="path1387"
     style="fill:#000000;stroke:none;stroke-width:0.1" />
  <path
     d="m 346.59033,247.83914 c 1.4,0.8 3.6,1.4 5,1.4 2.4,-0.1 2.4,-0.1 -0.5,-1.4 -1.6,-0.8 -3.9,-1.4 -5,-1.4 -1.8,0 -1.7,0.1 0.5,1.4 z"
     id="path1389"
     style="fill:#000000;stroke:none;stroke-width:0.1" />
  <path
     d="m 215.89033,249.03914 c -2.9,0.5 -3,2 -0.2,2.8 2.9,0.9 6.9,-0.2 6.9,-2 0,-1.5 -2,-1.7 -6.7,-0.8 z"
     id="path1391"
     style="fill:#000000;stroke:none;stroke-width:0.1" />
  <path
     d="m 77.890332,260.03914 c -2.6,1.3 -3.3,2.3 -3.3,4.5 0,3.7 -1.6,6.8 -3.5,6.8 -1,0 -1.5,-1.1 -1.5,-3.5 0,-2.9 -0.4,-3.5 -2.1,-3.5 -1.7,0 -1.9,0.3 -1,1.4 0.9,1.1 0.8,1.7 -0.6,2.8 -1,0.7 -1.9,2.6 -2,4.3 0,1.6 -0.4,4.8 -0.8,7 -0.5,3.2 -0.3,4.4 0.9,5.4 1.9,1.6 2.1,3.1 0.3,3.1 -0.7,0 -2.2,0.7 -3.3,1.5 -1.8,1.4 -1.7,1.4 0.9,0.5 5.4,-1.9 12.2,-1.1 22.5,2.6 9.6,3.4 10,3.7 10.6,7 0.8,4.2 3.4,5.6 9.399998,5.3 3.4,-0.2 6.4,0.5 10.7,2.5 5.9,2.8 17.2,5.9 24.9,7 6.6,0.9 2.7,-1 -9.7,-4.8 -12.3,-3.7 -18.3,-6.1 -19.4,-7.9 -0.4,-0.7 0,-0.8 1.2,-0.3 12,4.6 41.3,13.6 45.9,14.2 7.4,0.8 6.8,-0.5 -1.3,-3.5 -3.3,-1.2 -6.3,-2.6 -6.6,-3.1 -0.4,-0.6 -1.7,-1 -3,-1 -3.4,0 -10.2,-2.9 -10.9,-4.6 -0.3,-0.8 -1.3,-1.4 -2.3,-1.4 -1,0 -5.6,-1.7 -10.3,-3.6 -4.7,-2 -12.1,-5.2 -16.5,-7 l -7.999998,-3.4 0.2,-3.9 c 0.2,-3.8 0,-4 -4.7,-6 -2.7,-1.2 -5.9,-2.1 -7.2,-2.1 -1.5,0 -0.2,0.9 3.5,2.4 3.3,1.4 6.1,2.6 6.3,2.9 0.2,0.2 -0.3,2 -1.1,4 -1.1,2.6 -1.9,3.5 -3.1,3 -1.2,-0.5 -1.3,-0.7 -0.2,-1.4 2.4,-1.5 1.8,-1.8 -22.9,-11.6 -0.8,-0.3 -1.3,0.4 -1.3,2 0,1.4 -0.7,2.8 -1.6,3.1 -2.3,0.9 -2.4,0.8 -2.4,-1.2 0,-3.1 3.6,-5.5 9,-6 4.1,-0.4 4.8,-0.7 3.9,-1.8 -0.9,-1.1 -0.4,-2.5 2,-6.2 4.6,-7.2 4.2,-8.4 -1.6,-5.5 z m 26.699998,38.3 c 2.3,1.4 -0.1,4.4 -3.8,4.8 -2.299998,0.2 -3.199998,-0.2 -3.699998,-1.7 -0.3,-1.2 -0.3,-2.5 0,-3.1 0.8,-1.3 5.499998,-1.3 7.499998,0 z"
     id="path1393"
     style="fill:#000000;stroke:none;stroke-width:0.1" />
  <path
     d="m 171.69033,455.13914 c -0.1,5 0.4,8.3 1.6,10.5 1.4,2.6 1.8,2.9 2.1,1.3 0.2,-1 -0.1,-2.3 -0.7,-2.9 -1.4,-1.4 -1.4,-3 -0.1,-2.2 0.6,0.4 1,-1.5 1,-5 0,-3.5 -0.4,-5.4 -1,-5 -0.6,0.3 -1.4,-0.4 -1.9,-1.7 -0.7,-1.7 -1,-0.5 -1,5 z"
     id="path1423"
     style="fill:#000000;stroke:none;stroke-width:0.1" />
  <path
     d="m 214.09033,539.93914 c 0,9.2 1.2,13.1 3.4,10.8 1.1,-1.1 4.5,-17.4 3.8,-18.1 -0.3,-0.2 -2,-0.8 -3.9,-1.2 l -3.3,-0.8 z"
     id="path1439"
     style="fill:#000000;stroke:none;stroke-width:0.1" />
  <path
     d="m 163.69033,668.93914 c -7.7,1.6 -14.8,4.9 -16.2,7.6 -0.6,1.1 -0.7,1.8 -0.2,1.6 0.4,-0.2 3.5,-1.7 6.8,-3.3 5.5,-2.8 6.9,-3 16.7,-3 6,0 10.8,-0.1 10.8,-0.2 0,-0.1 -1,-0.8 -2.2,-1.4 -4,-2.2 -9.2,-2.6 -15.7,-1.3 z"
     id="path1473"
     style="fill:#000000;stroke:none;stroke-width:0.1" />
  <circle
     style="fill:#000000;fill-opacity:1;stroke-width:0;stroke-linecap:square;stop-color:#000000"
     id="path1646"
     cx="161.71591"
     cy="89.397003"
     r="1.875" />
  <circle
     style="fill:#000000;fill-opacity:1;stroke-width:0;stroke-linecap:square;stop-color:#000000"
     id="path1646-3"
     cx="186.69138"
     cy="86.957123"
     r="1.875" />
  <rect
     style="fill:#000000;fill-opacity:0;stroke-width:0;stroke-linecap:square;stop-color:#000000"
     id="rect1261"
     width="444.03448"
     height="728.47937"
     x="2.8421709e-14"
     y="0"
     ry="0" />
</svg>
