<?xml version="1.0" encoding="UTF-8" standalone="no"?>
<!DOCTYPE svg PUBLIC "-//W3C//DTD SVG 20010904//EN" "http://www.w3.org/TR/2001/REC-SVG-20010904/DTD/svg10.dtd">
<svg version="1.0" xmlns="http://www.w3.org/2000/svg" width="731.000000pt" height="1024.000000pt" viewBox="0 0 731.000000 1024.000000" preserveAspectRatio="xMidYMid meet">
<metadata>
Created by potrace 1.16, written by Peter Selinger 2001-2019
</metadata>
<g transform="translate(0.000000,1024.000000) scale(0.100000,-0.100000)" fill="#000000" stroke="none">
<path d="M1576 9851 c-10 -16 5 -41 24 -41 19 0 30 17 23 38 -5 14 -39 16 -47 3z"/>
<path d="M622 9821 c-13 -18 -18 -32 -12 -36 6 -3 10 -11 10 -17 0 -7 -4 -7 -14 1 -10 9 -16 8 -25 -3 -10 -12 -8 -21 9 -43 11 -16 23 -44 26 -63 5 -29 1 -39 -20 -59 -22 -20 -30 -23 -49 -14 -13 6 -32 28 -42 49 -17 37 -17 40 0 89 10 27 20 57 23 65 9 27 -57 -42 -73 -75 -21 -46 -19 -150 4 -200 22 -47 74 -99 114 -114 45 -17 124 -13 165 8 133 69 164 270 57 371 -29 27 -31 18 -10 -33 23 -55 19 -101 -11 -136 -14 -17 -32 -31 -40 -31 -26 0 -54 39 -54 74 0 18 9 45 20 59 30 38 24 81 -8 54 -13 -10 -14 -8 -8 10 5 15 1 31 -11 47 -23 32 -25 32 -51 -3z"/>
<path d="M5898 9728 c0 -40 -3 -57 -5 -38 -2 19 -6 45 -8 58 l-5 22 -49 -25 c-56 -28 -117 -94 -126 -137 -4 -17 -2 -50 5 -74 7 -24 10 -55 8 -69 -3 -14 -1 -28 5 -32 6 -3 7 -1 3 5 -10 16 0 15 27 -2 51 -34 220 -45 307 -21 93 26 110 33 110 48 0 5 -9 2 -20 -8 -20 -18 -20 -17 -20 23 0 23 5 53 12 67 25 55 -32 178 -97 209 -60 29 -65 24 -66 -56 -1 -88 -5 -80 -14 25 -7 77 -7 77 -36 77 l-29 0 -2 -72z"/>
<path d="M1738 9753 c-4 -15 -12 -20 -33 -18 -15 2 -24 1 -21 -3 22 -21 73 3 64 30 -3 7 -7 3 -10 -9z"/>
<path d="M1542 9668 c3 -21 8 -23 73 -23 63 0 70 2 70 20 0 18 -8 20 -73 23 -72 3 -73 2 -70 -20z"/>
<path d="M1535 9600 c-13 -22 9 -30 81 -30 67 0 74 2 74 20 0 18 -7 20 -74 20 -41 0 -78 -4 -81 -10z"/>
<path d="M6178 9478 c3 -31 1 -49 -5 -45 -6 4 -10 -15 -10 -46 0 -46 0 -47 4 -9 2 23 8 42 14 42 11 0 12 97 1 104 -5 3 -7 -18 -4 -46z"/>
<path d="M5666 9474 c-9 -24 -7 -84 3 -84 5 0 11 23 13 50 3 49 -4 65 -16 34z"/>
<path d="M5360 9416 c-26 -6 -62 -22 -82 -34 -47 -29 -155 -145 -175 -187 -26 -53 -14 -65 64 -65 84 0 133 -13 166 -44 22 -20 32 -23 60 -16 54 12 177 72 187 91 14 25 24 123 16 154 -4 14 -25 46 -48 71 -38 41 -44 44 -92 43 -28 0 -71 -6 -96 -13z"/>
<path d="M5775 9399 c7 -11 72 -29 106 -29 22 0 26 -4 22 -24 -6 -29 15 -136 27 -136 4 0 1 21 -7 48 -8 26 -12 64 -10 85 5 35 4 37 -22 37 -15 0 -49 6 -74 14 -26 8 -45 10 -42 5z"/>
<path d="M6025 9392 c-33 -9 -54 -17 -47 -20 17 -5 111 18 118 29 6 11 6 11 -71 -9z"/>
<path d="M6189 9408 c-1 -2 -2 -15 -3 -30 -2 -20 2 -27 20 -31 17 -3 21 0 16 12 -3 9 -12 20 -19 24 -7 5 -11 12 -8 18 4 5 4 9 1 9 -3 0 -6 -1 -7 -2z"/>
<path d="M1864 9388 c5 -16 -3 -18 -72 -20 l-77 -2 74 -3 c78 -4 97 2 80 27 -9 13 -10 12 -5 -2z"/>
<path d="M5609 9267 c0 -67 -4 -158 -8 -202 -7 -72 -11 -83 -39 -112 -48 -47 -42 -66 27 -97 32 -14 64 -26 71 -26 8 0 22 -8 33 -17 11 -10 17 -12 13 -5 -9 16 2 15 55 -4 24 -8 58 -16 74 -16 17 0 42 -7 57 -14 48 -25 53 -15 51 111 -2 103 0 116 17 125 13 7 21 7 25 0 3 -5 11 -10 18 -10 6 0 2 6 -8 14 -13 9 -26 11 -36 6 -10 -6 -20 -5 -26 1 -8 8 -20 4 -41 -11 -58 -43 -140 -3 -187 91 -28 54 -30 63 -14 53 7 -4 1 7 -12 25 -27 37 -38 42 -15 6 13 -19 13 -25 3 -25 -7 0 -18 18 -24 40 -7 29 -7 40 1 40 7 0 7 3 1 8 -16 12 -14 42 3 42 8 0 23 7 32 15 15 14 22 10 68 -39 29 -30 52 -48 52 -40 0 8 -22 36 -49 62 -32 30 -51 58 -54 77 -4 29 -4 28 -6 -5 -1 -41 -16 -60 -45 -59 -16 1 -17 2 -4 6 20 5 33 52 19 66 -6 6 -20 12 -31 14 -19 3 -20 -3 -21 -120z"/>
<path d="M5965 9293 c-3 -21 -8 -48 -11 -59 -2 -12 2 -24 9 -27 9 -3 13 13 14 59 2 72 -3 83 -12 27z"/>
<path d="M6117 9283 c-20 -25 -37 -50 -37 -55 0 -14 70 71 70 85 0 7 12 -1 25 -16 14 -15 25 -24 25 -19 0 5 -10 18 -23 30 l-22 21 -38 -46z"/>
<path d="M6765 9239 c-4 -22 -4 -43 -1 -46 3 -4 6 4 6 16 0 12 3 20 8 18 4 -3 7 8 8 24 2 43 -13 35 -21 -12z"/>
<path d="M6535 9184 c-22 -19 -24 -23 -7 -14 12 6 26 9 31 6 5 -3 15 2 22 12 13 16 13 16 -5 2 -18 -14 -19 -13 -13 3 8 21 8 21 -28 -9z"/>
<path d="M637 9165 c-4 -22 -7 -75 -7 -118 0 -50 -4 -76 -10 -72 -5 3 -10 0 -10 -9 0 -8 -6 -17 -12 -20 -10 -5 -10 -7 0 -12 6 -3 12 -12 12 -20 0 -8 7 -14 15 -14 8 0 15 -9 15 -20 0 -27 -12 -25 -43 6 -33 33 -43 76 -24 112 12 26 12 31 -6 53 -15 18 -18 34 -14 68 l5 43 -25 -24 c-15 -16 -27 -42 -31 -69 -6 -42 -6 -43 -12 -14 l-7 30 -7 -38 c-21 -101 25 -184 119 -213 51 -16 56 -16 99 0 25 10 59 30 75 45 43 40 64 133 41 186 -7 17 -9 16 -10 -10 -2 -26 -3 -25 -13 15 -12 47 -32 80 -55 94 -11 7 -12 4 -3 -12 17 -32 13 -67 -10 -96 -16 -20 -19 -30 -10 -39 6 -6 11 -31 11 -55 0 -36 -6 -49 -32 -75 -20 -21 -33 -28 -36 -19 -6 19 6 44 18 37 5 -3 10 1 10 9 0 8 8 20 18 25 15 9 15 10 -5 11 -17 0 -21 4 -16 17 4 11 3 14 -5 9 -9 -5 -12 9 -13 51 -1 32 -4 85 -8 118 l-6 60 -8 -40z"/>
<path d="M5903 9183 c15 -2 39 -2 55 0 15 2 2 4 -28 4 -30 0 -43 -2 -27 -4z"/>
<path d="M6263 9095 c0 -44 2 -61 4 -37 2 23 2 59 0 80 -2 20 -4 1 -4 -43z"/>
<path d="M6758 9159 c-2 -6 -21 -12 -43 -14 -21 -1 -41 -7 -43 -14 -2 -6 -8 -9 -13 -5 -17 10 -8 -11 18 -41 24 -28 25 -29 9 -3 -22 37 -21 38 17 39 28 0 29 2 12 10 -17 8 -16 9 7 6 26 -4 58 17 45 29 -2 3 -7 0 -9 -7z"/>
<path d="M5710 9113 c0 -14 71 -95 78 -89 3 3 11 1 19 -5 18 -16 17 -1 -2 17 -9 9 -15 11 -15 4 0 -17 -18 -2 -51 42 -16 23 -29 37 -29 31z"/>
<path d="M5047 9090 c-32 -10 -64 -23 -72 -30 -13 -11 -11 -15 9 -31 13 -11 34 -19 46 -19 11 0 20 -6 18 -12 -2 -7 0 -14 4 -16 4 -2 42 -20 85 -41 43 -21 80 -35 83 -30 8 12 61 31 100 36 44 5 45 6 44 56 -2 49 -23 70 -97 92 -67 20 -149 18 -220 -5z"/>
<path d="M1758 9088 c7 -7 13 -26 13 -42 1 -19 3 -24 6 -13 7 26 -5 67 -19 67 -9 0 -9 -3 0 -12z"/>
<path d="M6440 9085 c-7 -9 -35 -30 -61 -47 -27 -17 -47 -33 -44 -36 6 -6 98 53 120 78 10 11 13 20 8 20 -6 0 -16 -7 -23 -15z"/>
<path d="M1472 9043 c4 -39 35 -40 78 -4 l35 30 -58 1 c-58 0 -58 0 -55 -27z"/>
<path d="M1648 9039 c42 -38 76 -36 80 4 3 27 3 27 -55 27 l-58 -1 33 -30z"/>
<path d="M4911 8968 c-16 -35 -28 -64 -27 -66 2 -1 22 16 46 38 24 22 47 40 52 40 16 0 7 18 -17 34 l-26 17 -28 -63z"/>
<path d="M1553 8973 c-16 -6 -17 -33 -3 -33 11 0 26 28 19 34 -2 2 -10 1 -16 -1z"/>
<path d="M1620 8965 c0 -8 2 -15 4 -15 2 0 11 -3 20 -6 10 -4 16 -1 16 9 0 8 -7 18 -16 21 -22 9 -24 8 -24 -9z"/>
<path d="M6837 8924 c-17 -23 -46 -31 -61 -17 -10 11 -37 12 -30 2 3 -5 10 -7 15 -4 5 4 9 2 9 -3 0 -24 40 -18 66 9 15 16 26 31 23 33 -2 2 -12 -7 -22 -20z"/>
<path d="M5050 8894 c-11 -13 -9 -19 16 -42 l28 -27 -24 28 c-25 28 -21 41 15 50 19 4 19 5 -1 6 -12 0 -27 -6 -34 -15z"/>
<path d="M1570 8889 c0 -5 -3 -8 -7 -6 -5 3 -6 -17 -5 -44 5 -65 22 -63 24 4 l1 52 7 -60 7 -60 1 58 c2 70 22 77 22 7 0 -27 5 -50 10 -50 6 0 10 6 11 13 4 66 3 84 -3 81 -4 -2 -9 0 -13 6 -8 13 -55 13 -55 -1z"/>
<path d="M6141 8879 c8 -5 34 -8 59 -8 53 1 44 6 -24 12 -30 3 -43 1 -35 -4z"/>
<path d="M5110 8865 c-14 -17 -15 -17 22 -32 21 -10 29 -9 39 3 17 21 25 8 8 -13 -11 -15 -10 -15 9 1 21 18 31 11 15 -10 -5 -5 0 -1 9 9 21 22 15 39 -9 30 -10 -4 -14 -2 -9 5 3 6 1 14 -5 18 -7 4 -9 3 -6 -3 4 -6 -3 -19 -16 -29 -20 -17 -20 -18 -7 -1 12 16 12 20 -1 28 -20 13 -35 11 -49 -6z"/>
<path d="M5229 8867 c8 -10 16 -15 19 -12 3 3 16 -5 29 -17 18 -17 27 -19 45 -11 23 10 22 10 -10 27 -18 9 -41 16 -50 14 -9 -1 -24 2 -32 7 -13 8 -13 7 -1 -8z"/>
<path d="M6765 8838 c-16 -17 -25 -28 -19 -25 7 4 14 -3 17 -15 4 -12 9 -19 12 -16 4 3 2 16 -5 27 -7 13 -7 21 -1 21 6 0 15 9 21 20 14 27 10 25 -25 -12z"/>
<path d="M4915 8821 c15 -14 185 -84 191 -79 2 3 -41 24 -98 47 -56 23 -98 37 -93 32z"/>
<path d="M5255 8813 c-5 -10 -7 -24 -6 -31 1 -7 -5 -19 -14 -28 -8 -8 -15 -25 -14 -37 1 -20 2 -19 13 6 13 29 56 66 56 48 0 -6 -9 -15 -19 -21 -34 -17 -35 -46 -4 -85 15 -19 34 -35 40 -35 7 0 20 -12 29 -26 l17 -25 81 78 c44 43 67 62 51 43 -17 -19 -39 -46 -50 -59 -20 -24 -20 -24 0 -11 11 7 35 30 52 52 39 48 34 65 -31 103 -33 19 -57 25 -104 25 -33 0 -64 -4 -67 -10 -3 -5 -13 -10 -22 -10 -13 0 -13 3 -3 15 7 9 11 18 8 21 -3 3 -9 -3 -13 -13z"/>
<path d="M5674 8779 c-8 -14 2 -23 56 -43 25 -9 56 -29 69 -44 l23 -27 -17 30 c-11 21 -34 38 -68 52 -29 12 -51 26 -49 32 3 14 -5 14 -14 0z"/>
<path d="M5836 8771 c-13 -20 7 -37 64 -55 51 -16 59 -22 58 -42 -2 -17 -6 -20 -18 -15 -8 5 -21 6 -29 3 -9 -3 -11 0 -7 7 4 7 17 9 29 6 17 -5 19 -4 7 4 -8 6 -23 8 -34 5 -12 -4 -16 -2 -12 5 5 7 1 8 -10 4 -10 -3 -15 -2 -12 3 3 5 -8 9 -25 10 l-32 1 40 -19 c29 -13 33 -17 13 -13 -15 3 -30 1 -33 -5 -3 -6 1 -7 9 -4 9 3 16 1 16 -6 0 -6 4 -9 9 -5 5 3 12 1 16 -5 4 -6 11 -8 16 -5 5 4 9 2 9 -2 0 -13 62 -34 74 -25 17 11 36 8 103 -17 57 -21 64 -22 78 -7 9 8 17 19 18 23 1 4 10 7 20 6 11 -2 17 4 17 17 0 19 -1 19 -30 1 -30 -18 -32 -18 -98 6 -66 24 -114 54 -62 38 78 -22 152 -36 165 -31 8 3 20 18 26 33 15 40 29 10 16 -34 -12 -37 -1 -53 36 -53 13 0 17 8 17 35 0 26 -4 35 -17 35 -14 0 -13 3 5 16 12 8 22 26 22 40 0 27 -9 31 -29 12 -10 -11 -11 -9 -5 5 6 17 1 18 -67 12 -41 -4 -85 -8 -99 -9 -14 -2 -42 -4 -64 -5 -34 -1 -38 -3 -33 -23 4 -12 1 -28 -5 -36 -9 -10 -8 -12 2 -10 7 2 15 -3 18 -11 3 -8 0 -11 -7 -7 -7 5 -9 1 -4 -10 4 -11 3 -15 -5 -10 -6 3 -13 2 -17 -4 -8 -14 -18 -13 -40 4 -18 13 -18 14 7 9 14 -3 29 0 32 6 4 6 2 11 -5 11 -8 0 -10 11 -6 35 3 19 2 37 -4 40 -5 3 -6 -1 -3 -9 8 -21 -5 -20 -68 5 -63 25 -67 27 -48 39 9 6 10 10 3 10 -6 0 -14 -4 -17 -9z m229 -135 c19 -8 35 -12 35 -8 0 3 5 1 11 -5 6 -6 17 -9 24 -7 16 6 29 -12 16 -20 -10 -7 -110 29 -125 45 -14 13 -1 11 39 -5z"/>
<path d="M5197 8729 c-4 -16 -10 -20 -24 -14 -40 16 -47 15 -18 -1 17 -9 37 -22 45 -30 14 -11 15 -8 12 27 -5 44 -7 48 -15 18z"/>
<path d="M5590 8731 c0 -12 26 -32 33 -25 3 3 30 -2 59 -12 47 -16 50 -18 28 -24 l-25 -6 27 -6 c17 -3 25 -1 21 5 -4 6 2 8 15 5 13 -4 23 0 26 9 3 8 1 11 -4 8 -14 -8 -52 4 -45 15 3 4 -5 6 -17 3 -19 -4 -20 -3 -8 7 12 9 11 10 -7 5 -12 -3 -38 1 -58 10 -44 18 -45 18 -45 6z"/>
<path d="M5640 8677 c0 -8 12 -20 28 -27 42 -22 49 -23 27 -6 -11 9 -28 23 -37 31 -14 12 -18 12 -18 2z"/>
<path d="M5230 8674 c0 -13 78 -89 85 -83 2 3 -16 25 -40 49 -25 24 -45 40 -45 34z"/>
<path d="M5482 8658 c-15 -15 3 -38 29 -38 22 0 31 13 23 34 -7 19 -35 21 -52 4z"/>
<path d="M5448 8625 c-3 -3 -16 -8 -28 -10 -13 -3 -27 -10 -30 -16 -22 -34 15 -88 42 -61 17 17 -3 48 -28 44 -15 -3 -16 -2 -4 12 12 15 15 15 37 -6 22 -20 25 -21 40 -5 13 13 14 19 3 31 -13 17 -23 20 -32 11z"/>
<path d="M5651 8616 c-9 -10 -8 -16 4 -26 14 -11 19 -10 33 6 10 10 13 16 8 12 -6 -5 -19 -8 -29 -8 -16 0 -17 3 -7 15 7 8 10 15 7 15 -2 0 -10 -6 -16 -14z"/>
<path d="M5990 8595 c-10 -12 -10 -15 4 -15 9 0 78 -24 153 -53 76 -30 147 -57 157 -61 10 -3 17 -9 14 -12 -3 -2 -29 4 -57 16 -48 19 -100 29 -56 10 116 -48 121 -49 122 -30 1 14 -30 31 -155 80 -86 33 -159 66 -163 71 -3 6 -11 4 -19 -6z"/>
<path d="M6090 8576 c47 -25 67 -27 84 -10 10 9 15 19 12 21 -3 3 -12 -2 -21 -11 -15 -14 -20 -14 -52 -1 -44 18 -57 19 -23 1z"/>
<path d="M6326 8567 c2 -7 25 -20 49 -29 40 -15 45 -15 45 -2 0 11 -6 13 -21 9 -13 -5 -19 -3 -15 3 7 11 -21 25 -35 16 -5 -3 -9 0 -9 5 0 6 -4 11 -10 11 -5 0 -7 -6 -4 -13z"/>
<path d="M6283 8531 c0 -28 5 -33 51 -50 28 -11 63 -24 78 -30 15 -6 30 -7 32 -2 3 4 -1 8 -8 8 -17 0 -128 43 -140 55 -17 14 10 9 64 -12 28 -11 56 -20 63 -20 7 1 -17 13 -53 27 -36 15 -70 33 -76 41 -8 12 -11 8 -11 -17z"/>
<path d="M5764 8518 c-5 -7 -3 -8 5 -4 18 11 10 -26 -9 -42 -13 -11 -11 -11 8 -2 13 7 21 14 18 17 -3 3 -1 14 5 24 7 15 6 19 -5 19 -8 0 -18 -5 -22 -12z"/>
<path d="M5684 8492 c4 -20 -9 -78 -20 -91 -2 -2 -11 2 -20 10 -16 13 -16 12 -3 -9 18 -29 30 -24 46 23 10 28 11 46 3 64 -9 23 -10 24 -6 3z"/>
<path d="M5982 8460 c-7 -12 -17 -18 -22 -15 -5 3 -14 -3 -19 -14 -17 -30 -12 -39 5 -11 9 15 13 17 10 6 -20 -62 -27 -108 -24 -154 l3 -53 35 52 c85 127 145 114 204 -43 10 -27 22 -48 27 -48 5 0 13 -10 18 -22 6 -18 12 -9 34 51 15 40 27 78 27 85 0 8 -13 19 -30 26 -20 8 -30 19 -30 34 0 37 -22 54 -118 91 -52 19 -97 35 -100 35 -4 0 -13 -9 -20 -20z"/>
<path d="M588 8435 c-48 -18 -85 -42 -92 -62 -5 -13 -4 -14 8 -4 8 6 18 11 22 10 19 -3 70 25 87 47 10 13 17 24 15 23 -2 0 -19 -6 -40 -14z"/>
<path d="M701 8427 c32 -31 79 -60 86 -53 3 3 15 0 27 -5 15 -8 13 -3 -10 20 -17 18 -51 38 -78 46 l-49 15 24 -23z"/>
<path d="M6601 8426 c-10 -12 -8 -17 8 -25 13 -7 22 -8 26 -1 3 5 -1 10 -10 10 -11 0 -15 5 -11 15 7 19 2 19 -13 1z"/>
<path d="M5711 8380 c-12 -17 -20 -36 -18 -43 2 -7 14 7 26 31 25 50 23 53 -8 12z"/>
<path d="M5742 8373 c-5 -16 -13 -37 -17 -48 -6 -14 -5 -17 3 -10 15 15 42 85 32 85 -4 0 -13 -12 -18 -27z"/>
<path d="M6450 8380 c0 -7 80 -34 85 -28 2 2 -16 11 -41 20 -24 8 -44 12 -44 8z"/>
<path d="M6625 8374 c-13 -13 -18 -14 -33 -3 -9 7 -14 9 -9 4 4 -4 -1 -18 -10 -29 -17 -20 -17 -20 0 -7 15 12 17 11 17 -12 0 -14 4 -29 10 -32 5 -3 7 0 4 8 -3 9 2 13 17 13 12 -1 24 6 26 14 4 12 3 13 -5 1 -10 -14 -42 -9 -42 8 0 10 29 23 39 17 4 -3 7 4 7 15 0 23 -1 23 -21 3z"/>
<path d="M641 8348 c5 -18 9 -33 9 -34 0 -1 -10 -4 -22 -7 -15 -4 -30 1 -44 14 l-22 21 -12 -22 c-13 -23 -1 -39 28 -40 23 0 13 -50 -13 -62 -28 -13 -30 -19 -13 -36 9 -9 16 -8 29 4 11 10 25 13 39 9 19 -6 21 -12 17 -41 -5 -31 -3 -34 19 -34 21 0 24 5 24 34 0 41 24 54 52 29 17 -15 20 -15 28 -3 15 23 12 29 -15 42 -14 6 -25 20 -25 30 0 10 11 24 25 30 27 12 29 17 19 43 -6 14 -9 14 -28 -4 -15 -14 -29 -18 -45 -14 -20 5 -22 10 -16 39 5 31 4 34 -19 34 -23 0 -24 -2 -15 -32z"/>
<path d="M5755 8325 c-9 -25 -15 -50 -13 -56 2 -7 10 7 16 30 7 23 17 39 22 36 6 -4 10 1 10 9 0 33 -18 23 -35 -19z"/>
<path d="M6233 8349 c2 -8 10 -13 17 -11 19 4 120 -20 115 -28 -2 -4 7 -5 22 -2 16 3 24 1 20 -5 -4 -6 3 -8 18 -5 14 2 25 6 25 7 0 2 -42 13 -92 25 -51 11 -101 24 -112 27 -13 3 -17 1 -13 -8z"/>
<path d="M466 8332 c-11 -18 -18 -85 -12 -117 6 -31 9 -34 21 -21 17 17 20 96 4 96 -7 0 -9 10 -5 25 6 24 2 33 -8 17z"/>
<path d="M843 8323 c3 -13 1 -26 -4 -29 -10 -6 -12 -68 -2 -102 4 -18 8 -20 14 -10 12 19 11 130 -2 148 -9 12 -10 11 -6 -7z"/>
<path d="M6480 8290 c14 -4 19 -8 11 -9 -8 -1 -12 -3 -9 -6 3 -4 19 -3 34 1 l29 8 -25 7 c-14 4 -34 7 -45 7 -16 0 -15 -2 5 -8z"/>
<path d="M6546 8272 c-3 -5 6 -8 22 -5 24 3 25 2 7 -7 -16 -8 -13 -9 14 -4 23 4 36 2 42 -7 6 -10 9 -10 9 -2 0 15 -8 20 -51 28 -21 4 -39 3 -43 -3z"/>
<path d="M5606 8154 c-20 -59 -32 -104 -27 -98 13 14 75 194 69 200 -3 3 -22 -43 -42 -102z"/>
<path d="M5982 8240 c-13 -12 -22 -33 -22 -48 l1 -27 22 26 c12 15 38 36 57 48 l35 21 -36 0 c-22 0 -44 -8 -57 -20z"/>
<path d="M6035 8199 c-41 -36 -82 -102 -96 -154 -17 -61 21 -135 69 -135 20 0 128 107 146 145 20 41 20 97 1 134 -26 51 -69 54 -120 10z"/>
<path d="M5768 8071 c-45 -71 -72 -124 -68 -131 5 -9 9 -9 14 -1 4 6 1 11 -6 11 -8 0 -9 3 -3 8 23 16 159 232 146 232 -4 0 -42 -54 -83 -119z"/>
<path d="M510 8115 c36 -38 85 -66 117 -64 15 0 14 2 -4 11 -13 6 -23 16 -23 23 0 7 -19 20 -42 30 -24 9 -52 22 -63 27 -12 6 -7 -4 15 -27z"/>
<path d="M815 8135 c-5 -2 -21 -6 -35 -9 -30 -6 -112 -76 -90 -76 27 1 94 37 119 64 14 14 23 26 20 25 -2 0 -8 -2 -14 -4z"/>
<path d="M5825 8060 c-36 -37 -45 -73 -11 -41 12 12 26 18 29 14 4 -3 7 -1 7 5 0 7 -6 12 -12 12 -8 0 -5 7 6 15 11 8 17 17 15 20 -3 3 -18 -9 -34 -25z"/>
<path d="M6190 8032 c-10 -31 -10 -46 -2 -54 8 -8 12 -1 17 25 11 58 1 78 -15 29z"/>
<path d="M5541 8037 c-8 -12 -21 -32 -29 -44 -8 -13 -12 -23 -8 -23 8 0 60 80 55 85 -3 2 -11 -6 -18 -18z"/>
<path d="M5573 7975 c0 -27 2 -38 4 -22 2 15 2 37 0 50 -2 12 -4 0 -4 -28z"/>
<path d="M6091 7940 c-73 -67 -112 -65 -150 8 l-19 37 -8 -40 c-15 -71 -8 -245 12 -340 14 -68 19 -129 19 -251 l0 -161 32 13 c18 8 45 14 60 13 23 -1 20 -3 -14 -10 -23 -6 -46 -16 -52 -23 -9 -10 1 -12 47 -10 l57 4 -68 -13 c-37 -7 -74 -20 -81 -28 -8 -7 -17 -41 -20 -74 -5 -49 -4 -55 5 -35 35 81 24 75 137 74 84 0 102 2 97 14 -3 7 -5 16 -5 18 0 3 -15 11 -32 19 -24 10 -28 14 -13 15 18 0 18 2 -5 21 -23 18 -23 19 -2 9 21 -10 22 -9 22 38 0 72 27 212 54 284 33 89 46 156 55 293 9 124 7 145 -14 145 -7 0 -18 7 -25 15 -19 23 -31 18 -89 -35z m-68 -206 l23 -99 22 65 c23 70 21 39 -4 -49 -8 -29 -18 -51 -20 -48 -6 5 -54 212 -54 230 0 27 12 -8 33 -99z m14 -451 c-2 -16 -4 -3 -4 27 0 30 2 43 4 28 2 -16 2 -40 0 -55z"/>
<path d="M5741 7959 c-1 -9 -8 -22 -16 -29 -25 -21 -18 -47 16 -59 41 -14 44 -14 29 4 -7 8 -18 15 -26 15 -22 0 -27 20 -9 40 9 10 15 25 12 32 -4 9 -6 8 -6 -3z"/>
<path d="M677 7636 c-9 -46 -17 -92 -17 -102 0 -9 -8 -27 -17 -38 -18 -21 -18 -21 3 -3 11 9 23 15 26 12 3 -3 4 10 3 27 -1 18 3 51 10 73 l11 40 12 -50 c17 -67 13 -105 -10 -105 -13 0 -18 -8 -18 -25 0 -19 5 -25 21 -25 13 0 18 -4 13 -12 -5 -9 -2 -9 9 1 18 15 23 26 7 16 -11 -7 -14 38 -3 48 3 4 13 1 22 -5 14 -11 14 -10 0 7 -9 11 -19 40 -23 65 -4 25 -12 71 -19 102 l-13 58 -17 -84z"/>
<path d="M630 7605 c0 -26 -9 -32 -26 -15 -7 7 -16 4 -28 -9 -11 -12 -14 -21 -7 -26 19 -11 12 -25 -14 -25 -18 0 -25 -5 -25 -20 0 -30 60 -28 87 4 24 28 42 116 24 116 -6 0 -11 -11 -11 -25z"/>
<path d="M746 7584 c8 -58 40 -94 83 -94 24 0 31 4 31 20 0 15 -7 20 -25 20 -26 0 -33 14 -14 25 7 5 4 14 -7 26 -12 13 -21 16 -28 9 -17 -17 -26 -11 -26 15 0 14 -5 25 -11 25 -7 0 -8 -16 -3 -46z"/>
<path d="M950 7459 c33 -13 33 -14 20 -41 -11 -22 -10 -22 4 -4 9 11 16 23 16 28 0 10 -35 28 -52 27 -7 0 -2 -5 12 -10z"/>
<path d="M567 7413 c-47 -5 -44 -24 3 -29 36 -4 80 -42 80 -70 0 -10 12 -14 45 -14 33 0 45 4 45 14 0 28 44 66 80 70 43 4 53 26 12 26 -17 0 -37 2 -45 5 -7 3 -25 -4 -38 -15 l-24 -21 28 17 c15 9 30 14 33 11 9 -9 -63 -47 -91 -47 -28 0 -100 38 -91 47 3 3 18 -2 33 -11 l28 -17 -24 20 c-13 12 -26 20 -30 19 -3 -1 -23 -3 -44 -5z"/>
<path d="M5944 7066 c-8 -14 -14 -38 -13 -53 2 -15 1 -33 -3 -38 -3 -6 -9 -49 -13 -97 l-7 -87 30 -31 c29 -29 34 -30 120 -30 82 0 93 2 120 25 25 20 30 32 28 63 -3 58 -36 144 -52 138 -8 -3 -11 0 -8 8 3 8 0 17 -6 21 -9 6 -9 9 0 15 16 10 -4 76 -26 84 -9 3 -47 6 -85 6 -62 0 -70 -2 -85 -24z m153 -52 c13 -4 21 -10 18 -14 -3 -5 -18 -3 -34 3 -35 13 -61 4 -61 -23 0 -16 7 -20 33 -22 l32 -1 -32 -4 c-26 -4 -33 -10 -41 -41 -9 -32 -10 -29 -6 27 3 46 1 67 -8 73 -15 9 65 11 99 2z m25 -82 c-8 -23 -22 2 -15 28 6 22 7 22 13 4 4 -10 5 -25 2 -32z m-131 -103 c-6 -18 -11 -36 -11 -41 0 -6 41 -8 100 -6 55 1 100 0 100 -4 0 -5 -48 -8 -107 -8 -106 1 -108 1 -127 28 l-20 27 22 -18 c20 -19 21 -19 33 22 7 23 14 39 17 37 2 -3 -1 -19 -7 -37z"/>
<path d="M3721 6843 c-23 -15 -23 -17 -6 -30 25 -17 40 -17 60 3 15 16 21 15 77 -12 34 -16 87 -46 117 -67 l56 -39 -49 50 c-55 56 -133 96 -177 90 -20 -3 -29 0 -29 9 0 18 -21 16 -49 -4z"/>
<path d="M3610 6774 c-51 -30 -106 -79 -122 -108 -7 -13 4 -8 32 15 23 19 67 53 98 77 63 47 59 55 -8 16z"/>
<path d="M4054 6644 c15 -22 29 -56 32 -76 4 -22 12 -38 20 -38 29 0 -31 137 -65 148 -8 3 -2 -13 13 -34z"/>
<path d="M3450 6598 c0 -7 -3 -24 -6 -38 -4 -18 -1 -16 10 9 19 39 19 41 6 41 -5 0 -10 -6 -10 -12z"/>
<path d="M3838 6464 c-46 -24 -50 -44 -22 -102 14 -29 30 -52 37 -52 8 0 8 3 2 8 -13 9 -45 89 -38 96 3 3 14 0 24 -7 14 -9 21 -9 31 1 19 19 42 14 73 -18 25 -26 27 -34 21 -76 -3 -26 -26 -92 -50 -148 -43 -100 -43 -101 -25 -125 11 -13 19 -32 19 -41 0 -28 -32 -58 -70 -68 -33 -8 -35 -6 -67 40 -18 26 -33 57 -33 68 0 18 6 20 55 20 48 0 55 2 55 20 0 22 -22 25 -93 14 -31 -6 -36 -10 -32 -25 11 -35 -4 -19 -53 54 -59 86 -96 157 -83 157 5 0 5 14 -1 34 -9 28 -8 40 6 60 22 35 49 33 86 -6 l31 -33 19 24 c28 33 25 43 -22 79 -68 52 -128 43 -169 -25 -12 -21 -38 -55 -56 -76 -38 -42 -38 -46 -18 -73 14 -18 14 -17 15 14 0 34 36 81 50 65 4 -4 16 -35 28 -68 11 -33 36 -95 56 -138 40 -87 36 -96 -30 -78 -21 6 -40 8 -43 5 -3 -2 5 -7 17 -11 12 -3 22 -9 22 -14 0 -13 -51 1 -74 20 -17 14 -19 14 -14 1 3 -9 16 -52 28 -95 27 -99 26 -96 55 -85 37 14 45 -23 11 -57 -18 -17 -26 -37 -26 -60 0 -39 -23 -57 -135 -100 -102 -41 -55 -40 105 1 76 20 141 36 144 36 3 0 12 -12 20 -27 15 -27 15 -26 16 44 0 76 6 103 22 103 6 0 8 -25 3 -67 -4 -42 -2 -79 5 -97 8 -23 8 -32 -5 -46 -28 -31 -18 -46 38 -59 83 -19 209 -25 250 -12 20 7 50 25 67 41 31 29 40 53 16 44 -17 -6 -21 0 -31 44 -4 20 -3 32 4 32 6 0 11 -6 11 -14 0 -7 7 -20 16 -27 15 -12 16 -10 9 21 -11 54 11 25 35 -45 l21 -60 -40 -37 c-45 -42 -42 -48 7 -18 18 11 46 20 62 20 24 0 28 3 23 18 -3 9 -16 28 -29 42 -13 14 -29 43 -37 65 -18 50 -30 115 -22 115 10 0 35 -67 35 -93 0 -15 10 -29 30 -41 48 -28 138 -143 181 -232 37 -77 89 -247 78 -258 -3 -3 -27 6 -53 19 -27 14 -53 22 -59 18 -7 -4 2 -12 20 -19 55 -23 99 -87 123 -177 12 -45 31 -111 43 -147 22 -70 28 -140 12 -153 -6 -6 -6 -10 3 -14 6 -2 12 -9 12 -14 0 -6 -5 -7 -11 -3 -16 9 -29 -15 -29 -53 0 -27 -4 -33 -20 -33 -12 0 -34 -7 -50 -15 l-30 -16 0 -129 c0 -87 -4 -131 -12 -136 -8 -5 -10 23 -5 114 3 67 5 122 3 122 -1 0 -31 -12 -67 -26 -41 -17 -91 -28 -139 -31 -73 -5 -77 -4 -152 36 -92 49 -122 51 -239 16 -46 -14 -89 -23 -96 -20 -20 7 -15 31 10 48 l22 16 -27 0 c-29 1 -45 16 -28 26 6 3 40 12 76 18 l66 13 -51 34 c-38 26 -50 40 -47 53 4 15 0 18 -17 14 -53 -13 -150 -20 -144 -10 4 6 27 13 53 16 25 2 53 12 61 20 13 13 12 17 -14 32 -34 20 -73 78 -102 152 l-20 52 32 25 c51 38 246 144 299 162 26 8 50 19 53 24 9 14 -77 -10 -175 -49 -104 -42 -199 -66 -228 -57 -21 7 -25 15 -76 128 -26 58 -43 83 -68 98 -46 28 -55 25 -62 -20 -3 -22 -11 -40 -16 -40 -6 0 -10 5 -10 10 0 6 -7 10 -15 10 -8 0 -15 -6 -15 -12 0 -7 -4 -19 -9 -27 -7 -11 -13 -11 -32 3 -30 21 -53 21 -45 0 3 -9 3 -14 -1 -12 -146 72 -190 91 -252 104 -83 17 -86 16 -96 -48 -7 -38 18 -138 35 -138 4 0 11 17 14 38 12 63 16 72 48 88 28 15 31 14 54 -7 20 -18 24 -19 24 -6 0 23 160 -73 182 -110 10 -15 18 -44 18 -63 0 -41 -46 -236 -85 -358 -15 -46 -25 -85 -23 -87 2 -2 66 -30 143 -63 145 -62 343 -159 508 -250 l96 -52 -39 -63 c-21 -34 -48 -91 -60 -127 -12 -36 -23 -66 -24 -68 -2 -1 -28 9 -58 22 -68 30 -123 37 -123 16 0 -11 -12 -15 -48 -13 l-47 1 0 -36 c1 -30 3 -34 11 -19 5 9 17 17 24 17 25 0 17 -49 -12 -76 -26 -24 -26 -25 -14 -79 10 -43 10 -59 0 -77 -13 -23 -13 -23 -20 9 -8 41 -26 63 -45 56 -19 -7 -17 -49 6 -98 10 -22 19 -36 19 -31 1 6 7 1 15 -9 13 -18 15 -18 41 -1 l27 18 -18 -31 c-21 -35 -64 -44 -64 -13 0 15 -2 15 -10 2 -16 -23 1 -180 19 -180 4 0 4 25 -1 56 -10 65 -5 78 23 63 28 -15 48 -5 61 31 10 29 44 58 55 47 3 -3 -2 -36 -10 -74 -9 -37 -21 -118 -27 -180 -12 -108 -13 -112 -41 -123 -30 -13 -34 -24 -45 -133 -5 -54 -3 -71 8 -80 9 -7 34 -68 57 -137 60 -177 164 -390 190 -390 11 0 19 259 12 375 -7 121 -17 103 -31 -61 -5 -67 -14 -132 -19 -145 -8 -22 -11 -20 -34 31 -13 30 -37 100 -52 155 -14 55 -38 125 -51 156 -21 46 -24 68 -22 130 3 72 4 74 31 77 15 2 27 9 27 16 0 72 44 332 60 349 10 11 60 -42 61 -67 1 -11 2 -111 3 -221 1 -135 5 -207 13 -220 10 -16 12 -1 13 85 0 58 3 175 6 260 l6 155 -32 18 c-53 29 -28 30 28 1 50 -26 105 -74 85 -74 -5 0 -18 9 -28 20 -10 11 -22 20 -27 20 -4 0 -8 -135 -8 -300 0 -165 3 -300 8 -300 4 0 15 9 24 19 11 14 13 22 5 30 -17 17 -26 127 -20 229 l6 92 42 0 43 0 6 -45 c4 -25 11 -45 17 -45 5 0 9 5 9 10 0 6 5 10 11 10 7 0 8 -31 4 -100 -8 -99 -7 -100 15 -100 21 0 22 -3 15 -37 -5 -21 -9 -58 -10 -83 l-2 -45 -81 -9 c-79 -9 -81 -10 -88 -39 -4 -20 -1 -34 9 -44 13 -13 13 -18 -1 -42 -10 -18 -13 -34 -7 -47 7 -17 8 -18 12 -1 3 9 11 17 20 17 12 0 14 9 11 43 -3 23 -8 51 -13 61 -8 18 -5 19 34 13 24 -3 45 -8 49 -11 3 -4 0 -44 -7 -89 -7 -45 -16 -125 -20 -177 -6 -100 -16 -133 -32 -109 -6 10 -9 5 -9 -14 0 -16 4 -26 9 -22 5 3 12 1 16 -5 3 -5 -1 -10 -9 -10 -10 0 -16 -9 -16 -24 0 -13 -3 -31 -6 -40 -4 -11 -1 -16 11 -16 13 0 16 -6 11 -22 -3 -13 -6 -29 -6 -35 0 -7 -4 -13 -10 -13 -5 0 -10 7 -10 15 0 8 -4 15 -10 15 -16 0 -30 -37 -30 -79 l0 -40 -82 6 c-65 4 -88 10 -107 27 -19 17 -23 18 -18 4 16 -44 18 -92 7 -138 -13 -55 -20 -63 -44 -54 -12 5 -16 21 -16 73 0 118 11 201 27 201 9 0 12 7 9 18 -11 37 -54 239 -60 282 -4 32 -3 41 4 30 5 -8 10 -27 10 -41 0 -33 28 -126 40 -134 5 -3 6 41 3 107 -4 92 -3 111 7 101 7 -7 14 -20 15 -30 1 -25 15 -44 25 -38 14 9 70 -110 70 -146 0 -18 6 -37 14 -43 7 -6 16 -28 19 -49 7 -45 -7 -48 -61 -12 -44 30 -62 32 -62 7 0 -24 53 -97 79 -111 23 -13 61 -14 79 -2 8 5 15 37 19 82 5 71 4 77 -31 139 -60 107 -112 219 -150 325 -54 148 -87 225 -97 225 -4 0 -13 -19 -20 -42 -14 -54 2 -262 33 -431 l22 -119 -66 -61 -66 -62 -6 -135 c-4 -92 -2 -148 6 -175 10 -32 13 -36 16 -17 2 12 7 20 12 17 4 -2 -3 -41 -15 -85 -22 -78 -22 -80 -3 -80 14 0 19 -6 16 -22 -2 -16 -10 -23 -24 -22 -18 0 -19 -3 -10 -23 6 -12 20 -24 31 -25 16 -2 21 -14 27 -52 4 -27 14 -56 24 -65 9 -9 14 -10 10 -4 -4 8 -1 13 8 13 10 0 16 9 16 24 0 14 4 27 8 30 4 2 8 -25 9 -62 0 -37 15 -137 33 -222 23 -110 34 -188 36 -270 2 -63 10 -151 19 -195 8 -44 15 -113 15 -152 0 -45 4 -73 11 -73 40 0 69 51 69 120 0 38 -22 71 -35 50 -17 -27 -25 -3 -25 75 0 46 -13 167 -30 267 -33 205 -54 394 -45 408 3 6 13 10 22 10 10 0 14 6 10 20 -7 28 8 25 28 -7 17 -26 19 -26 26 -8 16 46 44 -75 59 -259 20 -238 33 -351 41 -366 10 -16 8 8 -21 386 -16 219 -20 244 -39 263 -17 17 -21 33 -21 80 0 82 -12 111 -47 112 -28 1 -28 1 5 12 18 5 34 8 36 6 2 -2 11 -44 19 -92 9 -49 17 -91 20 -93 2 -2 17 -1 34 2 28 5 30 9 42 79 8 49 19 79 32 91 17 16 22 16 29 4 15 -24 42 -155 38 -186 -2 -19 -10 6 -23 69 -17 87 -20 96 -34 82 -8 -8 -18 -44 -22 -82 -5 -52 -12 -71 -29 -85 l-21 -17 20 -328 c14 -206 29 -363 41 -422 10 -51 20 -94 22 -95 2 -1 15 -10 31 -19 37 -24 37 -52 0 -42 -16 4 -28 7 -28 8 -1 1 -6 14 -13 30 -14 34 -54 37 -80 5 -32 -39 -96 -112 -163 -184 -65 -70 -88 -119 -74 -157 5 -12 10 -11 29 8 33 32 126 64 209 70 39 4 88 9 107 12 l35 6 -30 13 c-40 18 -77 16 -160 -6 -38 -10 -71 -17 -73 -15 -1 1 35 21 80 43 70 34 80 42 61 48 -29 8 -29 12 7 61 l31 42 33 -20 c18 -10 38 -30 44 -44 11 -23 9 -24 -34 -31 -49 -7 -70 -24 -29 -24 14 0 41 -6 59 -14 32 -13 33 -17 40 -82 4 -38 9 -84 12 -101 l6 -33 -32 12 c-25 8 -52 8 -109 -1 -42 -6 -111 -11 -153 -11 -43 0 -78 -3 -78 -7 0 -5 7 -16 14 -25 29 -39 268 -48 335 -13 16 8 35 29 44 46 13 28 13 37 2 59 -22 42 -27 111 -16 195 10 69 9 89 -9 159 -43 178 -49 350 -24 776 16 278 17 285 41 305 13 11 43 58 67 104 l43 83 32 -45 c33 -48 68 -80 40 -37 -55 86 -71 120 -55 120 12 0 16 10 16 39 0 23 6 44 16 52 15 12 16 10 12 -25 -4 -33 -2 -36 9 -21 7 10 14 23 16 29 3 8 8 7 18 -2 9 -9 10 -12 1 -12 -7 0 -12 -6 -12 -14 0 -10 13 -16 38 -18 l37 -3 0 -57 c0 -55 1 -57 24 -51 17 4 22 2 19 -8 -2 -8 -22 -16 -44 -19 l-39 -5 36 -27 c19 -15 52 -34 72 -43 20 -8 37 -19 37 -23 0 -4 -14 -56 -30 -117 -17 -60 -30 -116 -30 -124 0 -24 40 19 67 74 27 53 38 65 64 65 11 0 19 -12 24 -37 4 -21 13 -49 20 -64 12 -23 11 -52 -10 -220 -22 -182 -42 -387 -48 -489 -2 -45 -2 -45 -47 -56 l-45 -11 -8 31 c-4 17 -11 156 -16 308 -4 153 -11 281 -14 285 -4 3 -7 4 -7 2 0 -2 -7 -42 -16 -89 -9 -53 -17 -175 -21 -320 -4 -179 -9 -239 -19 -251 -8 -9 -11 -19 -7 -24 5 -4 -4 0 -19 10 -32 20 -36 35 -10 35 16 0 18 8 15 62 -1 35 -4 146 -7 248 -6 290 -21 266 -21 -33 0 -211 -3 -264 -14 -273 -11 -8 -11 -15 -2 -32 8 -16 10 -53 5 -121 -7 -96 -6 -99 16 -111 12 -7 75 -15 139 -20 105 -6 124 -11 195 -44 123 -58 182 -70 316 -63 63 4 135 12 160 20 l45 13 -3 50 c-4 61 -11 69 -75 90 -64 21 -125 51 -152 74 -11 9 -51 25 -88 35 -84 22 -156 68 -179 115 -28 54 -23 185 12 385 16 94 30 182 30 196 0 15 7 32 15 39 11 9 15 32 15 77 0 36 12 134 26 217 l27 151 53 56 c29 31 56 69 60 84 10 39 -10 114 -51 198 l-36 72 25 105 c47 200 97 475 99 550 1 41 -6 118 -16 171 l-18 97 26 128 c14 71 25 153 25 182 0 45 -3 52 -19 52 -11 0 -23 -4 -26 -10 -16 -26 -20 0 -20 132 -1 101 -9 199 -29 333 -26 179 -29 192 -57 220 -33 35 -40 97 -14 131 26 34 18 129 -25 303 -22 89 -40 183 -40 209 l0 47 85 -85 c115 -114 190 -210 250 -322 44 -82 54 -93 85 -101 19 -5 46 -19 60 -32 18 -17 46 -26 100 -34 141 -21 494 -112 504 -130 5 -9 47 -51 93 -95 53 -50 83 -86 83 -100 0 -35 17 -53 37 -40 20 12 30 54 14 54 -6 0 -11 -7 -11 -15 0 -8 -4 -15 -9 -15 -5 0 -12 22 -16 49 -8 57 6 91 36 91 18 0 20 -4 13 -45 -5 -36 -3 -45 7 -43 11 2 13 -9 11 -47 -3 -64 9 -86 36 -62 10 9 26 17 35 17 19 0 24 44 8 69 -8 12 -13 11 -30 -10 -20 -23 -20 -23 -21 -3 0 12 -3 42 -6 67 -6 40 -4 46 16 52 20 6 21 8 4 26 -11 13 -21 16 -29 9 -6 -5 -29 -12 -52 -16 -37 -6 -41 -4 -47 20 -7 30 15 80 39 90 28 10 62 7 74 -8 6 -7 17 -31 25 -52 13 -39 20 -42 64 -28 33 10 27 -12 -8 -26 -25 -10 -30 -18 -30 -46 0 -30 3 -34 25 -34 30 0 32 -15 11 -84 -10 -33 -11 -46 -3 -43 6 2 15 21 19 42 11 49 15 53 32 30 12 -16 16 -17 30 -6 23 20 21 44 -4 36 -15 -5 -18 -3 -14 10 4 8 1 36 -5 62 -15 59 2 84 18 27 6 -22 11 -47 11 -56 0 -10 5 -18 10 -18 30 0 -13 128 -58 176 -15 15 -16 24 -8 46 13 34 3 43 -112 99 -88 43 -122 50 -46 10 55 -30 61 -61 11 -61 -25 0 -41 -8 -64 -35 -31 -35 -31 -35 -67 -20 -32 14 -43 14 -91 1 l-55 -14 -8 31 c-10 35 0 84 21 104 11 12 22 10 62 -7 27 -12 58 -19 69 -17 17 2 13 6 -18 20 -57 25 -69 37 -55 54 14 16 55 10 102 -13 33 -17 34 -12 5 28 -11 17 -44 41 -72 53 -65 28 -110 39 -101 25 3 -5 12 -10 18 -10 7 0 19 -4 27 -10 12 -7 10 -12 -12 -30 -15 -11 -43 -43 -63 -70 -20 -28 -43 -50 -50 -50 -7 0 -68 16 -136 35 -119 34 -153 37 -115 10 50 -37 -55 -49 -128 -14 -60 28 -79 50 -70 83 3 14 9 26 13 26 3 0 42 -11 85 -25 145 -46 149 -47 187 -27 33 16 39 28 42 81 2 20 -6 26 -58 42 -85 26 -191 109 -230 179 -21 37 -38 56 -53 58 -20 3 -19 0 11 -30 32 -33 32 -33 8 -36 -14 -2 -40 8 -68 28 -24 18 -47 30 -50 26 -12 -12 9 -37 52 -64 25 -15 45 -31 45 -35 0 -5 -9 -21 -20 -37 -20 -29 -70 -47 -70 -25 0 6 -11 22 -25 35 -14 13 -23 25 -20 28 2 2 -2 17 -10 33 -8 15 -15 44 -15 64 0 28 -5 37 -24 45 -13 5 -34 6 -45 3 -21 -5 -21 -7 -5 -24 10 -11 15 -21 12 -24 -2 -3 -26 21 -51 53 -52 63 -57 88 -29 144 14 26 15 35 5 31 -8 -3 -3 12 12 38 28 50 34 109 10 109 -9 0 -34 9 -56 21 -22 11 -48 19 -57 17 -13 -3 -9 -8 14 -20 17 -9 37 -25 45 -34 10 -13 1 -11 -33 8 -40 22 -48 24 -48 11 0 -30 -14 -3 -31 60 -9 34 -30 99 -47 145 -35 91 -32 96 37 57 55 -32 67 -25 14 8 -78 49 -192 77 -314 77 -86 0 -96 4 -121 54 -30 59 -47 76 -81 76 -46 0 -75 52 -43 79 10 9 16 8 26 -4 7 -8 17 -15 22 -15 5 0 8 76 6 188 -2 103 1 206 5 229 9 42 9 42 -33 63 -25 13 -51 19 -65 16 -19 -5 -25 0 -34 25 -9 26 -8 30 4 25 22 -8 18 12 -4 24 -28 15 -101 12 -133 -6z m235 -244 c-1 -66 -7 -128 -12 -138 -9 -14 -10 -11 -11 16 0 21 -4 31 -11 27 -5 -4 -9 -19 -7 -33 2 -17 -2 -27 -9 -26 -40 3 -40 0 -26 92 8 48 13 114 12 147 -1 33 -1 64 0 68 0 5 16 0 34 -12 l32 -21 -2 -120z m-66 -180 c12 0 14 -8 9 -37 -11 -62 -17 -73 -35 -73 -15 0 -18 9 -18 61 -1 49 2 59 14 55 8 -3 22 -6 30 -6z m-327 -36 c0 -18 14 -39 48 -70 l47 -44 -33 0 c-41 0 -128 43 -143 72 -10 19 -8 25 15 45 37 32 66 31 66 -3z m220 -79 c0 -9 -44 -23 -54 -18 -4 3 -2 9 5 14 15 10 49 12 49 4z m110 -44 c0 -5 12 -23 26 -40 l26 -31 -50 0 c-82 0 -142 11 -142 27 0 21 61 53 103 53 20 0 37 -4 37 -9z m-337 -31 c8 0 8 -3 0 -11 -13 -13 -43 -5 -43 12 0 6 7 8 16 5 9 -3 21 -6 27 -6z m-24 -56 c35 -7 32 -24 -4 -24 -30 0 -55 10 -55 21 0 11 16 11 59 3z m212 -124 c10 -6 19 -21 19 -34 0 -33 33 -60 65 -52 27 7 35 26 10 26 -18 0 -19 14 -5 41 19 34 90 6 90 -36 0 -49 -125 -68 -208 -31 -37 17 -42 23 -42 51 0 17 3 35 7 38 10 10 42 8 64 -3z m594 -4 c67 -28 131 -179 119 -282 -10 -79 -34 -67 -34 17 0 21 -4 39 -10 39 -5 0 -10 -15 -10 -33 0 -33 -1 -33 -42 -31 -28 1 -43 6 -43 15 0 8 -19 46 -42 84 -47 77 -76 152 -69 172 12 31 78 41 131 19z m134 -391 c2 -3 0 -9 -5 -14 -5 -5 -22 0 -39 11 l-30 20 34 -6 c19 -3 37 -8 40 -11z m144 -353 c29 -37 73 -94 97 -127 38 -52 40 -57 14 -35 -45 38 -178 196 -209 249 -20 35 49 -27 98 -87z m-1217 17 c19 -38 45 -109 39 -109 -3 0 -20 32 -39 70 -19 39 -31 70 -26 70 5 0 17 -14 26 -31z m-199 -102 c18 -44 31 -82 29 -84 -11 -11 -40 16 -61 58 -14 26 -32 52 -41 57 -14 8 -14 14 -3 52 l13 43 16 -23 c8 -13 30 -60 47 -103z m27 70 c8 -23 20 -60 26 -83 5 -22 19 -49 30 -59 20 -18 20 -17 20 31 l1 49 34 -39 c28 -32 62 -103 52 -112 -1 -1 -28 -3 -60 -5 l-58 -4 -40 104 c-36 97 -51 180 -30 166 5 -3 16 -24 25 -48z m-93 -78 c11 -11 18 -24 14 -27 -4 -4 -11 1 -16 11 -6 9 -17 17 -24 17 -8 0 -15 5 -15 10 0 16 19 11 41 -11z m1802 -51 c-22 -77 -32 -91 -33 -45 0 37 26 97 42 97 4 0 0 -24 -9 -52z m-1805 -2 c35 -40 147 -234 139 -242 -3 -4 -175 75 -226 103 -3 2 6 44 30 136 5 20 14 37 18 37 5 0 22 -15 39 -34z m1737 -76 c8 -12 44 -140 39 -140 -1 0 -23 26 -48 57 -42 53 -44 59 -29 75 18 20 29 23 38 8z m-1485 -40 c0 -5 -12 -10 -26 -10 -24 0 -26 -3 -21 -29 4 -21 2 -31 -9 -35 -34 -13 -43 -6 -41 29 2 29 7 37 27 41 14 3 30 7 35 9 20 7 35 5 35 -5z m60 -75 c5 -14 17 -25 27 -25 15 -1 14 -4 -6 -20 -13 -11 -29 -20 -37 -20 -8 0 -14 -4 -14 -9 0 -6 16 -7 35 -4 33 5 35 4 35 -21 0 -34 -20 -42 -59 -22 -21 12 -28 21 -24 33 4 11 3 14 -6 9 -14 -9 -71 2 -71 15 0 4 25 16 55 24 30 9 55 19 55 22 0 3 -9 3 -20 0 -16 -4 -20 0 -20 19 0 34 37 33 50 -1z m219 -200 c0 -26 -2 -27 -9 -10 -5 11 -9 34 -9 50 0 26 2 27 9 10 5 -11 9 -33 9 -50z m301 8 c-1 -36 -3 -44 -10 -31 -9 14 -3 78 6 78 2 0 4 -21 4 -47z m1650 -35 c42 -64 47 -78 29 -78 -16 0 -69 56 -69 74 0 9 -8 16 -20 16 -20 0 -28 28 -13 43 17 17 36 2 73 -55z m-1640 -110 c0 -22 -5 -28 -21 -28 -19 0 -21 4 -15 31 3 17 6 39 6 48 1 30 30 -20 30 -51z m-115 -42 c31 -16 58 -23 75 -20 39 8 108 -13 121 -37 6 -11 24 -25 40 -31 22 -7 28 -15 24 -28 -4 -13 4 -23 30 -38 19 -12 35 -25 35 -30 0 -5 19 -12 41 -16 58 -9 209 -76 209 -93 0 -20 -60 -16 -105 7 -47 24 -45 24 -45 5 0 -22 -33 -18 -59 6 -14 13 -20 27 -16 40 7 22 -5 25 -24 7 -10 -11 -15 -9 -26 5 -12 17 -14 17 -48 -3 l-36 -21 -148 75 c-81 41 -163 88 -182 104 -31 26 -33 30 -21 53 25 47 62 51 135 15z m30 -197 c78 -42 151 -95 159 -114 3 -9 -19 -1 -57 20 -81 45 -298 201 -290 208 3 4 33 -13 67 -37 33 -24 88 -58 121 -77z m565 36 c-18 -26 -34 -44 -37 -41 -5 5 60 96 65 91 2 -2 -10 -24 -28 -50z m-542 -163 c41 -40 72 -76 69 -79 -9 -8 -123 86 -202 168 l-70 72 64 -44 c35 -24 98 -77 139 -117z m-238 -11 c-1 -60 -38 -81 -75 -41 -10 11 -22 17 -26 14 -15 -9 -10 8 7 27 21 24 94 24 94 0z m580 -13 c0 -23 -18 -41 -34 -35 -9 4 -16 16 -16 27 0 15 7 20 25 20 14 0 25 -6 25 -12z m140 -71 c0 -17 -5 -19 -32 -14 -18 3 -46 10 -61 16 -23 9 -26 14 -18 30 10 18 13 19 61 3 37 -12 50 -21 50 -35z m-200 -11 c0 -22 -17 -28 -40 -16 -29 16 -25 30 10 30 19 0 30 -5 30 -14z m-737 -43 c19 -9 27 -18 19 -21 -7 -2 -22 4 -33 14 -18 16 -23 16 -42 4 -20 -12 -21 -12 -8 3 17 21 24 21 64 0z m837 1 c47 -19 54 -44 11 -44 -47 0 -91 20 -91 41 0 24 25 25 80 3z m-394 -62 c16 -9 22 -7 32 9 12 18 14 18 37 3 22 -14 187 -43 250 -44 15 0 5 -15 -45 -65 -70 -71 -111 -95 -160 -95 -25 0 -41 11 -80 53 -27 28 -49 60 -50 70 0 10 -7 20 -16 24 -11 4 -14 13 -9 30 5 22 4 23 -16 13 -17 -9 -24 -8 -40 6 -10 9 -19 20 -19 25 0 8 86 -13 116 -29z m633 -64 c-37 -35 -83 -92 -104 -128 -21 -36 -50 -78 -64 -93 -17 -19 -25 -37 -23 -56 3 -23 -6 -37 -49 -75 -56 -50 -118 -90 -159 -101 -14 -3 6 12 44 35 80 48 90 59 152 170 87 158 130 217 195 265 34 25 64 45 67 45 4 0 -23 -28 -59 -62z m-258 -211 c-44 -89 -67 -126 -82 -130 -18 -5 -20 -2 -14 20 3 14 28 56 55 95 27 38 54 86 61 106 12 37 31 59 37 42 2 -5 -24 -65 -57 -133z m-601 83 c0 -19 19 -30 51 -30 10 0 19 -4 19 -10 0 -5 -25 -10 -56 -10 -54 0 -56 1 -50 23 3 12 6 33 6 46 0 20 2 21 15 11 8 -7 15 -20 15 -30z m760 -316 c5 -21 9 -68 9 -104 0 -52 -2 -60 -10 -41 -13 32 -29 16 -36 -37 -8 -57 2 -90 30 -94 20 -3 20 -5 -10 -21 -43 -23 -108 -31 -176 -23 -49 6 -54 9 -49 28 4 18 2 20 -16 16 -18 -5 -22 -1 -28 27 -10 54 5 92 68 176 61 81 120 131 143 123 7 -3 15 3 19 12 6 16 8 16 27 -3 11 -11 24 -38 29 -59z m141 -239 l-9 -40 -1 36 c-1 20 2 52 6 70 l8 34 3 -30 c2 -16 -1 -48 -7 -70z m-572 -6 c5 -27 13 -34 46 -45 l40 -12 -33 -1 c-54 -2 -72 14 -72 61 0 47 9 45 19 -3z m-50 -207 c17 -211 15 -302 -6 -318 -17 -13 -17 -13 0 -14 10 0 51 -15 92 -34 82 -38 122 -82 150 -167 28 -83 11 -76 -24 10 -40 96 -69 124 -123 119 -34 -3 -37 -1 -32 18 8 33 -19 36 -70 9 -50 -27 -62 -21 -46 21 11 27 10 27 -8 11 -18 -17 -18 -15 -6 45 14 68 43 360 45 442 1 87 16 13 28 -142z m359 97 c-22 -5 -54 -5 -75 0 -33 8 -28 9 37 9 65 0 70 -1 38 -9z m-280 -257 c4 -89 3 -162 -1 -162 -14 0 -16 24 -20 215 -5 228 10 192 21 -53z m352 179 c0 -5 -13 -80 -30 -166 -16 -86 -30 -181 -30 -212 0 -69 -14 -67 -56 10 -35 67 -54 62 -54 -15 0 -42 -3 -48 -20 -48 -36 0 -43 42 -30 175 6 66 17 149 23 185 12 63 13 65 47 71 56 10 150 10 150 0z m-526 -449 c12 -42 -1 -115 -25 -146 -30 -38 -39 -32 -39 24 0 38 4 50 15 50 29 0 14 18 -20 24 l-35 7 37 38 c21 21 42 37 48 36 5 -1 14 -16 19 -33z m579 12 c4 -22 -2 -28 -55 -55 -82 -41 -94 -31 -25 19 31 24 57 47 57 52 0 21 18 9 23 -16z m-926 -134 c-8 -68 -16 -92 -29 -84 -7 4 -8 31 -4 72 8 72 12 85 28 76 7 -4 8 -28 5 -64z m76 53 c8 -13 -13 -124 -28 -152 -13 -25 -14 -22 -14 44 -1 39 2 80 5 93 6 21 28 30 37 15z m165 -34 c4 -44 -13 -89 -33 -89 -18 0 -19 12 -4 80 12 58 32 63 37 9z m-132 -46 c-16 -52 -21 -30 -9 41 4 29 8 34 15 22 5 -10 3 -33 -6 -63z m57 20 c-9 -89 -22 -109 -22 -36 -1 64 5 93 19 93 5 0 6 -26 3 -57z m727 -302 c-6 -25 -18 -56 -25 -68 -13 -19 -18 -20 -44 -10 -36 13 -31 27 9 27 35 0 46 17 57 91 4 33 9 45 11 30 2 -13 -1 -44 -8 -70z m-109 -716 l-8 -110 -1 80 c-2 76 8 171 15 150 1 -6 -1 -59 -6 -120z m-592 -117 c1 -41 -7 -68 -20 -68 -11 0 -12 94 -2 130 l7 25 7 -25 c4 -14 7 -42 8 -62z m574 -67 c-21 -16 -49 -41 -63 -56 -30 -33 -71 -55 -102 -55 -18 0 -15 4 19 28 119 79 158 108 161 115 2 4 8 4 13 1 5 -3 -7 -18 -28 -33z m176 -111 l29 -15 -25 -39 c-19 -29 -27 -35 -34 -25 -6 11 -11 11 -20 2 -7 -7 -19 -8 -33 -3 -11 5 -40 14 -63 20 -28 7 -43 16 -43 26 0 10 6 14 15 10 10 -3 15 1 15 13 0 10 3 33 6 50 6 27 4 30 -11 25 -17 -7 -17 -6 0 19 l17 27 59 -48 c33 -26 72 -54 88 -62z m146 -54 c12 -15 51 -34 103 -51 45 -15 82 -31 82 -36 0 -5 -16 -15 -35 -23 -19 -8 -35 -22 -35 -30 0 -13 -14 -16 -78 -16 -68 0 -83 3 -112 25 -19 14 -42 25 -52 25 -49 0 8 93 72 119 34 13 32 14 55 -13z"/>
<path d="M3941 6334 c-1 -7 -12 -15 -26 -18 -26 -7 -35 -26 -12 -26 22 0 50 26 44 41 -3 8 -6 9 -6 3z"/>
<path d="M4155 6284 c-4 -16 -11 -46 -17 -68 -13 -54 -2 -57 22 -5 22 49 24 67 11 88 -8 12 -11 8 -16 -15z"/>
<path d="M3726 6244 c-28 -15 -59 -24 -72 -21 -15 3 -24 -1 -24 -9 0 -18 40 -44 68 -44 17 0 23 -4 18 -15 -6 -18 2 -45 15 -45 5 0 9 14 9 30 0 17 -4 30 -10 30 -16 0 -12 14 12 40 20 21 22 22 28 5 7 -21 14 -13 24 28 8 34 -3 34 -68 1z"/>
<path d="M3252 5650 c-37 -9 -49 -17 -38 -27 3 -4 25 3 49 15 45 22 42 25 -11 12z"/>
<path d="M3683 5629 c-11 -11 -42 -13 -143 -9 -43 2 -75 -2 -90 -11 -23 -13 -13 -14 100 -19 69 -3 131 -9 138 -13 7 -5 12 -3 12 5 0 7 3 23 6 36 7 23 -5 29 -23 11z"/>
<path d="M3500 5532 c0 -11 314 -86 334 -79 16 6 -61 43 -124 60 -62 17 -210 31 -210 19z"/>
<path d="M4779 5431 c12 -17 27 -31 32 -31 16 0 -9 38 -33 51 -21 11 -21 11 1 -20z"/>
<path d="M4910 5206 c0 -16 50 -79 57 -72 5 5 -44 86 -52 86 -3 0 -5 -6 -5 -14z"/>
<path d="M2946 5004 c-16 -63 -24 -110 -18 -116 5 -5 25 -11 44 -14 l36 -6 21 88 c11 49 24 99 27 110 5 18 2 21 -18 17 -15 -3 -29 2 -37 11 -8 9 -17 16 -20 16 -4 0 -20 -48 -35 -106z m62 -32 c3 -9 -3 -13 -19 -10 -12 1 -24 9 -27 16 -3 9 3 13 19 10 12 -1 24 -9 27 -16z m-22 -53 c3 -6 2 -15 -3 -20 -13 -13 -43 -1 -43 17 0 16 36 19 46 3z"/>
<path d="M2826 4969 c-8 -42 -8 -49 3 -49 14 0 25 60 13 72 -6 6 -12 -2 -16 -23z"/>
<path d="M4092 4869 c-39 -38 -40 -66 -8 -135 41 -88 139 -113 176 -44 10 18 8 19 -16 10 -29 -12 -95 2 -112 23 -6 6 -13 26 -17 42 -5 21 -4 26 3 16 8 -11 13 -8 27 13 17 25 15 56 -3 56 -5 0 -15 -12 -22 -27 -7 -17 -14 -23 -17 -15 -3 7 5 30 16 52 25 48 16 51 -27 9z"/>
<path d="M5185 4885 c22 -8 51 -14 64 -14 20 -1 21 1 11 14 -8 10 -29 15 -64 14 l-51 -1 40 -13z"/>
<path d="M2803 4870 c-7 -11 -13 -24 -13 -29 0 -5 -16 -26 -35 -47 -19 -20 -36 -46 -36 -58 -4 -79 -3 -134 3 -128 4 4 14 29 22 55 14 46 14 47 -7 47 -17 0 -19 2 -8 9 21 14 51 -5 52 -32 0 -12 9 14 20 58 11 44 19 95 17 113 -3 31 -4 31 -15 12z"/>
<path d="M4200 4856 c0 -8 55 -66 62 -66 15 0 8 30 -12 50 -17 17 -50 28 -50 16z"/>
<path d="M4176 4811 c-3 -4 3 -16 14 -26 26 -23 52 -6 30 20 -14 17 -36 20 -44 6z"/>
<path d="M5490 4755 c14 -8 36 -14 50 -14 24 1 24 1 -5 14 -16 8 -39 14 -50 14 -18 0 -17 -1 5 -14z"/>
<path d="M4183 4743 c-29 -5 -30 -20 -2 -28 29 -9 69 2 69 20 0 15 -20 17 -67 8z"/>
<path d="M2803 4633 c-26 -13 -33 -23 -33 -45 0 -37 -16 -68 -35 -68 -10 0 -15 11 -15 35 0 29 -4 35 -21 35 -17 0 -19 -3 -10 -14 9 -11 8 -17 -6 -28 -10 -7 -19 -26 -20 -43 0 -16 -4 -48 -8 -70 -5 -32 -3 -44 9 -54 19 -16 21 -31 3 -31 -7 0 -22 -7 -33 -15 -18 -14 -17 -14 9 -5 54 19 122 11 225 -26 96 -34 100 -37 106 -70 8 -42 34 -56 94 -53 34 2 64 -5 107 -25 59 -28 172 -59 249 -70 66 -9 27 10 -97 48 -123 37 -183 61 -194 79 -4 7 0 8 12 3 120 -46 413 -136 459 -142 74 -8 68 5 -13 35 -33 12 -63 26 -66 31 -4 6 -17 10 -30 10 -34 0 -102 29 -109 46 -3 8 -13 14 -23 14 -10 0 -56 17 -103 36 -47 20 -121 52 -165 70 l-80 34 2 39 c2 38 0 40 -47 60 -27 12 -59 21 -72 21 -15 0 -2 -9 35 -24 33 -14 61 -26 63 -29 2 -2 -3 -20 -11 -40 -11 -26 -19 -35 -31 -30 -12 5 -13 7 -2 14 24 15 18 18 -229 116 -8 3 -13 -4 -13 -20 0 -14 -7 -28 -16 -31 -23 -9 -24 -8 -24 12 0 31 36 55 90 60 41 4 48 7 39 18 -9 11 -4 25 20 62 46 72 42 84 -16 55z m267 -383 c23 -14 -1 -44 -38 -48 -23 -2 -32 2 -37 17 -3 12 -3 25 0 31 8 13 55 13 75 0z"/>
<path d="M2055 4490 c10 -11 24 -20 31 -20 7 0 10 8 7 20 -4 13 -14 20 -31 20 -24 0 -25 0 -7 -20z"/>
<path d="M1918 4476 c-56 -33 -56 -36 0 -36 37 0 52 4 52 14 0 9 9 12 28 8 24 -4 25 -3 12 11 -25 25 -53 26 -92 3z"/>
<path d="M2155 4491 c-3 -6 2 -11 14 -11 11 0 28 -14 41 -35 12 -19 26 -35 31 -35 16 0 10 29 -8 39 -27 16 -13 13 45 -9 51 -20 72 -19 72 1 0 5 -11 9 -25 9 -14 0 -42 8 -63 19 -49 25 -98 35 -107 22z"/>
<path d="M1701 4459 c-24 -15 -46 -31 -50 -35 -9 -11 126 4 149 16 32 17 24 33 -15 28 -20 -2 -35 1 -37 7 -2 7 -21 0 -47 -16z"/>
<path d="M2136 4451 c5 -4 23 -11 39 -15 28 -6 29 -5 11 9 -21 16 -67 22 -50 6z"/>
<path d="M2414 4386 c-3 -15 -5 -28 -3 -30 2 -1 21 -12 42 -24 l39 -22 -23 37 c-38 64 -47 70 -55 39z"/>
<path d="M1375 4258 c-121 -122 -136 -141 -179 -228 -46 -96 -80 -212 -89 -303 -4 -42 -2 -47 12 -42 9 4 59 19 111 33 91 26 105 27 330 27 343 -1 699 -43 930 -110 165 -47 208 -69 226 -112 25 -60 2 -63 -105 -17 -29 13 -70 24 -90 23 -36 0 -35 0 19 -20 30 -11 76 -29 101 -41 l47 -20 -30 -67 c-17 -36 -43 -78 -58 -92 -20 -19 -30 -40 -36 -75 -9 -62 1 -258 22 -427 12 -96 15 -177 11 -297 -4 -143 -4 -158 7 -115 11 46 12 41 10 -75 l-3 -125 13 82 c8 45 16 88 19 95 8 19 8 -311 1 -366 -6 -42 -9 -46 -28 -40 -55 18 -86 21 -100 10 -24 -17 -4 -37 42 -43 66 -9 71 -20 61 -153 -8 -116 -25 -200 -39 -200 -5 0 -55 11 -112 24 -294 69 -634 122 -933 145 -99 8 -564 30 -652 31 -25 0 -14 50 12 62 39 17 44 57 11 83 l-26 21 15 89 c26 147 33 162 34 70 0 -44 -4 -99 -8 -122 -10 -53 -5 -55 16 -5 9 22 18 80 21 144 l5 106 -25 4 -24 3 37 330 c96 843 105 955 75 955 -8 0 -14 -8 -14 -17 1 -10 -18 -45 -40 -79 -55 -81 -74 -159 -75 -304 0 -87 5 -135 21 -197 21 -78 28 -144 17 -155 -3 -3 -19 8 -36 24 l-30 30 -32 -48 -31 -49 -9 65 c-4 36 -13 83 -19 105 -10 33 -13 36 -16 16 -2 -13 1 -51 7 -85 13 -76 14 -176 2 -176 -5 0 -12 18 -16 40 -4 22 -11 42 -16 46 -13 8 0 -74 18 -109 8 -15 31 -40 53 -55 33 -24 40 -35 50 -87 7 -33 14 -134 17 -225 4 -133 1 -194 -16 -315 -12 -83 -21 -158 -21 -167 0 -8 13 -21 29 -28 55 -22 58 -33 66 -203 7 -158 7 -159 -13 -148 -11 6 -23 24 -27 41 -4 16 -11 30 -16 30 -16 0 -9 -44 11 -70 11 -14 20 -32 20 -42 0 -11 6 -15 19 -11 19 5 19 3 5 -43 -21 -69 -19 -110 6 -117 28 -7 66 26 95 84 22 42 29 49 55 49 17 0 33 -6 35 -13 7 -18 -20 -165 -38 -208 -13 -32 -18 -35 -44 -32 -22 4 -36 16 -56 49 -39 65 -117 74 -109 12 2 -14 -4 -55 -12 -92 -9 -37 -16 -85 -16 -108 0 -34 3 -39 17 -33 10 3 45 9 79 12 61 6 62 6 79 47 l18 41 7 -53 c10 -66 49 -125 107 -159 42 -24 58 -41 28 -30 -8 4 -17 2 -20 -2 -2 -5 8 -11 23 -14 22 -5 50 10 157 82 72 49 146 96 165 106 34 17 34 16 -12 -27 -45 -42 -70 -80 -30 -46 39 34 46 33 39 -3 l-7 -34 22 38 c23 39 52 53 86 43 16 -6 18 -13 14 -56 -2 -27 -2 -61 2 -75 5 -21 10 -24 25 -16 10 6 21 8 24 5 14 -15 46 9 52 39 18 89 25 105 43 100 10 -2 44 10 76 26 50 27 60 29 72 17 8 -8 23 -17 34 -21 10 -3 38 -42 63 -88 24 -45 65 -120 90 -167 25 -47 51 -107 58 -133 11 -47 11 -49 -17 -78 -15 -16 -23 -29 -17 -29 6 0 25 16 42 35 l31 35 -20 50 c-11 28 -61 130 -111 228 -68 132 -96 178 -112 182 -42 11 -34 146 19 327 17 57 30 65 59 33 22 -24 76 -26 155 -5 30 8 76 15 102 15 28 0 48 5 51 13 4 13 -56 25 -468 97 -278 48 -401 60 -609 60 -139 0 -160 2 -172 18 -18 23 -18 37 1 22 36 -30 33 1 -10 89 -25 52 -44 96 -41 98 13 13 49 -30 77 -94 34 -78 52 -102 64 -82 4 6 2 15 -5 19 -9 5 -11 20 -7 45 5 31 3 36 -10 31 -13 -5 -14 -4 -3 9 7 8 25 15 41 15 15 0 39 4 52 9 21 8 26 6 36 -15 15 -35 31 -21 31 27 0 33 3 40 18 37 12 -2 23 -25 37 -80 26 -102 48 -125 43 -48 l-3 55 29 -3 c16 -2 26 0 22 6 -8 13 27 10 36 -3 4 -5 8 -36 8 -67 0 -32 4 -58 10 -58 13 0 19 31 22 105 3 52 6 60 23 60 15 0 20 -7 21 -25 0 -14 3 -31 8 -38 4 -6 4 -16 1 -22 -3 -5 3 -10 14 -10 11 0 23 4 26 10 3 5 28 10 55 10 27 0 55 6 62 13 7 6 30 12 51 13 31 0 38 -3 43 -23 4 -13 3 -40 -1 -61 l-7 -37 27 25 c14 14 32 44 38 68 10 39 14 43 37 38 14 -3 55 -9 93 -12 60 -6 67 -9 67 -29 0 -12 -11 -44 -25 -70 -13 -27 -23 -50 -21 -52 9 -9 60 46 82 88 21 43 27 48 43 39 11 -5 70 -14 132 -20 61 -5 114 -12 116 -14 3 -3 -14 -50 -37 -106 -23 -56 -40 -104 -38 -106 2 -2 18 23 36 56 45 81 88 116 161 131 l59 11 26 167 c14 91 32 243 41 338 13 150 38 309 49 321 8 8 26 -38 41 -102 9 -36 26 -168 39 -293 14 -126 30 -249 36 -275 12 -46 12 -46 62 -53 68 -10 74 -2 60 84 -7 38 -12 88 -12 110 0 40 -1 41 -32 41 -18 0 -40 -4 -48 -10 -18 -11 -30 5 -30 41 0 24 4 26 47 28 51 1 65 8 44 20 -7 5 -11 13 -7 19 4 6 -16 17 -49 27 -47 13 -55 19 -55 39 0 29 13 35 57 28 l32 -4 3 78 3 79 23 -110 c28 -132 27 -129 41 -235 11 -78 25 -161 37 -218 7 -32 49 -29 84 6 36 37 45 91 31 202 -6 46 -10 107 -10 135 2 47 2 48 9 15 6 -29 8 -25 9 30 1 45 -4 73 -15 88 -18 26 -37 121 -35 179 1 28 -3 44 -13 50 -13 7 -13 14 1 58 27 90 35 105 58 111 l23 6 -24 43 -25 43 21 35 c19 31 20 40 9 82 -7 28 -10 79 -6 128 4 57 1 91 -8 114 -16 37 -35 44 -35 13 0 -18 -3 -19 -20 -10 -17 9 -20 21 -20 87 0 59 -5 83 -21 109 -11 19 -25 34 -30 34 -6 0 -20 -21 -31 -47 -32 -71 -34 -187 -8 -358 24 -153 49 -347 50 -382 l0 -22 -34 23 c-21 14 -56 25 -92 29 -31 3 -60 9 -65 14 -4 4 -14 80 -23 168 -9 88 -24 193 -33 233 -15 65 -18 72 -30 56 -12 -16 -13 -15 -13 12 -1 16 -7 43 -14 59 -13 30 -13 30 -24 -36 -7 -36 -12 -82 -12 -102 0 -20 -4 -38 -9 -41 -15 -10 -25 319 -12 414 25 192 50 217 193 201 46 -6 99 -15 118 -21 52 -15 59 -12 20 10 -20 11 -55 19 -81 20 -26 0 -51 6 -57 13 -5 6 -13 68 -17 137 -8 139 -36 265 -84 381 -31 75 -131 218 -191 274 -18 17 -3 -7 33 -52 36 -44 76 -101 90 -125 29 -49 80 -179 73 -186 -3 -2 -18 5 -34 17 -17 12 -40 21 -51 21 -12 0 -34 9 -49 19 -32 22 -102 35 -102 19 0 -6 8 -51 17 -100 13 -69 15 -95 6 -118 -9 -25 -8 -32 5 -41 13 -8 9 -9 -17 -5 -99 17 -144 19 -136 6 5 -9 2 -11 -11 -6 -11 3 -50 10 -88 16 -75 12 -106 24 -106 42 0 9 -3 9 -12 0 -9 -9 -15 -9 -27 2 -40 33 -87 39 -391 46 -168 4 -306 8 -307 9 -1 0 5 13 13 29 7 15 14 45 14 67 0 22 4 55 9 73 9 30 8 32 -14 26 -13 -3 -29 -3 -35 1 -19 12 9 25 54 25 32 0 37 -3 31 -17 -10 -22 -21 -73 -33 -140 l-9 -53 148 0 c165 0 160 -2 173 73 6 33 26 53 26 26 0 -6 7 -26 16 -44 21 -45 73 -69 131 -61 60 8 82 22 99 61 33 79 11 118 -88 156 -38 14 -58 27 -58 38 0 9 14 63 30 121 17 58 30 108 30 112 0 17 -21 7 -30 -14 -6 -16 -9 -18 -9 -6 -1 9 -4 23 -7 32 -4 12 0 16 15 16 12 0 21 4 21 8 0 17 -131 32 -273 32 l-145 0 -47 -81 c-96 -167 -134 -219 -160 -219 -13 0 -36 -5 -51 -10 -35 -14 -41 -7 -14 20 11 11 18 25 15 30 -3 5 3 14 14 19 10 6 22 22 25 37 4 14 48 68 98 120 50 52 87 94 83 94 -4 0 -67 -60 -140 -132z m206 72 c-37 -34 -41 -36 -41 -15 0 16 60 58 69 49 3 -2 -10 -18 -28 -34z m302 30 l29 0 -20 -32 c-11 -18 -26 -61 -33 -96 l-12 -63 -36 3 c-37 3 -37 3 -40 -47 -1 -17 -9 -20 -51 -22 -28 -2 -50 1 -50 5 0 4 21 23 46 41 26 19 53 45 61 58 16 24 40 33 27 11 -5 -10 -4 -10 7 0 11 10 11 16 1 32 -6 11 -12 26 -12 34 0 8 -14 28 -30 45 l-30 30 37 4 c21 2 47 3 58 1 11 -2 33 -4 48 -4z m-353 -72 c0 -2 -7 -25 -15 -52 -19 -63 -19 -96 0 -96 8 0 15 -4 15 -8 0 -19 -27 -32 -67 -32 l-43 0 47 95 c26 52 51 95 55 95 5 0 8 -1 8 -2z m408 -60 c-9 -42 -24 -61 -40 -52 -14 9 -9 22 12 27 15 4 20 14 20 36 0 17 4 31 9 31 5 0 5 -18 -1 -42z m-543 -200 c-4 -24 -12 -46 -17 -49 -13 -8 -100 -20 -105 -15 -3 2 2 17 11 33 12 21 15 24 16 9 0 -16 2 -17 17 -5 9 8 26 14 37 14 15 0 22 7 24 28 2 15 8 27 14 27 6 0 7 -16 3 -42z m637 -35 c22 -20 24 -66 2 -87 -25 -26 -32 -19 -23 21 10 48 5 53 -15 15 -9 -17 -22 -34 -28 -38 -7 -5 -5 4 5 19 9 14 17 40 17 57 0 34 14 38 42 13z m-94 -20 c5 -17 -26 -29 -40 -15 -6 6 -7 15 -3 22 9 14 37 9 43 -7z m-238 -85 c0 -12 -13 -9 -34 7 -12 9 -16 20 -12 32 7 16 9 16 26 -7 11 -14 20 -28 20 -32z m-430 6 c0 -24 1 -24 22 -10 34 24 60 21 56 -6 -3 -20 -10 -23 -56 -26 l-53 -3 6 -31 c5 -21 4 -28 -4 -24 -14 9 -14 68 1 101 14 32 28 32 28 -1z m-66 -52 c-6 -57 -8 -60 -37 -66 -38 -8 -43 -2 -29 28 19 41 63 108 68 103 3 -3 2 -32 -2 -65z m516 -54 c0 -5 -21 -8 -46 -8 -25 0 -43 4 -40 9 7 11 86 9 86 -1z m-720 -587 c-14 -116 -30 -139 -30 -43 0 69 24 172 37 159 3 -4 0 -56 -7 -116z m1610 -93 c0 -70 -3 -98 -10 -88 -15 24 -10 190 6 190 2 0 4 -46 4 -102z m81 -410 c12 -30 19 -71 19 -115 0 -72 10 -100 30 -88 8 5 11 3 8 -6 -3 -8 -16 -14 -29 -14 -23 0 -25 5 -41 105 -16 97 -23 215 -11 180 2 -8 13 -36 24 -62z m433 15 c4 -9 0 -23 -9 -32 -13 -14 -15 -12 -15 17 0 34 14 43 24 15z m-1520 -1383 c14 -5 26 -15 26 -22 0 -7 17 -27 37 -45 43 -35 39 -51 -8 -34 -18 6 -47 11 -65 11 -32 0 -34 2 -34 34 0 32 8 66 15 66 2 0 15 -4 29 -10z m-134 -35 c0 -24 -5 -35 -15 -35 -15 0 -22 50 -8 63 15 15 23 5 23 -28z m40 -89 c0 -19 4 -23 20 -19 18 5 20 0 20 -34 0 -49 -31 -71 -77 -56 -25 9 -28 14 -25 49 4 45 26 84 47 84 9 0 15 -10 15 -24z m220 -38 c0 -18 3 -43 6 -54 4 -16 0 -23 -16 -27 -20 -5 -22 -3 -16 25 3 17 6 43 6 59 0 16 5 29 10 29 6 0 10 -15 10 -32z m-30 -178 c13 -9 12 -13 -9 -30 -27 -24 -41 -25 -41 -6 0 8 -3 21 -6 30 -5 12 0 16 17 16 13 0 31 -5 39 -10z"/>
<path d="M2154 4041 c4 -6 18 -11 32 -11 26 0 31 -9 12 -28 -19 -19 -11 -128 13 -154 11 -13 30 -36 43 -52 15 -20 28 -27 39 -23 15 5 17 24 17 131 0 69 -3 127 -8 130 -4 2 -41 8 -81 12 -55 5 -72 4 -67 -5z"/>
<path d="M2348 3903 c3 -101 6 -120 23 -134 18 -16 116 -45 124 -38 1 2 0 60 -4 129 l-6 124 -40 12 c-22 6 -54 14 -70 18 l-30 7 3 -118z"/>
<path d="M1340 3659 c-92 -13 -215 -47 -172 -48 30 -1 32 -3 32 -40 l0 -39 193 5 c185 5 276 -1 674 -43 l61 -7 13 44 c18 61 25 70 55 58 31 -11 74 -12 74 -1 0 8 -366 57 -540 72 -128 11 -302 11 -390 -1z m775 -70 c11 -17 -1 -21 -34 -14 -17 4 -29 11 -25 16 7 12 51 11 59 -2z"/>
<path d="M1305 3509 c-40 -11 -93 -67 -101 -106 -7 -37 -14 -34 176 -59 132 -17 632 -31 693 -20 28 5 38 13 46 37 12 36 7 49 -19 49 -10 0 -51 16 -91 35 -74 35 -75 35 -276 44 -174 9 -207 8 -241 -5 -38 -15 -41 -15 -94 10 -30 14 -57 26 -59 25 -2 0 -18 -5 -34 -10z"/>
<path d="M1380 3274 c-14 -2 -67 -14 -118 -25 l-93 -21 3 -41 c3 -41 4 -42 53 -54 30 -6 148 -11 292 -12 175 -1 257 -5 297 -15 53 -14 113 -19 224 -17 l53 1 -3 53 c-3 48 -6 53 -38 70 -30 15 -51 17 -145 11 -108 -6 -112 -6 -165 21 -51 26 -65 28 -195 31 -77 1 -151 1 -165 -2z"/>
<path d="M1400 3033 c0 -5 -11 -90 -25 -189 -49 -348 -66 -544 -47 -544 4 0 50 -7 102 -15 103 -16 198 -19 216 -7 18 11 62 296 83 532 10 118 18 216 17 216 -7 8 -346 14 -346 7z m38 -190 c-3 -43 -1 -48 25 -61 47 -23 132 -27 161 -8 31 20 36 20 36 1 0 -8 -9 -19 -19 -25 -23 -12 -180 -13 -199 -1 -16 10 -27 80 -18 115 10 41 17 30 14 -21z m160 -249 c25 -17 29 -75 11 -154 -18 -81 -84 -123 -133 -87 -15 11 -17 19 -9 43 9 28 11 29 66 26 37 -3 57 0 57 7 0 6 -4 11 -10 11 -5 0 -7 7 -3 16 5 14 1 16 -23 11 -62 -12 -68 -12 -71 4 -3 11 5 15 33 16 40 1 74 23 36 23 -17 0 -22 6 -22 25 0 24 -1 24 -18 8 -9 -10 -28 -25 -41 -33 -17 -12 -24 -27 -28 -65 -7 -76 -9 -79 -38 -58 -20 15 -24 27 -24 63 -1 54 28 121 60 144 31 21 127 22 157 0z"/>
<path d="M754 2968 c3 -18 11 -37 18 -43 8 -7 9 -5 4 8 -3 10 -6 30 -6 43 0 13 -5 24 -11 24 -8 0 -9 -11 -5 -32z"/>
<path d="M3741 2682 c-1 -50 4 -83 16 -105 14 -26 18 -29 21 -13 2 10 -1 23 -7 29 -14 14 -14 30 -1 22 6 -4 10 15 10 50 0 35 -4 54 -10 50 -6 -3 -14 4 -19 17 -7 17 -10 5 -10 -50z"/>
<path d="M1050 2717 c0 -13 9 -32 20 -42 11 -10 20 -23 20 -29 0 -6 -5 -3 -11 7 -18 30 -29 8 -29 -56 0 -40 6 -70 16 -85 14 -21 14 -22 -8 -19 -22 2 -23 -2 -30 -85 -3 -48 -9 -91 -12 -97 -7 -11 59 -35 78 -28 9 4 15 38 20 114 4 59 13 138 20 175 11 58 11 69 -2 82 -14 14 -14 16 1 22 11 4 17 17 17 35 0 30 -17 38 -37 18 -8 -8 -17 -8 -31 0 -29 15 -32 14 -32 -12z"/>
<path d="M2583 2265 c0 -27 2 -38 4 -22 2 15 2 37 0 50 -2 12 -4 0 -4 -28z"/>
<path d="M1485 2070 l-30 -8 29 -1 c19 -1 42 -14 68 -41 22 -22 42 -40 44 -40 10 0 3 77 -8 88 -13 13 -56 14 -103 2z"/>
<path d="M1320 2030 c0 -22 4 -40 8 -40 4 0 26 18 47 40 l39 40 -47 0 -47 0 0 -40z"/>
<path d="M1029 2033 c-33 -8 -39 -98 -11 -133 l19 -23 17 24 c17 24 17 24 11 -23 -5 -30 -4 -48 3 -48 16 0 23 29 29 116 6 79 5 81 -18 87 -13 4 -26 6 -29 6 -3 -1 -12 -3 -21 -6z"/>
<path d="M1414 2010 c-22 -9 -64 -56 -64 -71 0 -5 11 -9 25 -9 35 0 30 -29 -7 -43 -24 -8 -23 -28 3 -61 28 -35 66 -35 75 1 l7 26 19 -26 c11 -15 26 -27 33 -27 22 0 45 42 45 82 0 21 4 38 9 38 16 0 -7 64 -30 83 -26 21 -49 22 -49 2 0 -8 -4 -15 -10 -15 -5 0 -7 7 -4 15 7 17 -17 19 -52 5z"/>
<path d="M2231 1947 c-41 -14 -53 -37 -19 -37 41 0 60 -25 72 -91 8 -46 -10 -64 -56 -54 -18 4 -39 12 -45 17 -18 15 -16 3 7 -41 20 -41 63 -81 85 -81 7 0 26 33 42 73 22 56 29 66 31 47 2 -14 -6 -46 -17 -70 -11 -25 -16 -49 -12 -53 5 -5 24 -2 43 6 26 11 39 26 52 57 41 102 27 183 -35 212 -49 23 -109 29 -148 15z"/>
<path d="M4165 1834 c0 -92 12 -131 34 -108 11 11 45 174 38 181 -3 2 -20 8 -39 12 l-33 8 0 -93z"/>
<path d="M1550 1820 c-7 -16 -18 -35 -26 -41 -22 -18 -16 -29 16 -29 23 0 30 5 30 19 0 10 3 33 6 50 8 40 -9 41 -26 1z"/>
<path d="M1306 1818 c-9 -36 -8 -38 24 -38 34 0 39 18 12 43 -24 22 -28 21 -36 -5z"/>
<path d="M3160 1833 c0 -12 38 -48 45 -41 3 2 -6 15 -20 28 -14 13 -25 19 -25 13z"/>
<path d="M3205 1660 c4 -47 12 -89 17 -95 7 -7 8 17 4 75 -4 47 -12 89 -17 95 -8 7 -9 -15 -4 -75z"/>
<path d="M2816 1624 c-3 -9 -6 -63 -6 -120 0 -94 -7 -122 -25 -94 -3 6 -13 10 -21 10 -8 0 -29 10 -47 22 -18 13 -34 24 -36 25 -2 1 2 10 10 19 20 25 -63 -23 -107 -61 l-35 -30 -6 -295 c-6 -292 -6 -295 -30 -327 -35 -46 -28 -74 24 -93 53 -19 59 -26 43 -45 -7 -9 -10 -18 -8 -21 3 -3 47 -8 97 -11 76 -5 91 -4 91 9 0 8 10 24 23 36 22 21 24 21 102 5 96 -20 135 -13 135 21 0 35 -19 49 -89 71 -34 10 -59 21 -56 23 3 3 26 13 52 21 54 19 73 42 57 69 -15 23 -75 27 -132 8 -25 -9 -49 -16 -54 -16 -9 0 48 165 68 198 15 23 57 30 83 13 12 -8 13 -18 3 -62 -14 -58 -5 -72 50 -84 36 -8 46 -1 54 39 8 48 40 96 63 96 11 0 38 21 60 48 42 48 56 78 23 49 -28 -25 -34 -21 -18 11 12 23 20 28 43 24 23 -3 36 -18 72 -83 24 -43 47 -79 51 -79 4 0 -14 40 -39 90 -41 80 -49 90 -73 90 -22 0 -28 5 -28 23 0 35 21 100 41 128 10 15 23 39 29 55 l11 29 -27 -33 -26 -33 -23 21 c-16 15 -21 29 -17 48 4 24 3 25 -11 12 -8 -8 -20 -32 -26 -54 -8 -31 -7 -43 6 -63 30 -46 17 -153 -18 -153 -15 0 -134 114 -133 128 1 8 -12 12 -37 12 -38 0 -39 1 -39 35 0 33 2 35 35 35 63 0 57 51 -8 64 l-32 7 28 15 c15 8 27 19 27 24 0 6 -12 11 -27 12 -16 1 -36 2 -46 2 -17 1 -46 38 -47 59 0 5 22 6 50 2 53 -7 88 3 54 16 -10 4 -30 8 -44 8 -14 1 -43 10 -65 21 -47 24 -42 23 -49 4z m-126 -189 c11 -14 10 -14 -13 -6 -20 8 -28 6 -43 -10 -18 -21 -34 -25 -34 -9 0 10 48 39 66 40 6 0 17 -7 24 -15z m110 -66 c0 -5 -19 -9 -42 -9 -34 1 -39 3 -25 11 9 5 17 17 17 25 0 12 4 12 25 -2 14 -9 25 -20 25 -25z m13 -109 c15 -94 2 -266 -24 -345 l-24 -70 -69 2 c-37 1 -72 5 -76 10 -9 10 22 395 37 446 4 16 14 18 76 15 l72 -3 8 -55z m117 -416 c0 -5 -64 -34 -76 -34 -4 0 1 9 11 20 16 18 65 29 65 14z"/>
<path d="M2742 1215 c-2 -45 -2 -46 25 -43 25 3 28 7 28 43 0 35 -3 40 -25 43 -23 3 -25 -1 -28 -43z"/>
<path d="M3220 1529 c0 -8 -3 -24 -6 -36 -7 -26 4 -29 29 -10 15 11 14 14 -3 36 -12 14 -20 18 -20 10z"/>
<path d="M3150 923 c0 -98 15 -198 35 -247 9 -21 18 -36 20 -34 2 2 0 33 -5 68 -5 36 -12 116 -16 178 -5 84 -10 112 -20 112 -11 0 -14 -19 -14 -77z"/>
<path d="M1365 760 c-58 -58 -58 -75 0 -21 51 47 70 71 58 71 -5 0 -31 -22 -58 -50z"/>
<path d="M6747 803 c-3 -5 -13 -57 -22 -118 -9 -60 -25 -153 -34 -205 -17 -94 -18 -95 -25 -50 -10 65 -26 120 -34 120 -4 0 -16 -36 -26 -80 -21 -88 -27 -87 -46 7 -13 67 -24 73 -35 20 -19 -95 -25 -107 -50 -107 -16 0 -25 -6 -25 -16 0 -11 8 -14 33 -12 26 2 34 9 42 36 9 33 25 44 25 17 0 -27 22 -115 29 -115 3 0 17 39 31 88 l24 87 15 -88 c9 -51 19 -86 25 -84 11 4 37 125 56 262 12 92 19 129 25 124 2 -2 15 -103 29 -224 15 -121 30 -247 34 -279 9 -74 26 -82 40 -19 6 26 21 93 33 148 19 88 23 97 31 73 14 -40 25 -35 34 15 4 23 8 38 10 32 1 -5 5 -22 8 -38 6 -25 10 -27 51 -27 25 0 45 5 45 10 0 6 -15 10 -34 10 -33 0 -35 2 -45 50 -6 28 -11 60 -11 70 0 11 -7 20 -15 20 -9 0 -15 -9 -15 -22 0 -13 -5 -30 -10 -38 -7 -12 -11 -10 -18 10 -8 19 -11 21 -16 10 -10 -28 -44 -175 -51 -223 -10 -68 -22 -47 -29 53 -3 47 -13 128 -20 180 -8 52 -18 128 -22 169 -4 41 -8 83 -9 95 -1 12 -3 27 -4 34 -1 13 -17 16 -24 5z"/>
<path d="M755 776 c53 -13 69 -11 45 4 -8 6 -33 9 -55 9 l-40 -1 50 -12z"/>
<path d="M870 760 c0 -5 15 -10 33 -10 24 0 28 3 17 10 -20 13 -50 13 -50 0z"/>
<path d="M700 727 c3 -3 30 -15 60 -27 37 -15 121 -29 267 -46 196 -23 215 -23 237 -9 40 26 40 47 1 24 -34 -20 -37 -20 -182 -4 -150 17 -332 47 -368 61 -11 4 -18 5 -15 1z"/>
<path d="M3269 558 c-35 -51 -77 -107 -93 -125 -41 -48 -17 -40 31 10 42 44 89 109 117 165 32 63 10 42 -55 -50z"/>
<path d="M2545 597 c-13 -31 25 -60 87 -64 52 -4 90 8 74 24 -4 4 -38 8 -74 8 -63 0 -67 1 -73 25 -5 22 -7 23 -14 7z"/>
<path d="M2730 545 c-17 -20 -15 -21 51 -28 40 -5 61 -3 75 7 18 14 18 15 -9 25 -41 16 -102 14 -117 -4z"/>
<path d="M3661 544 c-77 -16 -148 -49 -162 -76 -6 -11 -7 -18 -2 -16 4 2 35 17 68 33 55 28 69 30 167 30 60 0 108 1 108 2 0 1 -10 8 -22 14 -40 22 -92 26 -157 13z"/>
<path d="M1202 518 c-25 -28 -52 -77 -52 -97 0 -21 13 -5 50 62 35 62 35 69 2 35z"/>
<path d="M2901 531 c-21 -14 22 -32 89 -38 77 -7 87 11 18 32 -58 17 -87 19 -107 6z"/>
<path d="M3072 493 c3 -19 47 -30 76 -18 22 8 4 21 -41 29 -34 6 -38 5 -35 -11z"/>
<path d="M1345 281 c-37 -8 237 -29 455 -36 172 -4 145 1 -140 30 -160 15 -262 18 -315 6z"/>
</g>
</svg>