<?xml version="1.0" encoding="UTF-8" standalone="no"?>
<svg
   xmlns:dc="http://purl.org/dc/elements/1.1/"
   xmlns:cc="http://creativecommons.org/ns#"
   xmlns:rdf="http://www.w3.org/1999/02/22-rdf-syntax-ns#"
   xmlns:svg="http://www.w3.org/2000/svg"
   xmlns="http://www.w3.org/2000/svg"
   xmlns:sodipodi="http://sodipodi.sourceforge.net/DTD/sodipodi-0.dtd"
   xmlns:inkscape="http://www.inkscape.org/namespaces/inkscape"
   width="24.857845mm"
   height="16.000343mm"
   viewBox="0 0 24.857845 16.000343"
   version="1.1"
   id="svg2062"
   inkscape:version="1.0.1 (1.0.1+r73)"
   sodipodi:docname="spam_mail.svg">
  <defs
     id="defs2056" />
  <sodipodi:namedview
     id="base"
     pagecolor="#ffffff"
     bordercolor="#666666"
     borderopacity="1.0"
     inkscape:pageopacity="0.0"
     inkscape:pageshadow="2"
     inkscape:zoom="0.35"
     inkscape:cx="-178.73883"
     inkscape:cy="367.37973"
     inkscape:document-units="mm"
     inkscape:current-layer="layer1"
     inkscape:document-rotation="0"
     showgrid="false"
     fit-margin-top="0"
     fit-margin-left="0"
     fit-margin-right="0"
     fit-margin-bottom="0"
     inkscape:window-width="1427"
     inkscape:window-height="1016"
     inkscape:window-x="50"
     inkscape:window-y="27"
     inkscape:window-maximized="0" />
  <metadata
     id="metadata2059">
    <rdf:RDF>
      <cc:Work
         rdf:about="">
        <dc:format>image/svg+xml</dc:format>
        <dc:type
           rdf:resource="http://purl.org/dc/dcmitype/StillImage" />
        <dc:title></dc:title>
      </cc:Work>
    </rdf:RDF>
  </metadata>
  <g
     inkscape:label="Layer 1"
     inkscape:groupmode="layer"
     id="layer1"
     transform="translate(-153.12465,-50.964114)">
    <g
       id="g3075"
       transform="matrix(0.74129749,0,0,0.74129749,89.443523,-41.266111)">
      <g
         id="g3112">
        <path
           id="rect2555-5-6"
           style="font-variation-settings:normal;vector-effect:none;fill:#ffaaaa;fill-opacity:1;stroke:none;stroke-width:0;stroke-linecap:square;stroke-linejoin:miter;stroke-miterlimit:4;stroke-dasharray:none;stroke-dashoffset:0;stroke-opacity:1;stop-color:#000000"
           d="m 86.458412,124.62039 c 0.0149,0.0589 0.014,0.11978 0.0418,0.17622 0.0599,0.12146 0.14947,0.2355 0.26924,0.33435 l 15.021818,12.39821 c 0.11977,0.0988 0.25798,0.17278 0.40514,0.2222 0.14718,0.0494 0.30362,0.0744 0.45992,0.0744 0.15631,0 0.31224,-0.025 0.45941,-0.0744 0.14717,-0.0494 0.28537,-0.12336 0.40514,-0.22221 l 15.02183,-12.39821 c 0.11978,-0.0988 0.2099,-0.21287 0.26975,-0.33435 0.0306,-0.062 0.0305,-0.12882 0.0455,-0.19379 -0.17761,-0.10722 -0.37447,-0.18552 -0.5979,-0.18552 H 87.082152 c -0.23489,0 -0.4404,0.0855 -0.62374,0.20309 z" />
      </g>
      <path
         id="path2641-0-2"
         style="font-variation-settings:normal;opacity:1;vector-effect:none;fill:#d35f5f;fill-opacity:1;stroke:none;stroke-width:0;stroke-linecap:square;stroke-linejoin:miter;stroke-miterlimit:4;stroke-dasharray:none;stroke-dashoffset:0;stroke-opacity:1;stop-color:#000000;stop-opacity:1"
         d="M 99.040114,135.2585 86.769552,125.13096 c -0.11977,-0.0988 -0.20935,-0.21289 -0.26924,-0.33435 -0.0278,-0.0564 -0.027,-0.11728 -0.0419,-0.17622 -0.32584,0.209 -0.55347,0.55715 -0.55346,0.97462 v 19.22881 c 1e-5,0.46217 0.2702,0.85032 0.65578,1.04334 0.0137,-0.0826 0.0192,-0.16652 0.0579,-0.24495 0.0599,-0.12146 0.14998,-0.23549 0.26975,-0.33434 z" />
      <path
         id="path2647-6-5"
         style="font-variation-settings:normal;vector-effect:none;fill:#d35f5f;fill-opacity:1;stroke:none;stroke-width:0;stroke-linecap:square;stroke-linejoin:miter;stroke-miterlimit:4;stroke-dasharray:none;stroke-dashoffset:0;stroke-opacity:1;stop-color:#000000"
         d="m 118.96034,145.74675 c 0.28315,-0.21469 0.47749,-0.53871 0.4775,-0.92294 v -19.2288 c 0,-0.42892 -0.23886,-0.78635 -0.57981,-0.99219 -0.015,0.065 -0.0149,0.13175 -0.0455,0.19379 -0.0599,0.12146 -0.14999,0.2355 -0.26974,0.33435 l -12.1517,10.02936 12.27056,10.12755 c 0.11977,0.0988 0.20936,0.21288 0.26925,0.33434 0.0197,0.0399 0.0162,0.0833 0.0295,0.12454 z" />
      <path
         id="path2645-4-8"
         style="font-variation-settings:normal;vector-effect:none;fill:#aa0000;fill-opacity:1;stroke:none;stroke-width:0;stroke-linecap:square;stroke-linejoin:miter;stroke-miterlimit:4;stroke-dasharray:none;stroke-dashoffset:0;stroke-opacity:1;stop-color:#000000"
         d="m 118.96034,145.74675 c -0.0132,-0.0412 -0.01,-0.0847 -0.0295,-0.12453 -0.0599,-0.12147 -0.14948,-0.2355 -0.26923,-0.33435 l -12.27058,-10.12754 -2.8701,2.36884 c -0.11978,0.0988 -0.25798,0.17279 -0.40515,0.22221 -0.14716,0.0494 -0.3031,0.0744 -0.4594,0.0744 -0.1563,0 -0.31275,-0.025 -0.45992,-0.0744 -0.14717,-0.0494 -0.28537,-0.12336 -0.40514,-0.2222 l -2.751256,-2.27067 -12.151712,10.02936 c -0.11977,0.0988 -0.2099,0.21286 -0.26975,0.33435 -0.0387,0.0784 -0.0442,0.16227 -0.0579,0.24495 0.15864,0.0794 0.33123,0.13436 0.52141,0.13436 l 31.177958,-1e-5 c 0.2681,0 0.50265,-0.10494 0.7002,-0.25477 z" />
    </g>
  </g>
</svg>
