<?xml version="1.0" encoding="UTF-8" standalone="no"?>
<svg
   xmlns:dc="http://purl.org/dc/elements/1.1/"
   xmlns:cc="http://creativecommons.org/ns#"
   xmlns:rdf="http://www.w3.org/1999/02/22-rdf-syntax-ns#"
   xmlns:svg="http://www.w3.org/2000/svg"
   xmlns="http://www.w3.org/2000/svg"
   xmlns:sodipodi="http://sodipodi.sourceforge.net/DTD/sodipodi-0.dtd"
   xmlns:inkscape="http://www.inkscape.org/namespaces/inkscape"
   width="900"
   height="500"
   viewBox="0 0 238.12499 132.29167"
   version="1.1"
   id="svg8"
   inkscape:version="1.0.1 (1.0.1+r73)"
   sodipodi:docname="feature_extraction_bridge.svg">
  <defs
     id="defs2" />
  <sodipodi:namedview
     id="base"
     pagecolor="#ffffff"
     bordercolor="#666666"
     borderopacity="1.0"
     inkscape:pageopacity="0.0"
     inkscape:pageshadow="2"
     inkscape:zoom="1.2860152"
     inkscape:cx="439.3746"
     inkscape:cy="204.12506"
     inkscape:document-units="mm"
     inkscape:current-layer="layer1"
     inkscape:document-rotation="0"
     showgrid="false"
     units="px"
     inkscape:window-width="1920"
     inkscape:window-height="1016"
     inkscape:window-x="0"
     inkscape:window-y="27"
     inkscape:window-maximized="1" />
  <metadata
     id="metadata5">
    <rdf:RDF>
      <cc:Work
         rdf:about="">
        <dc:format>image/svg+xml</dc:format>
        <dc:type
           rdf:resource="http://purl.org/dc/dcmitype/StillImage" />
        <dc:title />
      </cc:Work>
    </rdf:RDF>
  </metadata>
  <g
     inkscape:label="Layer 1"
     inkscape:groupmode="layer"
     id="layer1">
    <g
       transform="matrix(0.01641355,0,0,-0.01641355,64.009674,94.593643)"
       fill="#000000"
       stroke="none"
       id="g120">
      <path
         d="m 2284,3787 c -155,-117 -369,-272 -475,-346 -177,-122 -604,-438 -689,-510 -65,-54 -23,-43 116,32 l 139,75 3,-75 c 2,-42 1,-82 -2,-89 -2,-6 -53,-41 -113,-77 C 1133,2719 482,2350 245,2220 50,2114 67,2124 71,2111 c 2,-5 110,37 239,94 229,101 235,103 244,82 12,-31 20,-670 11,-928 l -7,-216 -54,-18 c -76,-26 -74,-49 4,-40 180,21 655,99 1417,234 533,94 475,87 475,59 0,-12 -11,-221 -25,-463 -14,-242 -25,-470 -25,-507 0,-64 1,-68 29,-82 45,-24 165,-54 280,-72 198,-29 554,-15 594,25 8,8 4,181 -16,633 -15,342 -25,624 -22,626 7,7 394,69 1370,217 127,19 390,57 585,85 195,27 473,66 617,87 144,20 263,35 265,33 2,-3 1,-108 -2,-235 -4,-132 -3,-235 3,-242 27,-36 302,-61 371,-34 l 29,11 -8,153 c -3,83 -10,206 -15,272 -4,66 -6,122 -4,124 2,3 127,21 277,42 149,21 283,42 296,47 57,21 -15,27 -296,24 -166,-2 -293,1 -293,6 0,5 59,15 130,22 72,7 130,16 130,21 0,5 -58,9 -130,9 h -130 v 28 c 0,15 -11,198 -25,407 -13,209 -23,381 -21,382 2,2 16,-30 32,-69 20,-53 30,-67 32,-51 4,27 -65,229 -85,249 -11,10 -43,14 -121,14 -59,0 -112,-4 -118,-8 -5,-4 -32,-47 -58,-97 -88,-165 -171,-278 -307,-419 -141,-146 -222,-211 -339,-275 -98,-52 -263,-107 -372,-122 l -87,-13 -88,33 c -195,73 -432,218 -633,385 -133,111 -434,415 -579,586 -230,269 -526,666 -543,727 -5,21 -15,44 -20,51 -8,9 -72,12 -262,11 l -251,-1 z m 525,70 -53,-44 -28,39 c -16,21 -28,40 -28,43 0,3 36,5 81,5 h 81 z m -287,-114 c -4,-109 -10,-126 -45,-144 -18,-10 -19,-7 -15,93 3,102 4,105 33,131 17,15 30,27 31,27 0,0 -1,-48 -4,-107 z m 401,94 c -24,-40 -89,-116 -98,-113 -25,7 -10,35 43,78 62,52 67,54 55,35 z m -246,-81 c -2,-5 -13,-16 -25,-24 -22,-14 -22,-14 -22,39 l 1,54 24,-30 c 14,-16 24,-34 22,-39 z m 313,-112 v -136 l -47,59 c -25,32 -51,63 -56,70 -6,8 8,33 45,77 29,36 54,66 56,66 1,0 2,-61 2,-136 z m 229,-24 101,-135 v -177 c 0,-98 -2,-178 -4,-178 -2,0 -45,47 -96,105 l -92,106 -9,152 c -4,84 -10,181 -13,215 -2,35 0,60 4,55 5,-4 54,-69 109,-143 z m -827,-83 c -25,-25 -405,-296 -415,-297 -4,0 -6,42 -5,93 l 3,92 69,50 c 38,28 135,100 215,162 l 146,111 3,-96 c 2,-83 0,-98 -16,-115 z m 358,82 c -21,-29 -24,-30 -31,-13 -12,29 -10,59 3,72 10,10 16,8 31,-7 19,-19 19,-20 -3,-52 z m -113,-106 c -2,-16 -4,-5 -4,22 0,28 2,40 4,28 2,-13 2,-35 0,-50 z m 354,-150 c 16,-44 3,-70 -84,-164 l -81,-89 -43,42 c -68,66 -76,93 -68,212 l 7,101 50,57 50,58 79,-95 c 43,-52 84,-107 90,-122 z m -510,-418 c -25,-442 -29,-488 -30,-345 0,91 2,324 6,519 6,341 7,355 27,375 l 21,21 2,-30 c 2,-16 -10,-259 -26,-540 z m -61,-324 v -820 l -45,-7 c -25,-3 -48,-4 -51,-1 -11,11 -7,1482 5,1579 1,6 81,68 88,68 2,0 3,-369 3,-819 z m 1093,636 c 64,-76 119,-148 122,-160 3,-12 4,-80 3,-151 l -3,-130 -115,108 c -63,59 -123,120 -132,134 -15,23 -18,51 -18,197 0,143 2,167 14,155 7,-8 66,-77 129,-153 z m -1593,33 v -90 l -72,-47 c -40,-26 -149,-93 -243,-150 l -170,-104 -3,68 c -2,37 -1,77 2,90 4,15 59,54 173,127 93,58 197,125 233,150 36,25 68,45 73,45 4,1 7,-40 7,-89 z m 730,49 c 0,-24 -4,-38 -10,-34 -17,10 -11,75 7,75 2,0 3,-18 3,-41 z m -395,-176 c 10,-191 12,-1330 3,-1363 -7,-25 -13,-27 -154,-46 l -147,-20 6,690 6,691 23,18 c 43,35 243,176 249,177 4,0 10,-66 14,-147 z m 959,-131 c 3,-53 8,-288 11,-522 3,-234 8,-464 11,-511 l 6,-86 -26,-5 c -24,-5 -26,-3 -26,31 0,37 -45,1000 -55,1176 l -5,100 39,-43 c 38,-42 39,-43 45,-140 z m -564,-4 c 0,-87 -4,-149 -10,-153 -7,-4 -10,52 -10,162 0,112 4,163 10,153 5,-8 10,-81 10,-162 z m 340,5 v -127 l -49,64 c -28,35 -47,69 -43,74 12,22 85,116 88,116 2,0 4,-57 4,-127 z m -230,2 c 0,-4 -11,-20 -25,-37 l -25,-30 v 67 67 l 25,-30 c 14,-17 25,-33 25,-37 z m -829,-623 c 5,-487 3,-670 -5,-678 -6,-6 -30,-14 -53,-17 l -41,-5 -7,137 c -7,115 -2,592 11,1056 l 3,120 37,33 c 21,17 40,30 43,27 3,-3 8,-306 12,-673 z m 4359,672 c 0,-10 -73,-145 -76,-141 -2,2 -17,36 -33,75 l -30,72 h 70 c 38,0 69,-3 69,-6 z m -2984,-64 26,-39 -3,-525 c -2,-288 -6,-526 -9,-529 -3,-3 -19,-8 -37,-12 l -32,-6 5,543 c 5,505 8,608 19,608 3,0 16,-18 31,-40 z m 594,-303 v -118 l -80,62 c -132,102 -130,98 -130,252 v 132 l 105,-105 105,-105 z m 2400,123 c -6,-79 -7,-83 -19,-55 -6,17 -20,48 -30,70 l -18,40 31,63 31,64 6,-49 c 3,-26 3,-86 -1,-133 z m -235,-143 c -8,-18 -31,-50 -51,-72 l -35,-40 4,140 5,140 43,75 44,75 3,-143 c 2,-112 -1,-150 -13,-175 z m 134,213 c 1,-3 -10,-23 -24,-45 l -24,-40 v 95 l 1,95 23,-50 c 13,-27 24,-52 24,-55 z M 1771,2574 c 7,-232 9,-497 4,-635 l -7,-235 -167,-27 c -91,-15 -169,-27 -173,-27 -10,0 -9,1028 0,1088 l 7,44 160,98 c 88,53 161,97 162,95 2,-1 8,-181 14,-401 z m 1219,163 v -59 l -82,-89 -82,-89 -63,62 -63,62 v 97 96 l 63,71 62,71 83,-82 82,-82 z m 550,-363 v -431 l -76,-7 c -42,-4 -79,-4 -83,-1 -3,4 -7,236 -9,517 l -3,511 85,-79 86,-78 z m 2714,420 29,-55 -27,-27 c -22,-23 -28,-25 -36,-12 -11,18 -13,150 -2,150 4,0 20,-25 36,-56 z m -294,-105 v -132 l -80,-81 -80,-81 v 111 111 l 78,101 c 42,56 78,102 80,102 1,0 2,-59 2,-131 z m -3300,30 c 0,-45 -2,-50 -15,-39 -18,15 -20,61 -3,78 18,18 18,17 18,-39 z m 963,13 c 16,-17 18,-55 24,-396 6,-366 6,-376 -13,-376 -10,0 -29,-3 -41,-6 l -23,-6 v 411 c 0,390 1,411 18,402 9,-5 25,-18 35,-29 z m 480,-85 47,-44 v -82 c 0,-74 -2,-82 -17,-77 -28,11 -172,110 -176,121 -2,6 -1,54 1,108 l 4,97 46,-39 c 26,-22 68,-59 95,-84 z m -2712,-572 4,-430 -48,-9 c -26,-4 -51,-5 -55,-1 -8,8 -6,1009 3,1042 3,13 22,34 43,47 l 37,23 6,-121 c 3,-66 8,-314 10,-551 z m 4789,596 c 0,-15 -7,-36 -15,-47 -13,-17 -14,-14 -15,40 0,51 2,57 15,46 8,-7 15,-25 15,-39 z m 129,-36 1,-30 -26,27 c -26,26 -26,26 -8,51 19,25 19,25 26,4 3,-12 6,-35 7,-52 z m -2545,-17 39,-34 5,-294 c 5,-332 9,-314 -70,-322 l -48,-6 v 355 c 0,397 -7,371 74,301 z M 1224,2508 c 12,-266 17,-683 9,-788 l -8,-105 -157,-30 c -226,-42 -210,-57 35,-31 l 117,12 v -127 -127 l -286,-71 c -158,-39 -289,-69 -292,-66 -22,22 -25,1048 -4,1145 8,34 16,39 287,181 154,81 283,147 286,148 3,1 9,-63 13,-141 z m 4850,-75 c -6,-231 -9,-263 -24,-263 -6,0 -10,80 -10,210 0,170 3,217 15,240 9,17 18,30 20,30 3,0 2,-98 -1,-217 z m 200,157 c 20,-22 36,-45 36,-50 0,-5 -17,-28 -37,-51 l -37,-41 -19,23 c -16,20 -18,35 -14,81 8,92 18,97 71,38 z M 2658,2408 c -3,-78 -9,-133 -16,-140 -9,-9 -12,29 -12,158 1,160 2,167 17,140 13,-24 15,-53 11,-158 z m 3112,67 v -104 l -67,-44 -68,-43 -3,80 -3,80 68,68 c 37,37 69,68 70,68 2,0 3,-47 3,-105 z m 408,53 -3,-23 -13,23 c -11,19 -11,26 0,39 12,15 13,15 16,0 2,-9 2,-27 0,-39 z m -1850,-58 c 65,-47 75,-65 70,-122 l -3,-35 -94,42 c -51,24 -97,49 -102,56 -5,8 -9,47 -9,87 v 74 l 38,-29 c 21,-15 66,-48 100,-73 z m 1690,-296 c -2,-1 -36,-6 -75,-9 l -73,-8 v 127 127 l 45,47 45,47 v -112 c 0,-69 4,-113 10,-113 6,0 10,45 10,115 0,92 4,123 18,148 17,31 17,29 20,-167 1,-109 1,-200 0,-202 z m -3030,191 -3,-65 -48,61 c -27,33 -47,63 -45,68 2,4 23,35 48,68 l 45,61 3,-64 c 2,-35 2,-93 0,-129 z m 910,139 c 13,-28 17,-481 4,-500 -4,-6 -22,-15 -39,-19 l -33,-7 v 74 c 0,40 3,171 7,290 l 6,216 22,-14 c 12,-8 27,-26 33,-40 z m -1159,-52 19,-28 -29,-39 -29,-39 v 73 c 0,76 5,80 39,33 z m 1286,-18 25,-16 v -187 c 0,-103 5,-193 10,-201 7,-10 10,16 11,85 1,55 4,141 8,192 l 6,92 25,-12 c 42,-21 50,-51 50,-204 0,-110 -3,-145 -14,-156 -9,-8 -46,-17 -88,-21 -40,-4 -81,-9 -90,-12 -17,-5 -18,11 -18,241 v 247 l 25,-16 c 14,-9 36,-23 50,-32 z m 2155,-4 c 0,-21 -4,-42 -10,-45 -6,-4 -10,13 -10,45 0,32 4,49 10,45 6,-3 10,-24 10,-45 z m 130,-6 v -55 l -24,28 -24,27 21,28 c 11,15 22,28 24,28 2,0 3,-25 3,-56 z m -712,-81 -3,-77 -88,-37 -88,-38 3,57 3,56 80,57 c 44,32 84,58 88,58 4,1 7,-34 5,-76 z m 248,-180 c -2,-2 -38,-7 -80,-10 l -76,-6 v 61 c 0,57 2,62 33,86 19,15 37,26 40,26 4,0 7,-25 7,-55 0,-30 5,-55 10,-55 6,0 10,28 10,65 0,59 3,69 28,91 l 27,26 3,-112 c 1,-62 1,-115 -2,-117 z m 430,193 c 32,-32 34,-38 34,-105 v -71 h -49 -48 l -5,88 c -8,127 8,148 68,88 z m -1712,-39 c 165,-94 156,-106 -36,-50 l -88,26 v 44 c 0,23 3,43 8,43 4,0 56,-29 116,-63 z M 2990,2031 c 0,-148 0,-151 -22,-156 -40,-9 -243,-33 -247,-29 -8,7 -17,349 -10,369 4,11 31,46 60,79 l 53,59 83,-86 83,-86 z m 1306,255 c 7,-6 15,-65 18,-133 7,-117 6,-123 -12,-123 -11,0 -40,-3 -66,-6 l -46,-7 v 161 161 l 48,-21 c 26,-11 52,-25 58,-32 z m 1884,-26 c 0,-64 -3,-80 -15,-80 -11,0 -15,13 -15,54 0,51 13,106 25,106 3,0 5,-36 5,-80 z m -780,-15 c 0,-38 -4,-47 -23,-54 -34,-13 -221,-25 -254,-16 -25,6 -18,10 57,31 47,14 112,38 145,54 33,15 63,29 68,29 4,1 7,-19 7,-44 z m -1002,3 c 8,-7 12,-42 12,-109 v -99 h -35 -35 v 116 c 0,115 0,115 23,108 12,-3 28,-11 35,-16 z m 1262,-32 c 0,-19 3,-41 6,-50 5,-12 0,-16 -20,-16 -22,0 -26,4 -26,31 0,34 15,69 30,69 6,0 10,-15 10,-34 z m -1095,-14 110,-28 3,-46 c 4,-60 -4,-63 -135,-73 l -103,-7 v 91 c 0,50 3,91 8,91 4,0 57,-13 117,-28 z m 1039,2 c 19,-49 2,-64 -71,-64 -37,0 -44,3 -41,17 2,10 23,28 48,40 55,27 56,27 64,7 z m -684,-51 c 0,-10 3,-28 6,-40 6,-20 2,-21 -73,-27 -43,-4 -93,-9 -110,-12 -33,-5 -33,-5 -33,39 0,24 3,47 7,50 3,4 51,7 105,7 87,0 98,-2 98,-17 z M 2650,1995 c 0,-140 -2,-165 -15,-165 -13,0 -15,22 -15,139 0,124 9,191 25,191 3,0 5,-74 5,-165 z m 2804,150 c 4,-11 -2,-15 -27,-15 -18,0 -70,-2 -117,-5 -56,-3 -76,-2 -60,4 14,5 50,10 80,11 30,1 66,6 80,10 36,12 37,11 44,-5 z m -375,-5 c 47,-5 89,-14 93,-18 6,-6 -29,-12 -84,-16 -51,-4 -101,-9 -110,-12 -14,-4 -18,1 -18,19 0,41 -2,41 119,27 z m 1231,-19 c 0,-11 -35,-21 -72,-21 -29,0 -38,14 -15,23 21,9 87,7 87,-2 z m -130,-16 c 0,-12 -15,-15 -72,-15 -106,0 -72,22 45,28 18,1 27,-3 27,-13 z m -170,-10 c 0,-11 -12,-15 -47,-15 -27,0 -58,-3 -70,-6 -17,-5 -23,-2 -23,9 0,12 13,17 53,20 28,2 60,4 70,5 9,1 17,-5 17,-13 z m -170,-14 c 0,-13 -37,-21 -97,-21 -63,0 -71,17 -10,23 83,7 107,7 107,-2 z m -180,-15 c 0,-10 -20,-16 -67,-20 -38,-4 -76,-10 -85,-12 -12,-4 -18,0 -18,10 0,16 28,23 110,29 25,2 48,4 53,5 4,1 7,-4 7,-12 z m -200,-20 c 0,-18 -23,-23 -142,-31 -84,-6 -98,-5 -98,8 0,12 20,16 98,22 53,3 102,8 107,10 22,8 35,4 35,-9 z m -270,-25 c 0,-18 -22,-24 -126,-35 -96,-11 -104,-11 -104,5 0,14 13,19 68,24 37,3 74,8 82,9 33,8 80,5 80,-3 z m -260,-30 c 0,-21 -15,-26 -115,-36 -33,-4 -68,-9 -78,-12 -15,-4 -18,0 -15,19 3,24 8,25 196,47 6,0 12,-8 12,-18 z m 1380,-9 c 0,-10 -16,-33 -35,-52 l -35,-34 -34,40 c -19,21 -33,40 -32,41 2,3 100,20 124,22 6,0 12,-7 12,-17 z m -1630,-22 c 0,-22 -6,-24 -117,-40 -111,-16 -125,-14 -121,13 3,20 11,23 88,33 135,18 150,17 150,-6 z m -280,-34 c 0,-25 -4,-27 -168,-52 -43,-7 -44,-7 -40,22 3,28 6,29 78,40 120,19 130,18 130,-10 z m 1810,-57 c 0,-3 -11,-16 -25,-29 l -25,-23 v 59 l 1,59 24,-30 c 14,-16 25,-33 25,-36 z m -2060,23 c 0,-28 -1,-28 -95,-43 l -95,-15 v 33 c 0,35 6,39 80,46 102,11 110,9 110,-21 z m 2160,-19 v -47 l -21,21 c -21,21 -21,21 -3,47 11,14 20,26 22,26 1,0 2,-21 2,-47 z m -2410,-12 v -38 l -92,-13 c -51,-7 -98,-15 -105,-17 -9,-4 -13,7 -13,36 0,23 1,41 3,42 1,0 47,7 102,14 55,7 101,13 103,14 1,0 2,-16 2,-38 z m -270,-35 c 0,-19 -4,-38 -10,-41 -7,-4 -218,-44 -237,-45 -2,0 -3,22 -3,49 v 49 l 88,9 c 48,6 104,11 125,12 36,1 37,0 37,-33 z m 2690,-76 c 0,-6 -18,-30 -40,-53 l -40,-42 -35,39 c -43,49 -44,71 -3,120 l 32,39 43,-46 c 24,-25 43,-51 43,-57 z m -3000,31 c 0,-47 -2,-50 -30,-55 -16,-3 -43,-9 -60,-12 -29,-5 -30,-5 -30,34 0,22 -3,47 -6,56 -4,12 4,16 43,19 26,2 56,4 66,5 14,2 17,-6 17,-47 z m -330,-46 c 0,-36 -5,-57 -13,-60 -7,-3 -68,-16 -135,-29 l -123,-23 3,66 3,66 120,16 c 66,9 126,17 133,18 8,1 12,-16 12,-54 z m -350,-59 c 0,-53 -3,-66 -17,-70 -19,-5 -279,-56 -288,-56 -3,0 -5,35 -3,78 l 3,77 125,16 c 197,26 180,30 180,-45 z m 3571,-41 c 0,-3 -11,-20 -25,-36 l -26,-31 v 67 67 l 26,-31 c 14,-16 25,-33 25,-36 z m -3961,-23 v -79 l -182,-37 c -101,-21 -193,-40 -205,-43 -23,-5 -23,-4 -23,90 v 96 l 33,6 c 57,10 311,43 345,44 l 32,1 z m 4070,21 -1,-58 -24,29 -24,30 22,27 c 12,15 23,28 25,28 1,1 2,-25 2,-56 z M 1760,1530 c 0,-55 -1,-100 -2,-100 -2,0 -104,-22 -228,-50 -124,-27 -229,-50 -233,-50 -4,0 -6,55 -5,122 l 3,123 205,26 c 113,15 217,27 233,28 l 27,1 z m 4521,28 33,-41 -48,6 c -27,4 -57,7 -68,7 -17,0 -16,4 9,35 15,19 31,35 35,35 3,0 21,-19 39,-42 z m -3398,-130 -71,-71 -51,42 c -28,24 -51,46 -51,50 0,4 53,16 118,27 64,12 119,22 122,23 3,0 -27,-31 -67,-71 z m -160,-124 c 9,-12 17,-25 17,-29 0,-7 -110,-145 -116,-145 -2,0 -4,66 -4,146 v 147 l 43,-48 c 23,-27 50,-59 60,-71 z m 267,-26 v -133 l -55,60 c -30,33 -54,65 -55,72 0,11 97,133 106,133 2,0 4,-60 4,-132 z m -87,-165 c 86,-91 87,-92 87,-143 0,-66 -8,-80 -97,-168 l -75,-72 -26,19 c -46,33 -170,165 -176,187 -11,37 12,74 107,174 51,53 92,96 92,96 1,-1 40,-42 88,-93 z M 2716,627 c -14,-17 -41,-50 -61,-72 l -35,-40 v 149 149 l 61,-77 61,-76 z m 274,26 V 525 l -55,60 c -30,33 -54,64 -55,68 0,8 101,127 107,127 2,0 3,-57 3,-127 z M 2888,496 c 40,-47 72,-88 72,-91 0,-8 -274,3 -305,12 -17,5 -6,18 65,84 47,43 88,79 91,79 3,0 38,-38 77,-84 z"
         id="path118" />
    </g>
    <text
       xml:space="preserve"
       style="font-style:normal;font-weight:normal;font-size:10.5833px;line-height:1.25;font-family:sans-serif;fill:#000000;fill-opacity:1;stroke:none;stroke-width:0.264583"
       x="11.886539"
       y="76.630608"
       id="text135-3"><tspan
         sodipodi:role="line"
         id="tspan133-0"
         x="11.886539"
         y="76.630608"
         style="font-style:normal;font-variant:normal;font-weight:normal;font-stretch:normal;font-size:6.35px;font-family:'Ubuntu Condensed';-inkscape-font-specification:'Ubuntu Condensed, ';stroke-width:0.264583">From Processing</tspan></text>
    <text
       xml:space="preserve"
       style="font-style:normal;font-weight:normal;font-size:10.5833px;line-height:1.25;font-family:sans-serif;fill:#000000;fill-opacity:1;stroke:none;stroke-width:0.264583"
       x="189.21069"
       y="32.180565"
       id="text135-3-3"><tspan
         sodipodi:role="line"
         id="tspan133-0-6"
         x="189.21069"
         y="32.180565"
         style="font-style:normal;font-variant:normal;font-weight:normal;font-stretch:normal;font-size:6.35px;font-family:'Ubuntu Condensed';-inkscape-font-specification:'Ubuntu Condensed, ';stroke-width:0.264583">To Modelling</tspan></text>
    <text
       xml:space="preserve"
       style="font-style:normal;font-weight:normal;font-size:10.5833px;line-height:0;font-family:sans-serif;fill:#000000;fill-opacity:1;stroke:none;stroke-width:0.264583"
       x="12.182872"
       y="85.542542"
       id="text2754-4-8-9-9"><tspan
         sodipodi:role="line"
         x="12.182872"
         y="85.542542"
         style="font-style:normal;font-variant:normal;font-weight:normal;font-stretch:normal;font-size:4.93889px;line-height:1.25;font-family:Ubuntu;-inkscape-font-specification:Ubuntu;stroke-width:0.264583"
         id="tspan7954">· Original data</tspan><tspan
         sodipodi:role="line"
         x="12.182872"
         y="91.716156"
         style="font-style:normal;font-variant:normal;font-weight:normal;font-stretch:normal;font-size:4.93889px;line-height:1.25;font-family:Ubuntu;-inkscape-font-specification:Ubuntu;stroke-width:0.264583"
         id="tspan1753">· Clean and processed</tspan><tspan
         sodipodi:role="line"
         x="12.182872"
         y="97.889763"
         style="font-style:normal;font-variant:normal;font-weight:normal;font-stretch:normal;font-size:4.93889px;line-height:1.25;font-family:Ubuntu;-inkscape-font-specification:Ubuntu;stroke-width:0.264583"
         id="tspan1781">· Not always informative</tspan><tspan
         sodipodi:role="line"
         x="12.182872"
         y="104.06338"
         style="font-style:normal;font-variant:normal;font-weight:normal;font-stretch:normal;font-size:4.93889px;line-height:1.25;font-family:Ubuntu;-inkscape-font-specification:Ubuntu;stroke-width:0.264583"
         id="tspan1783">· Can be redundant</tspan><tspan
         sodipodi:role="line"
         x="12.182872"
         y="110.23699"
         style="font-style:normal;font-variant:normal;font-weight:normal;font-stretch:normal;font-size:4.93889px;line-height:1.25;font-family:Ubuntu;-inkscape-font-specification:Ubuntu;stroke-width:0.264583"
         id="tspan1751">· Multi-dimensional</tspan><tspan
         sodipodi:role="line"
         x="12.182872"
         y="114.55431"
         style="font-style:normal;font-variant:normal;font-weight:normal;font-stretch:normal;font-size:4.23333px;line-height:1.25;font-family:Ubuntu;-inkscape-font-specification:Ubuntu;stroke-width:0.264583"
         id="tspan1779" /></text>
    <text
       xml:space="preserve"
       style="font-style:normal;font-weight:normal;font-size:4.93889px;line-height:0;font-family:sans-serif;fill:#000000;fill-opacity:1;stroke:none;stroke-width:0.264583"
       x="189.06253"
       y="41.092499"
       id="text2754-4-8-9-9-7"><tspan
         style="font-style:normal;font-variant:normal;font-weight:normal;font-stretch:normal;font-size:4.93889px;line-height:1.25;font-family:Ubuntu;-inkscape-font-specification:Ubuntu;stroke-width:0.264583"
         sodipodi:role="line"
         id="tspan2408">· Derived data</tspan><tspan
         style="font-style:normal;font-variant:normal;font-weight:normal;font-stretch:normal;font-size:4.93889px;line-height:1.25;font-family:Ubuntu;-inkscape-font-specification:Ubuntu;stroke-width:0.264583"
         sodipodi:role="line"
         id="tspan2410">· Informative</tspan><tspan
         style="font-style:normal;font-variant:normal;font-weight:normal;font-stretch:normal;font-size:4.93889px;line-height:1.25;font-family:Ubuntu;-inkscape-font-specification:Ubuntu;stroke-width:0.264583"
         sodipodi:role="line"
         id="tspan2412">· Less redundant</tspan><tspan
         sodipodi:role="line"
         x="189.06253"
         y="59.36639"
         style="font-style:normal;font-variant:normal;font-weight:normal;font-stretch:normal;font-size:4.93889px;line-height:1.15;font-family:Ubuntu;-inkscape-font-specification:Ubuntu;stroke-width:0.264583"
         id="tspan1785">· Less dimensions</tspan></text>
    <text
       xml:space="preserve"
       style="font-style:normal;font-weight:normal;font-size:10.5833px;line-height:1.25;font-family:sans-serif;fill:#000000;fill-opacity:1;stroke:none;stroke-width:0.264583"
       x="105.86533"
       y="96.079025"
       id="text135-3-3-6"
       transform="rotate(-9)"><tspan
         sodipodi:role="line"
         id="tspan133-0-6-2"
         x="105.86533"
         y="96.079025"
         style="font-style:normal;font-variant:normal;font-weight:normal;font-stretch:normal;font-size:6.35px;font-family:'Ubuntu Condensed';-inkscape-font-specification:'Ubuntu Condensed, ';fill:#f91c72;fill-opacity:1;stroke-width:0.264583">Feature extraction</tspan></text>
  </g>
</svg>
