<?xml version="1.0" encoding="UTF-8" standalone="no"?>
<svg
   xmlns:dc="http://purl.org/dc/elements/1.1/"
   xmlns:cc="http://creativecommons.org/ns#"
   xmlns:rdf="http://www.w3.org/1999/02/22-rdf-syntax-ns#"
   xmlns:svg="http://www.w3.org/2000/svg"
   xmlns="http://www.w3.org/2000/svg"
   xmlns:sodipodi="http://sodipodi.sourceforge.net/DTD/sodipodi-0.dtd"
   xmlns:inkscape="http://www.inkscape.org/namespaces/inkscape"
   width="900"
   height="500"
   viewBox="0 0 238.12499 132.29167"
   version="1.1"
   id="svg8"
   inkscape:version="1.0.1 (1.0.1+r73)"
   sodipodi:docname="feature_extraction_roller_coaster.svg">
  <defs
     id="defs2">
    <inkscape:path-effect
       effect="spiro"
       id="path-effect2852"
       is_visible="true"
       lpeversion="1" />
    <inkscape:path-effect
       effect="simplify"
       id="path-effect2850"
       is_visible="true"
       lpeversion="1"
       steps="1"
       threshold="0.0277778"
       smooth_angles="360"
       helper_size="0"
       simplify_individual_paths="false"
       simplify_just_coalesce="false" />
  </defs>
  <sodipodi:namedview
     id="base"
     pagecolor="#ffffff"
     bordercolor="#666666"
     borderopacity="1.0"
     inkscape:pageopacity="0.0"
     inkscape:pageshadow="2"
     inkscape:zoom="0.90935003"
     inkscape:cx="585.11745"
     inkscape:cy="261.3677"
     inkscape:document-units="mm"
     inkscape:current-layer="layer1"
     inkscape:document-rotation="0"
     showgrid="false"
     units="px"
     inkscape:window-width="1920"
     inkscape:window-height="1016"
     inkscape:window-x="0"
     inkscape:window-y="27"
     inkscape:window-maximized="1" />
  <metadata
     id="metadata5">
    <rdf:RDF>
      <cc:Work
         rdf:about="">
        <dc:format>image/svg+xml</dc:format>
        <dc:type
           rdf:resource="http://purl.org/dc/dcmitype/StillImage" />
        <dc:title />
      </cc:Work>
    </rdf:RDF>
  </metadata>
  <g
     inkscape:label="Layer 1"
     inkscape:groupmode="layer"
     id="layer1">
    <g
       id="g2794"
       transform="matrix(1.1916069,0,0,1.1916069,-30.461908,9.1739446)">
      <path
         sodipodi:type="inkscape:offset"
         inkscape:radius="-0.66751409"
         inkscape:original="M 360.71875 446.21875 C 360.62525 446.21075 360.53364 446.2208 360.4375 446.25 C 359.20893 447.52909 360.23231 449.39291 361.21875 450.46875 C 364.67017 455.57376 368.12609 460.6807 371.34375 465.9375 L 355.125 491.5625 C 354.80998 477.51268 354.87673 463.45857 354.8125 449.40625 C 355.58613 448.41254 353.3691 447.33749 353.125 448.625 C 352.00143 460.60126 352.91671 472.62318 352.65625 484.625 L 352.75 491.53125 L 336.1875 466.09375 C 338.14367 462.0967 340.92635 458.58726 343.15625 454.75 C 344.1026 453.65776 343.92468 453.22734 342.78125 454.34375 C 339.75521 456.65268 337.02022 459.46145 335.4375 462.96875 C 334.71634 463.65223 333.18189 462.72407 332.875 463.96875 C 333.59784 467.00791 331.41112 469.60395 329.8125 471.9375 C 325.50389 478.36061 321.25372 484.8233 317.09375 491.34375 C 316.35626 490.58568 315.04091 491.71293 315.53125 492.59375 C 312.90274 498.24073 310.3236 503.91102 307.84375 509.625 C 310.21258 505.97516 312.53822 502.29688 314.96875 498.6875 L 315.125 550.25 C 310.08818 542.8609 305.25061 535.33942 300.375 527.84375 C 299.00746 529.7176 300.17492 532.15354 301.46875 533.71875 C 305.88206 540.39473 310.3378 547.04316 314.65625 553.78125 C 305.81703 554.14628 296.96744 553.99269 288.125 554.21875 C 286.85711 554.66709 287.82603 556.91196 289.03125 556.34375 C 297.15453 556.13671 305.28118 556.19279 313.40625 556.125 L 296.90625 580.875 C 292.69903 575.2307 289.09977 569.16896 285.15625 563.34375 C 285.43376 562.2676 283.28837 562.07203 283.4375 563.21875 C 282.87923 566.04495 285.24478 568.14678 286.53125 570.375 L 295.09375 583.40625 L 279.15625 606.5625 C 279.33615 595.05562 279.15025 583.53573 279.28125 572.03125 C 279.07306 570.87313 277.68894 572.51829 277.84375 573.1875 C 275.85756 577.84467 276.73918 582.99565 276.59375 587.90625 C 276.66335 594.11232 276.53925 600.32578 276.46875 606.53125 C 272.20409 601.64801 269.06549 595.93308 265.15625 590.78125 C 265.37639 589.41773 262.81631 589.12976 262.96875 590.625 C 262.79374 592.78051 264.85717 594.13965 265.625 595.96875 L 275.65625 611.15625 L 241.875 611.75 C 244.97179 606.86773 248.17943 602.0571 251.4375 597.28125 C 248.20348 597.70122 246.1191 600.61025 244.8125 603.34375 L 241.53125 607.90625 C 241.15031 605.24436 241.42345 602.5336 241 599.875 C 240.04154 599.09129 238.51975 600.37508 239.03125 601.46875 C 238.86651 603.65633 239.35902 605.8513 239.03125 608.03125 C 236.42589 605.65888 235.21328 602.0831 232.34375 599.96875 C 231.15711 600.00325 230.99191 601.88 232 602.3125 C 234.21529 605.29418 236.20066 608.43556 238.25 611.53125 C 226.97221 611.66573 215.68168 611.68992 204.40625 611.6875 C 203.23811 611.43141 203.551 609.83283 204.28125 609.25 C 207.60074 604.4777 211.01865 599.77071 214.15625 594.875 C 214.33241 593.64266 212.13191 593.4541 212.03125 594.65625 C 209.03819 599.01845 206.04856 603.38301 203.0625 607.75 C 201.83481 600.67107 203.27799 593.47934 202.40625 586.375 C 202.35585 585.59684 202.68465 584.10163 201.53125 584.0625 C 200.19726 584.66911 201.11773 586.29192 201 587.375 C 201.17002 594.21363 201.01205 601.0669 200.96875 607.90625 C 197.66236 605.19585 196.09871 601.05299 193.375 597.84375 L 183.875 584.0625 C 184.77393 580.16654 187.80041 577.31505 189.53125 573.8125 C 190.16951 572.6612 191.30693 571.66612 191.5625 570.375 C 191.23026 569.5124 189.55562 569.76377 189.71875 570.78125 C 187.50424 574.46823 185.1309 578.05501 182.78125 581.65625 C 176.9241 574.32332 172.63859 565.91748 167.21875 558.28125 C 166.23073 557.85086 166.61713 555.89488 167.78125 556.21875 C 172.03334 555.84119 176.30248 556.19145 180.5625 556.15625 C 181.58209 555.68828 180.4653 553.95644 179.59375 554.5625 C 175.38501 554.15967 171.15511 554.4751 166.9375 554.3125 C 166.12321 555.11539 164.80259 553.3711 165.8125 552.8125 C 167.61096 549.76623 169.58555 546.82557 171.28125 543.71875 C 171.43894 542.51351 169.18194 542.37974 169.21875 543.625 C 168.18011 545.66095 166.90839 547.56096 165.65625 549.46875 C 164.09489 546.10941 165.16781 542.35155 164.875 538.8125 C 164.9544 537.83897 164.68274 536.89246 164.40625 535.96875 C 163.30961 535.47357 162.40387 537.05056 162.96875 537.9375 C 163.03745 542.11438 163.08941 546.29146 163.125 550.46875 C 157.05643 542.581 152.32043 533.78513 146.65625 525.625 C 146.05421 525.04353 146.33242 524.27924 146.40625 523.59375 C 146.12061 522.38173 144.56134 522.32674 143.71875 521.625 C 143.12044 521.30181 141.35639 520.15862 142 521.625 C 142.42703 523.01859 143.55547 524.632 142.40625 526 C 137.72387 533.72018 132.77963 541.27766 128 548.9375 C 126.83861 545.945 127.8724 542.68144 127.375 539.59375 C 127.09003 531.95743 127.11424 524.32798 127.15625 516.6875 C 126.28335 515.5987 124.44392 516.92169 124.90625 518.125 C 125.08895 538.77047 125.35082 559.41714 125.53125 580.0625 C 125.67941 600.11543 125.46055 620.16646 125.28125 640.21875 L 127.28125 640.21875 C 127.32445 632.14274 127.41161 624.05392 127.625 616 L 127.65625 616.03125 C 132.87582 623.9446 138.0231 631.9054 143.15625 639.875 C 143.15525 639.9944 143.1324 640.10155 143.125 640.21875 L 146.75 640.21875 C 151.7031 631.49264 157.46696 623.26577 162.8125 614.78125 L 162.90625 614.71875 L 162.96875 614.71875 C 163.42977 621.04708 163.1829 627.41018 163.3125 633.75 C 163.3195 635.91266 163.28965 638.05608 163.28125 640.21875 L 165.09375 640.21875 L 165.09375 615.375 L 165.125 615.34375 L 165.15625 615.34375 C 171.05636 623.28381 175.91663 631.92173 181.28125 640.21875 L 184.5625 640.21875 C 189.31043 631.66533 194.83825 623.57714 200.15625 615.375 L 200.28125 615.34375 L 200.40625 615.4375 C 201.34082 619.35584 200.62349 623.43016 201 627.40625 C 201.0335 631.67807 201.0423 635.94684 201.0625 640.21875 L 203.03125 640.21875 L 202.8125 615.375 L 202.90625 615.3125 L 202.96875 615.3125 C 208.39704 623.0447 213.33511 631.09601 218.5 639 C 218.83546 639.3229 219.05241 639.77306 219.125 640.21875 L 222.5625 640.21875 L 239.0625 615.5 L 238.96875 640.21875 L 241.3125 640.21875 L 241.4375 616.1875 L 244.21875 620.09375 C 248.59276 626.66575 252.98504 633.2309 257 640.03125 C 257.006 640.09565 256.99914 640.15642 257 640.21875 L 260.40625 640.21875 L 276.15625 616.34375 L 276.28125 640.21875 L 279.09375 640.21875 L 279.125 616.6875 L 294.4375 640.21875 L 298.5625 640.21875 L 314.0625 616.4375 L 314.21875 640.21875 L 317.15625 640.21875 L 317.21875 616.78125 L 332.46875 640.21875 L 336.75 640.21875 L 352.03125 615.96875 L 352.1875 628.03125 C 352.2004 632.09017 352.23995 636.16009 352.28125 640.21875 L 354.75 640.21875 L 354.5625 616.03125 L 370.46875 640.21875 L 374.75 640.21875 L 390.34375 615.71875 L 390.40625 628.40625 L 390.46875 640.21875 L 392.65625 640.21875 L 392.53125 615.5625 L 401.03125 628.5 L 408.625 640.21875 L 412.78125 640.21875 L 428.5625 615.875 L 428.5625 640.21875 L 430.71875 640.21875 L 430.6875 483.21875 C 429.93572 482.534 429.4396 481.50258 428.40625 481.1875 L 428.34375 490.96875 L 412.1875 465.96875 C 410.45702 464.67621 408.8526 463.19869 406.96875 462.125 L 409.3125 465.8125 L 392.84375 491.46875 C 392.78715 478.79166 392.7548 466.11436 392.875 453.4375 C 392.61972 452.12078 390.19863 452.55426 390.53125 453.90625 L 390.28125 491.34375 L 374.125 465.96875 L 384.75 449.21875 C 383.61741 448.14345 381.5488 449.04955 381.34375 450.53125 L 372.90625 463.5 C 368.85758 458.02306 365.34433 452.17984 361.5 446.5625 C 361.26809 446.40978 360.99918 446.24247 360.71875 446.21875 z M 334.78125 467.78125 L 352.3125 495.21875 C 341.10425 495.49121 329.89625 494.9965 318.6875 495.125 C 317.58278 494.10759 318.7421 492.67663 319.375 491.75 C 324.47495 483.73764 329.59107 475.73556 334.78125 467.78125 z M 410.6875 467.96875 L 428.09375 494.9375 L 393.15625 495.21875 L 410.6875 467.96875 z M 372.65625 468.46875 L 372.78125 468.46875 C 378.45321 477.22943 384.20903 485.93655 389.75 494.78125 C 382.23694 495.60996 374.65557 494.79555 367.125 495.28125 C 363.31898 495.38249 359.5257 495.3752 355.71875 495.375 C 361.02459 486.25373 366.83856 477.44358 372.53125 468.5625 L 372.65625 468.46875 z M 319.25 497.125 C 329.88339 497.39297 340.52105 497.3791 351.15625 497.53125 C 345.97693 505.99454 340.68664 514.38918 335.34375 522.75 C 329.75904 514.42755 324.35733 505.98435 318.78125 497.65625 C 318.71685 497.35434 318.92978 497.07799 319.25 497.125 z M 426.6875 497.3125 L 410.21875 522.3125 C 404.86224 514.60353 400.02286 506.5543 394.90625 498.6875 C 395.8173 497.19493 397.81512 497.88902 399.25 497.6875 C 408.39545 497.4432 417.53967 497.40137 426.6875 497.3125 z M 358.15625 497.5625 C 358.68886 497.542 359.21961 497.537 359.75 497.5625 L 388.6875 497.59375 C 383.78783 505.46338 378.73721 513.23725 373.71875 521.03125 C 373.86317 522.1891 371.72551 522.33123 371.75 521.125 C 366.79427 513.24372 361.6623 505.47575 356.5625 497.6875 C 357.08916 497.6189 357.62364 497.58299 358.15625 497.5625 z M 352.84375 499.28125 L 353.15625 522.40625 L 352.9375 549.5625 C 347.29328 541.67389 342.35452 533.31261 336.875 525.3125 C 338.3676 521.32761 341.11049 517.97687 343.15625 514.28125 L 352.84375 499.28125 z M 355.03125 499.375 L 357.03125 502.375 C 361.7411 509.83825 366.59115 517.21185 371.28125 524.6875 C 366.04493 532.89416 360.84457 541.12404 355.53125 549.28125 C 354.80604 545.2473 355.26661 541.13397 355.125 537.0625 C 355.29576 524.50146 355.13525 511.93594 355.03125 499.375 z M 428.21875 499.40625 L 428.09375 549.3125 C 422.53268 541.1452 417.03383 532.93479 411.6875 524.625 C 416.89312 516.02282 422.61445 507.74984 428.21875 499.40625 z M 317.28125 499.5 C 323.06498 507.68837 328.44479 516.14965 333.84375 524.59375 C 333.07922 527.05449 331.22826 528.96708 330.09375 531.25 L 317.53125 550.03125 C 317.35855 533.22932 317.20234 516.42724 317.0625 499.625 C 317.113 499.5663 317.18888 499.47557 317.28125 499.5 z M 390.3125 499.59375 L 390.34375 505.75 C 390.11119 519.34277 390.26375 532.93848 390.03125 546.53125 C 390.35598 547.3246 389.5659 548.88624 388.65625 548.0625 C 387.31608 546.14318 386.35076 543.99873 385.03125 542.0625 C 381.67177 536.54424 377.9296 531.26626 374.46875 525.8125 C 374.25865 523.27299 376.39225 521.44472 377.34375 519.28125 C 381.52249 512.62491 385.92979 506.11638 390.3125 499.59375 z M 392.65625 499.875 L 392.78125 500 C 398.08296 507.91898 403.12087 516.00936 408.3125 524 C 408.1656 525.84176 406.53317 527.04612 405.875 528.6875 C 401.58141 535.393 397.189 542.03601 392.8125 548.6875 C 391.66855 547.13441 392.46541 545.09987 392.125 543.34375 C 392.47364 528.85366 392.50996 514.36797 392.65625 499.875 z M 410.0625 526.625 L 414.4375 533.125 L 427.78125 553.1875 C 416.20838 553.29585 404.63532 553.01826 393.0625 553.1875 C 393.71821 549.77248 396.42094 547.31274 397.96875 544.3125 L 410.0625 526.625 z M 144.53125 526.96875 C 144.56815 526.95975 144.61515 526.95725 144.65625 526.96875 C 145.42077 527.38086 145.59655 528.41009 146.25 528.96875 C 150.41539 534.98985 154.25225 541.23199 158.375 547.28125 L 162.5625 553.8125 C 151.66774 554.55832 140.7494 553.96322 129.84375 553.9375 C 128.68821 554.46508 127.8962 552.65367 128.8125 551.9375 C 133.7644 543.55804 139.00889 535.35634 144.25 527.15625 C 144.3355 527.09195 144.4206 526.99491 144.53125 526.96875 z M 335.21875 527.125 L 336.34375 528.625 C 341.81769 536.3429 346.7458 544.42633 351.96875 552.3125 C 351.82788 553.70837 350.07242 553.38537 349.09375 553.34375 C 339.09351 553.61166 329.09567 553.77898 319.09375 553.96875 C 317.98624 553.30594 318.96625 551.98387 319.46875 551.25 L 335.21875 527.125 z M 372.34375 527.1875 L 372.5 527.21875 C 375.33163 530.51703 377.25054 534.44997 379.78125 537.96875 L 388.84375 551.875 C 388.44951 553.18918 386.78336 552.60432 385.78125 552.84375 C 376.0816 553.43048 366.36256 553.15834 356.65625 553.53125 C 355.50436 552.97718 355.91788 551.28845 356.8125 550.6875 L 372.34375 527.1875 z M 394.6875 555.0625 C 405.22792 555.29595 415.77035 555.4094 426.3125 555.53125 C 421.67362 563.33889 416.6511 570.90823 411.71875 578.53125 C 411.82185 579.76012 409.63557 580.16316 409.40625 578.90625 C 404.447 571.48323 399.52771 564.03326 394.5 556.65625 C 393.80219 556.38926 393.7462 554.95859 394.6875 555.0625 z M 388.15625 555.125 L 386.9375 557.25 C 382.37903 564.85658 377.30847 572.14343 372.75 579.75 C 370.22476 578.00582 369.49905 574.77706 367.59375 572.5 C 363.90692 566.94119 360.26046 561.37377 356.625 555.78125 C 361.78164 555.02984 367.00397 555.68835 372.1875 555.40625 C 377.51134 555.34085 382.83478 555.31145 388.15625 555.125 z M 350.28125 555.53125 L 350.34375 555.53125 C 350.39985 558.1888 347.94966 559.86941 347 562.15625 C 342.97494 568.16375 338.98162 574.19313 335.03125 580.25 C 329.86375 573.59359 325.65436 566.27107 320.875 559.34375 C 320.61114 558.41863 319.3923 557.91882 319.53125 556.84375 C 323.65115 555.3616 328.09013 556.49621 332.34375 556.09375 C 338.29733 555.96816 344.23855 555.87438 350.1875 555.59375 L 350.28125 555.53125 z M 129.375 555.75 C 129.4306 555.744 129.49871 555.7359 129.5625 555.75 L 161 556.125 C 156.45637 564.72966 150.71482 572.61927 145.84375 581.03125 C 143.46484 579.88431 142.87116 577.02799 141.15625 575.21875 C 137.04138 569.04878 133.0317 562.80875 128.9375 556.625 C 128.81218 556.26423 128.9857 555.79039 129.375 555.75 z M 392.15625 557.15625 L 392.21875 557.1875 C 397.78059 565.39258 403.24161 573.66531 408.75 581.90625 C 408.746 584.444 406.43893 586.07146 405.5625 588.28125 L 392.59375 608.21875 C 392.49205 591.2077 392.32585 574.19728 392.09375 557.1875 L 392.15625 557.15625 z M 354.84375 557.375 L 356.03125 559.125 L 370.8125 582.25 C 365.40021 590.54092 360.0524 598.87449 354.53125 607.09375 L 354.84375 557.375 z M 352.53125 557.5 L 352.59375 557.9375 C 352.27094 574.01932 351.84601 590.10124 351.875 606.1875 C 348.14987 602.45344 345.98849 597.53166 342.90625 593.3125 L 336.125 582.6875 L 352.53125 557.5 z M 428.03125 557.5 L 428.34375 582.65625 L 428.53125 608.25 L 411.65625 582.5 L 428.03125 557.5 z M 162.78125 557.6875 L 162.84375 557.71875 C 163.27593 569.89376 163.26228 582.07052 163.4375 594.25 C 163.5206 598.59118 163.57037 602.93963 163.625 607.28125 C 162.64202 607.99122 161.5436 606.81275 161.34375 605.875 C 156.76455 598.58836 151.87673 591.50435 146.96875 584.4375 C 146.88725 581.59843 148.94006 579.377 150.28125 577.0625 C 152.94665 572.62433 155.88548 568.3459 158.65625 563.96875 C 160.04601 561.894 161.32446 559.6758 162.78125 557.6875 z M 389.65625 557.78125 C 389.68945 557.78146 389.7188 557.7903 389.75 557.8125 C 390.03743 558.83958 389.67705 559.98486 389.84375 561.0625 C 390.08877 576.15127 390.11485 591.25477 390.34375 606.34375 C 388.97524 606.71338 388.55643 604.95497 387.96875 604.09375 C 383.25053 597.01374 378.54817 589.92232 373.875 582.8125 C 378.34758 574.09464 384.20358 566.2044 389.375 557.90625 C 389.4496 557.85955 389.55654 557.78063 389.65625 557.78125 z M 315.03125 557.96875 L 315.125 560.0625 L 314.03125 606.53125 L 298.5 583.375 L 315.03125 557.96875 z M 317.3125 558.1875 L 319.1875 561 C 323.84553 567.69489 327.93553 574.75702 332.375 581.59375 C 333.56577 582.57725 332.53799 584.19971 331.71875 585.0625 L 317.09375 606.375 L 317.3125 558.1875 z M 127.46875 558.375 L 129.625 561.46875 C 134.49407 568.53117 139.17532 575.71999 143.90625 582.875 C 141.9578 588.42025 137.61714 592.62049 134.75 597.65625 L 128.5 606.875 C 126.82771 603.81915 127.94378 600.25572 127.625 596.96875 C 127.7153 584.10063 127.617 571.24226 127.46875 558.375 z M 165.03125 558.875 L 165.125 558.875 C 170.77313 566.48573 175.62545 574.63834 180.90625 582.5 C 181.38703 584.07079 179.84203 585.252 179.3125 586.59375 C 175.21761 593.40442 170.47984 599.7983 166.3125 606.5625 C 165.25769 607.12423 164.50863 605.52704 164.9375 604.6875 C 165.13139 595.1413 164.87445 585.60927 164.90625 576.0625 C 164.88755 570.3587 164.95235 564.64126 164.96875 558.9375 L 165.03125 558.875 z M 372.1875 584.65625 L 372.3125 584.6875 L 390.0625 611.65625 C 378.45763 611.56385 366.85069 611.50391 355.25 611.15625 C 360.75637 602.2649 366.47075 593.50506 372.09375 584.6875 L 372.1875 584.65625 z M 410.40625 584.90625 L 410.5625 584.90625 C 416.54455 593.61677 422.17891 602.5576 428 611.375 C 427.10878 612.55467 425.54325 611.59853 424.34375 611.84375 C 413.87351 611.90405 403.4078 611.86145 392.9375 611.84375 C 398.61288 602.82456 404.28027 593.7974 410.25 584.96875 L 410.40625 584.90625 z M 334.59375 584.96875 L 338.6875 591.28125 L 351.3125 610.96875 L 317.6875 610.875 L 334.59375 584.96875 z M 182.40625 585.59375 C 184.18046 587.10887 185.19283 589.28341 186.625 591.09375 C 191.19035 597.58659 195.70231 604.11763 200.15625 610.6875 C 197.3439 612.32294 194.01497 611.17514 190.96875 611.5 C 182.48804 611.5267 174.012 611.53705 165.53125 611.53125 C 169.84711 602.67956 175.97259 594.92434 181.34375 586.71875 C 181.70187 586.39066 181.85464 585.62103 182.40625 585.59375 z M 145.09375 585.6875 L 145.25 585.6875 C 148.93509 590.03056 152.29632 594.63658 155.3125 599.46875 C 157.6632 603.03016 160.04667 606.57072 162.5 610.0625 C 162.4719 611.5209 160.64886 611.61351 159.5625 611.46875 C 153.65553 611.51095 147.751 611.6818 141.84375 611.625 L 128.46875 611.71875 C 128.59687 608.61088 131.21096 606.53062 132.5 603.90625 L 144.9375 585.75 L 145.09375 585.6875 z M 296.78125 585.96875 L 313.21875 610.96875 L 279.625 610.96875 L 296.78125 585.96875 z M 168.3125 612.96875 C 178.17627 613.12418 188.04163 613.04325 197.90625 613.09375 C 199.06985 613.96533 198.02977 615.49847 197.40625 616.375 L 183.46875 638.03125 C 181.4754 638.00095 181.12485 635.66332 180.09375 634.40625 C 175.36001 627.74417 171.10076 620.76259 166.5625 613.96875 C 166.6515 613.12859 167.6196 612.93129 168.3125 612.96875 z M 160.46875 613.125 C 161.48526 613.70761 160.43795 614.90456 160.03125 615.5625 C 157.93981 618.96782 155.98111 622.45283 153.71875 625.75 C 151.16039 629.80077 148.46778 633.76754 146 637.875 C 145.0054 638.59041 143.97971 637.48661 143.625 636.59375 C 140.67757 632.23783 138.16202 627.61995 135.09375 623.34375 L 128.84375 613.875 C 138.37713 613.32394 147.92684 613.46119 157.46875 613.21875 C 158.46582 613.20655 159.47634 613.07154 160.46875 613.125 z M 204.96875 613.3125 L 236.90625 613.9375 C 232.18782 622.23269 226.76705 630.09303 221.4375 638 C 220.33365 638.52697 219.94767 636.9265 219.5 636.25 L 204.34375 613.9375 C 204.30025 613.62097 204.65309 613.26894 204.96875 613.3125 z M 350.1875 613.65625 L 348.4375 616.625 L 334.75 638.09375 C 329.53409 630.2438 324.38775 622.34788 319.3125 614.40625 C 325.11871 613.19926 331.04533 614.37535 336.90625 613.9375 L 350.1875 613.65625 z M 361.03125 613.8125 C 362.60408 613.8075 364.17682 613.82455 365.75 613.84375 C 373.41665 613.91845 381.08297 614.03429 388.75 614.0625 C 383.31639 622.28779 377.92065 630.53785 372.5625 638.8125 L 356.3125 613.875 C 357.88551 613.8453 359.45842 613.8177 361.03125 613.8125 z M 274.0625 613.875 L 274.0625 614.03125 C 269.51132 621.44753 264.57916 628.62086 259.96875 636 C 260.15584 637.2216 257.9781 637.70447 257.75 636.4375 C 253.07146 629.17535 248.26143 621.99947 243.46875 614.8125 C 243.8197 613.47807 245.41983 614.02637 246.40625 614 C 255.62412 614.23774 264.84596 614.11118 274.0625 613.875 z M 280.71875 613.90625 L 312 613.9375 L 296.46875 637.90625 L 280.71875 613.90625 z M 406.46875 614.03125 C 410.59376 614.01535 414.71882 614.00005 418.84375 614.03125 L 427.125 614.125 L 410.6875 639.4375 L 394.09375 614.0625 C 398.21877 614.0635 402.34374 614.04715 406.46875 614.03125 z "
         style="display:inline;fill:#000000;fill-opacity:1;stroke:none"
         id="path4444"
         d="m 360.79297,446.94922 c -0.68884,1.10344 1.65318,3.96521 0.97851,3.14648 3.45132,5.10485 6.91236,10.22001 10.14063,15.49414 a 0.66758084,0.66758084 0 0 1 -0.004,0.70508 l -16.21875,25.625 a 0.66758084,0.66758084 0 0 1 -1.23242,-0.3418 c -0.31529,-14.0619 -0.24829,-28.11979 -0.3125,-42.16796 a 0.66758084,0.66758084 0 0 1 0.14063,-0.41407 c 0.0626,-0.0804 0.0349,0.004 0.0195,-0.0293 -0.0154,-0.0329 -0.11228,-0.14229 -0.24024,-0.20313 -0.12524,-0.0595 -0.25395,-0.0596 -0.27734,-0.0547 -1.11343,11.8943 -0.20164,23.89154 -0.46289,35.92969 l 0.0937,6.88281 a 0.66758084,0.66758084 0 0 1 -1.22656,0.37305 l -16.5625,-25.4375 a 0.66758084,0.66758084 0 0 1 -0.041,-0.65625 c 1.55819,-3.18386 3.55178,-6.03921 5.41797,-8.92969 -2.01799,1.85775 -3.84206,3.89794 -4.95898,6.37305 a 0.66758084,0.66758084 0 0 1 -0.1504,0.20898 c -0.32082,0.30406 -0.71848,0.41196 -1.04492,0.44922 -0.32643,0.0373 -0.61464,0.0195 -0.83984,0.0234 -0.2252,0.004 -0.37127,0.0353 -0.41016,0.0547 -0.0352,0.0175 -0.0397,0.0164 -0.0703,0.13476 0.28856,1.59057 -0.0649,3.08447 -0.71875,4.40039 -0.69632,1.40144 -1.66488,2.65392 -2.44922,3.79883 -4.305,6.41781 -8.55164,12.8754 -12.70703,19.38867 a 0.66758084,0.66758084 0 0 1 -1.04102,0.10547 c -0.0576,-0.0592 -0.0588,-0.0497 -0.10742,-0.0469 -0.0486,0.003 -0.14461,0.0365 -0.23047,0.10742 -0.0859,0.0709 -0.15189,0.17168 -0.17382,0.24414 -0.0219,0.0725 -0.0197,0.0997 0.0117,0.15625 a 0.66758084,0.66758084 0 0 1 0.0215,0.60547 c -1.40594,3.02045 -2.73981,6.0715 -4.10938,9.10742 0.79752,-1.22286 1.57203,-2.45524 2.38868,-3.66797 a 0.66758084,0.66758084 0 0 1 1.2207,0.3711 l 0.15625,51.5625 a 0.66758084,0.66758084 0 0 1 -1.21875,0.37695 c -4.80716,-7.05218 -9.42305,-14.22212 -14.06641,-21.36719 -0.0874,0.46483 -0.0799,0.94879 0.0605,1.46485 0.24672,0.9068 0.81267,1.84278 1.41406,2.57031 a 0.66758084,0.66758084 0 0 1 0.043,0.0586 c 4.41176,6.67364 8.86999,13.32455 13.19336,20.07032 a 0.66758084,0.66758084 0 0 1 -0.53516,1.02539 c -8.80853,0.36376 -17.60385,0.21816 -26.37109,0.4375 -0.0501,0.0256 -0.0875,0.0419 -0.10352,0.10351 -0.0216,0.0831 -0.0132,0.252 0.0547,0.41016 0.0679,0.15815 0.18845,0.28844 0.27149,0.33594 0.083,0.0475 0.0942,0.0609 0.21093,0.006 a 0.66758084,0.66758084 0 0 1 0.26758,-0.0644 c 8.13769,-0.20741 16.26843,-0.15102 24.38672,-0.21875 a 0.66758084,0.66758084 0 0 1 0.56055,1.03906 l -16.5,24.75 a 0.66758084,0.66758084 0 0 1 -1.08985,0.0274 c -4.23506,-5.68165 -7.83887,-11.75136 -11.76757,-17.55469 a 0.66758084,0.66758084 0 0 1 -0.0957,-0.53125 c -0.0252,-0.0184 -0.11222,-0.0654 -0.21875,-0.0742 -0.099,-0.008 -0.16504,0.0198 -0.18945,0.0293 a 0.66758084,0.66758084 0 0 1 -0.008,0.20508 c -0.23831,1.20639 0.13278,2.24423 0.77539,3.33398 0.6426,1.08975 1.55581,2.17054 2.24219,3.35938 l -0.0195,-0.0332 8.5625,13.03125 a 0.66758084,0.66758084 0 0 1 -0.008,0.7461 l -15.9375,23.15625 a 0.66758084,0.66758084 0 0 1 -1.21875,-0.38868 c 0.17564,-11.234 0.008,-22.49439 0.12305,-33.75195 -0.01,0.0182 -0.0286,0.0332 -0.0371,0.0508 -0.0752,0.15572 -0.056,0.28955 -0.0801,0.18555 a 0.66758084,0.66758084 0 0 1 -0.0371,0.41211 c -1.88855,4.42823 -1.04711,9.47237 -1.19531,14.47656 0.0691,6.21084 -0.0547,12.42075 -0.125,18.61328 a 0.66758084,0.66758084 0 0 1 -1.16992,0.43164 c -4.32766,-4.95537 -7.47225,-10.68563 -11.3418,-15.78515 a 0.66758084,0.66758084 0 0 1 -0.12695,-0.50977 c 0.022,-0.13626 0.003,-0.14946 -0.0703,-0.21875 -0.0733,-0.0693 -0.23815,-0.14675 -0.40234,-0.16211 -0.16419,-0.0154 -0.30488,0.0322 -0.34766,0.0645 -0.0428,0.0322 -0.0641,0.009 -0.0449,0.19726 a 0.66758084,0.66758084 0 0 1 0.002,0.12305 c -0.0695,0.85556 0.29352,1.56016 0.85351,2.35547 0.56,0.7953 1.30828,1.61887 1.75195,2.67578 l -0.0586,-0.10938 10.03125,15.1875 a 0.66758084,0.66758084 0 0 1 -0.54492,1.03516 l -33.78125,0.59375 a 0.66758084,0.66758084 0 0 1 -0.57617,-1.02539 c 2.7563,-4.34547 5.62105,-8.61854 8.50781,-12.87305 -1.96301,0.98131 -3.40842,3.02787 -4.4043,5.11133 a 0.66758084,0.66758084 0 0 1 -0.0605,0.10352 l -3.28125,4.5625 A 0.66758084,0.66758084 0 0 1 240.87109,608 c -0.374,-2.6134 -0.18531,-5.15938 -0.5,-7.57812 -0.4111,-0.0564 -0.91467,0.37815 -0.73437,0.76367 a 0.66758084,0.66758084 0 0 1 0.0606,0.33398 c -0.15475,2.0549 0.34632,4.26901 -0.006,6.61133 a 0.66758084,0.66758084 0 0 1 -1.10938,0.39453 c -2.68858,-2.44815 -3.92854,-5.81584 -6.41211,-7.80273 -0.006,0.006 -0.0172,0.003 -0.0234,0.01 -0.0584,0.0657 -0.1169,0.19177 -0.13476,0.33985 -0.0357,0.29615 0.0815,0.55384 0.25195,0.62695 a 0.66758084,0.66758084 0 0 1 0.27149,0.21484 c 2.23528,3.00859 4.22734,6.16021 6.27148,9.24805 a 0.66758084,0.66758084 0 0 1 -0.54883,1.03711 c -11.28214,0.13453 -22.57508,0.15867 -33.85156,0.15625 a 0.66758084,0.66758084 0 0 1 -0.14258,-0.0156 c -0.44002,-0.0965 -0.82141,-0.36068 -1.03711,-0.70117 -0.2157,-0.34048 -0.27828,-0.72239 -0.26172,-1.07812 0.0331,-0.71148 0.33904,-1.38401 0.90039,-1.83203 l -0.13281,0.14062 c 3.28338,-4.72039 6.64638,-9.36656 9.73828,-14.17578 -0.008,-0.0101 0.002,-0.0376 -0.0156,-0.0547 -0.0473,-0.0445 -0.17488,-0.1074 -0.32031,-0.12109 -0.14544,-0.0137 -0.29132,0.0224 -0.35743,0.0625 -0.0661,0.0401 -0.0719,0.0352 -0.0801,0.13281 a 0.66758084,0.66758084 0 0 1 -0.11524,0.32031 c -2.99286,4.36191 -5.98289,8.72706 -8.96875,13.09375 a 0.66758084,0.66758084 0 0 1 -1.20898,-0.26367 c -1.25575,-7.24071 0.1941,-14.44436 -0.66016,-21.40625 a 0.66758084,0.66758084 0 0 1 -0.004,-0.0391 c -0.033,-0.51003 0.0291,-1.04194 -0.0195,-1.38086 -0.0196,-0.13702 -0.0484,-0.18813 -0.0684,-0.22461 -0.0344,0.038 -0.11081,0.0717 -0.13086,0.12109 -0.0437,0.10768 -0.067,0.29888 -0.0469,0.55469 0.0403,0.51162 0.27238,1.19604 0.18945,1.95899 l 0.004,-0.0879 c 0.17055,6.85997 0.012,13.71888 -0.0312,20.55078 a 0.66758084,0.66758084 0 0 1 -1.0918,0.51172 c -3.4845,-2.85641 -5.05781,-7.05724 -7.67969,-10.14649 a 0.66758084,0.66758084 0 0 1 -0.0391,-0.0527 l -9.5,-13.78125 a 0.66758084,0.66758084 0 0 1 -0.10156,-0.5293 c 0.95668,-4.14625 4.05131,-7.04005 5.70898,-10.39453 a 0.66758084,0.66758084 0 0 1 0.0137,-0.0293 c 0.65127,-1.17477 1.49071,-2.06088 1.80664,-2.94726 -0.0588,-0.009 -0.11242,-0.0236 -0.17579,-0.0117 -0.1014,0.019 -0.1757,0.0685 -0.19335,0.0879 -0.0177,0.0194 -0.0197,-0.0153 -0.008,0.0586 a 0.66758084,0.66758084 0 0 1 -0.0859,0.44922 c -2.22452,3.70363 -4.6031,7.29765 -6.95118,10.89648 a 0.66758084,0.66758084 0 0 1 -1.08007,0.0508 c -5.91331,-7.40324 -10.2038,-15.82118 -15.58594,-23.4043 l 0.27929,0.22461 c -0.43132,-0.18789 -0.72162,-0.5593 -0.85546,-0.9375 -0.13385,-0.3782 -0.14208,-0.77053 -0.0547,-1.14063 0.0874,-0.37009 0.2738,-0.73316 0.60937,-0.99609 0.33558,-0.26293 0.84123,-0.37221 1.3086,-0.24219 l -0.23828,-0.0215 c 4.23342,-0.3759 8.42578,-0.0522 12.55664,-0.0703 -0.007,-0.0462 -0.009,-0.0984 -0.0566,-0.17383 -0.0649,-0.10351 -0.16975,-0.18316 -0.21485,-0.20117 -0.0451,-0.018 0.007,-0.0263 -0.0332,0.002 a 0.66758084,0.66758084 0 0 1 -0.44531,0.11523 c -4.08665,-0.39114 -8.25433,-0.094 -12.47266,-0.24609 -0.312,0.15821 -0.65651,0.23926 -0.95312,0.16015 -0.4106,-0.1095 -0.71743,-0.3637 -0.94532,-0.66601 -0.22789,-0.30231 -0.38715,-0.66915 -0.37695,-1.0957 0.0102,-0.42656 0.27383,-0.9097 0.70898,-1.15039 l -0.25195,0.24414 c 1.77847,-3.01241 3.70151,-5.89815 5.35742,-8.90821 -0.006,-0.005 0.005,-0.023 -0.0117,-0.0371 -0.0469,-0.0404 -0.18028,-0.0998 -0.32421,-0.10742 -0.14394,-0.008 -0.27977,0.0362 -0.32813,0.0703 -0.0484,0.0341 -0.0482,0.005 -0.0449,0.11524 a 0.66758084,0.66758084 0 0 1 -0.0742,0.32226 c -1.06248,2.08268 -2.34772,4.00378 -3.59766,5.90821 a 0.66758084,0.66758084 0 0 1 -1.16406,-0.0859 c -1.69082,-3.63787 -0.56324,-7.516 -0.8418,-10.88281 a 0.66758084,0.66758084 0 0 1 0,-0.10938 c 0.0552,-0.67708 -0.15657,-1.40892 -0.36718,-2.15625 -0.0707,0.0397 -0.15029,0.0946 -0.22071,0.20117 -0.16889,0.25557 -0.18915,0.61946 -0.0898,0.77539 a 0.66758084,0.66758084 0 0 1 0.10547,0.34766 c 0.0687,4.17866 0.12064,8.35808 0.15625,12.53711 a 0.66758084,0.66758084 0 0 1 -1.19727,0.41211 c -6.11246,-7.94481 -10.85284,-16.75041 -16.48828,-24.86914 l 0.0859,0.0996 c -0.4431,-0.42796 -0.5886,-1.00604 -0.58398,-1.46289 0.004,-0.37881 0.0692,-0.66907 0.10937,-0.92969 -0.09,-0.31185 -0.28548,-0.47749 -0.73437,-0.69141 -0.47105,-0.22447 -1.12307,-0.40784 -1.69336,-0.88281 l 0.11132,0.0742 c -0.16835,-0.0909 -0.37123,-0.18484 -0.58984,-0.30273 0.20331,0.52733 0.45718,1.07599 0.62891,1.74609 0.21901,0.85458 0.20351,1.90809 -0.52344,2.77344 l 0.0586,-0.084 c -4.69026,7.73317 -9.63558,15.29358 -14.41015,22.94532 a 0.66758084,0.66758084 0 0 1 -1.18946,-0.11133 c -1.26895,-3.26967 -0.1976,-6.60907 -0.66015,-9.48047 a 0.66758084,0.66758084 0 0 1 -0.01,-0.0801 c -0.28133,-7.53891 -0.25564,-15.06358 -0.21484,-22.58984 -0.0446,-0.0221 -0.0861,-0.076 -0.14453,-0.0781 -0.11598,-0.004 -0.28671,0.0427 -0.44336,0.14844 -0.31332,0.2115 -0.4705,0.53661 -0.375,0.78516 a 0.66758084,0.66758084 0 0 1 0.0449,0.23437 c 0.18268,20.64376 0.44455,41.29039 0.625,61.9375 0.14656,19.83638 -0.066,39.66724 -0.24414,59.49414 h 0.66797 c 0.0444,-7.85781 0.12626,-15.72832 0.33398,-23.56836 a 0.66758084,0.66758084 0 0 1 1.14063,-0.45508 l 0.0312,0.0312 a 0.66758084,0.66758084 0 0 1 0.084,0.10547 c 5.22181,7.91674 10.37033,15.87935 15.50391,23.84961 a 0.66758084,0.66758084 0 0 1 0.0215,0.0371 h 2.63867 c 4.92903,-8.63411 10.60726,-16.77016 15.8711,-25.125 a 0.66758084,0.66758084 0 0 1 0.19336,-0.19922 l 0.0937,-0.0625 a 0.66758084,0.66758084 0 0 1 0.37109,-0.11328 h 0.0625 a 0.66758084,0.66758084 0 0 1 0.66602,0.61914 c 0.46463,6.37789 0.21664,12.75303 0.3457,19.06641 a 0.66758084,0.66758084 0 0 1 0,0.0117 c 0.006,1.94561 -0.0164,3.86995 -0.0273,5.80273 h 0.47266 V 615.375 a 0.66758084,0.66758084 0 0 1 0.19531,-0.47266 l 0.0312,-0.0312 a 0.66758084,0.66758084 0 0 1 0.47266,-0.19531 h 0.0312 a 0.66758084,0.66758084 0 0 1 0.53516,0.26953 c 5.86162,7.88827 10.68558,16.42304 15.95898,24.60547 h 2.53516 c 4.72344,-8.45929 10.17051,-16.45777 15.41015,-24.53906 a 0.66758084,0.66758084 0 0 1 0.39844,-0.28516 l 0.125,-0.0312 a 0.66758084,0.66758084 0 0 1 0.5625,0.11524 l 0.125,0.0937 a 0.66758084,0.66758084 0 0 1 0.24805,0.3789 c 0.97668,4.0949 0.2444,8.20628 0.60937,12.06055 a 0.66758084,0.66758084 0 0 1 0.004,0.0566 c 0.0318,4.05289 0.0405,8.10109 0.0586,12.15039 h 0.63086 l -0.21289,-24.16992 a 0.66758084,0.66758084 0 0 1 0.29688,-0.56055 l 0.0937,-0.0625 a 0.66758084,0.66758084 0 0 1 0.37109,-0.11328 h 0.0625 a 0.66758084,0.66758084 0 0 1 0.54687,0.28516 c 5.44412,7.75473 10.38506,15.81176 15.54297,23.70508 l -0.0957,-0.11524 c 0.29487,0.28383 0.38882,0.66872 0.53125,1.03125 h 2.71094 l 16.30273,-24.42187 a 0.66758084,0.66758084 0 0 1 1.22266,0.37304 l -0.0918,24.04883 h 1.00977 l 0.12109,-23.36719 a 0.66758084,0.66758084 0 0 1 1.21094,-0.38281 l 2.78125,3.90625 a 0.66758084,0.66758084 0 0 1 0.0137,0.0176 c 4.34287,6.5252 8.70624,13.05532 12.71094,19.82617 h 2.56055 l 15.55273,-23.57422 a 0.66758084,0.66758084 0 0 1 1.22461,0.36328 l 0.12109,23.21094 h 1.48242 l 0.0293,-22.86328 a 0.66758084,0.66758084 0 0 1 1.22656,-0.36328 l 15.11524,23.22656 h 3.40234 l 15.30274,-23.47851 a 0.66758084,0.66758084 0 0 1 1.22656,0.36132 l 0.15234,23.11719 h 1.60742 l 0.0605,-22.77148 a 0.66758084,0.66758084 0 0 1 1.22656,-0.36133 l 15.05274,23.13281 h 3.55078 l 15.08594,-23.9375 a 0.66758084,0.66758084 0 0 1 1.23242,0.34766 l 0.15625,12.0625 a 0.66758084,0.66758084 0 0 1 0,0.006 c 0.0122,3.83558 0.0491,7.68262 0.0879,11.52148 h 1.13281 l -0.18164,-23.51367 a 0.66758084,0.66758084 0 0 1 1.22656,-0.37305 l 15.70703,23.88672 h 3.55469 l 15.39844,-24.1914 a 0.66758084,0.66758084 0 0 1 1.23047,0.35546 l 0.0625,12.6875 0.0586,11.14844 h 0.85157 l -0.1211,-23.98437 a 0.66758084,0.66758084 0 0 1 1.22656,-0.3711 l 8.5,12.9375 a 0.66758084,0.66758084 0 0 1 0.002,0.004 l 7.39648,11.41406 h 0.97656 l -16.42968,-25.12305 a 0.66758084,0.66758084 0 0 1 0.55859,-1.0332 c 4.12315,10e-4 8.24799,-0.0154 12.37305,-0.0312 4.12507,-0.0159 8.25286,-0.0312 12.38281,0 a 0.66758084,0.66758084 0 0 1 0.002,0 l 8.28125,0.0937 a 0.66758084,0.66758084 0 0 1 0.55274,1.03125 l -16.27539,25.0625 h 1.00781 l 15.58398,-24.03906 a 0.66758084,0.66758084 0 0 1 1.22852,0.36328 v 23.67578 h 0.82031 l -0.0312,-156.07422 c -0.35882,-0.36257 -0.68232,-0.70513 -0.95312,-0.99804 l -0.0547,8.49414 a 0.66758084,0.66758084 0 0 1 -1.22852,0.35937 l -16.0957,-24.90625 c -0.81898,-0.61645 -1.60157,-1.25614 -2.38477,-1.86914 l 0.57227,0.89844 a 0.66758084,0.66758084 0 0 1 0,0.71875 l -16.46875,25.65625 a 0.66758084,0.66758084 0 0 1 -1.23047,-0.35742 c -0.0564,-12.63889 -0.0877,-25.2807 0.0312,-37.92383 -0.0239,-0.10393 -0.0484,-0.13748 -0.14062,-0.18164 -0.10006,-0.0479 -0.28432,-0.0741 -0.45899,-0.041 -0.17466,0.0331 -0.32443,0.12256 -0.38476,0.19141 -0.0603,0.0688 -0.0793,0.081 -0.043,0.22851 a 0.66758084,0.66758084 0 0 1 0.0195,0.16407 l -0.25,37.4375 a 0.66758084,0.66758084 0 0 1 -1.23047,0.35546 l -16.15625,-25.375 a 0.66758084,0.66758084 0 0 1 -0.002,-0.71679 l 10.23633,-16.13672 c -0.26573,-0.0627 -0.5511,-0.0596 -0.84766,0.0606 -0.49458,0.20042 -0.88009,0.63066 -0.94336,1.08789 a 0.66758084,0.66758084 0 0 1 -0.10352,0.27148 l -8.4375,12.96875 a 0.66758084,0.66758084 0 0 1 -1.0957,0.0332 c -4.04258,-5.46869 -7.53856,-11.26956 -11.33398,-16.82617 -0.10584,-0.0617 -0.17861,-0.0963 -0.24219,-0.12109 z m -7.00586,1.75976 c -0.034,-0.0196 -0.0142,-0.11808 0,0 z m -18.98047,18.4043 a 0.66758084,0.66758084 0 0 1 0.53711,0.3086 l 17.53125,27.4375 a 0.66758084,0.66758084 0 0 1 -0.54688,1.02734 c -11.23868,0.2732 -22.44879,-0.22197 -33.63281,-0.0937 a 0.66758084,0.66758084 0 0 1 -0.46093,-0.17774 c -0.37633,-0.34658 -0.60082,-0.79269 -0.65626,-1.23242 -0.0554,-0.43973 0.0367,-0.85163 0.17774,-1.21875 0.27929,-0.7268 0.75634,-1.33558 1.05664,-1.77344 l 0.0117,-0.0176 c 5.09668,-8.00717 10.20985,-16.00516 15.39844,-23.95703 a 0.66758084,0.66758084 0 0 1 0.58398,-0.30274 z m 75.90039,0.1875 a 0.66758084,0.66758084 0 0 1 0.54102,0.30664 l 17.40625,26.96875 a 0.66758084,0.66758084 0 0 1 -0.55469,1.0293 l -34.9375,0.28125 a 0.66758084,0.66758084 0 0 1 -0.56641,-1.0293 l 17.53125,-27.25 a 0.66758084,0.66758084 0 0 1 0.58008,-0.30664 z m -38.06836,0.5 c 0.26656,-0.0305 0.84809,0.54106 0.70313,0.30469 5.66965,8.75712 11.42786,17.46835 16.97461,26.32226 a 0.66758084,0.66758084 0 0 1 -0.49414,1.01758 c -7.60908,0.8393 -15.20028,0.0212 -22.6543,0.50196 a 0.66758084,0.66758084 0 0 1 -0.0254,0.002 c -3.81866,0.10157 -7.61771,0.0939 -11.42383,0.0937 a 0.66758084,0.66758084 0 0 1 -0.57617,-1.00391 c 5.31847,-9.14298 11.13668,-17.95984 16.82617,-26.83594 a 0.66758084,0.66758084 0 0 1 0.16211,-0.17382 l 0.125,-0.0937 a 0.66758084,0.66758084 0 0 1 0.38281,-0.13477 z m -53.37109,28.65625 c 10.6216,0.26767 21.25629,0.254 31.89844,0.40625 a 0.66758084,0.66758084 0 0 1 0.56054,1.01563 c -5.18237,8.46828 -10.47591,16.86728 -15.82031,25.23047 a 0.66758084,0.66758084 0 0 1 -1.11719,0.0117 c -5.59013,-8.33053 -10.99158,-16.77335 -16.5625,-25.09375 a 0.66758084,0.66758084 0 0 1 -0.0976,-0.23242 c -0.0722,-0.33839 0.006,-0.6969 0.23242,-0.96484 0.22616,-0.26794 0.6192,-0.41913 0.98633,-0.36524 z m 107.41406,0.1875 a 0.66758084,0.66758084 0 0 1 0.5625,1.03516 l -16.46875,25 a 0.66758084,0.66758084 0 0 1 -1.10547,0.0137 c -5.37325,-7.73306 -10.21423,-15.78897 -15.32226,-23.64258 a 0.66758084,0.66758084 0 0 1 -0.0117,-0.71094 c 0.59254,-0.97076 1.62892,-1.26005 2.51367,-1.30273 0.88474,-0.0427 1.73598,0.0704 2.30664,-0.01 a 0.66758084,0.66758084 0 0 1 0.0762,-0.008 c 9.15529,-0.24456 18.30368,-0.28615 27.44922,-0.375 z m -68.55078,0.25 c -2.14164,0.025 0.78205,-0.049 1.61914,0 l 28.9375,0.0312 a 0.66758084,0.66758084 0 0 1 0.56641,1.02149 c -4.88654,7.84853 -9.92028,15.59704 -14.91993,23.36132 -0.0506,0.355 -0.18726,0.68967 -0.42578,0.89844 -0.31975,0.27988 -0.70535,0.40174 -1.08984,0.42383 -0.38449,0.0221 -0.78623,-0.0559 -1.13672,-0.30469 -0.26852,-0.1906 -0.4424,-0.52378 -0.52344,-0.88672 -4.94229,-7.85852 -10.0625,-15.6107 -15.15429,-23.38672 a 0.66758084,0.66758084 0 0 1 0.47265,-1.02734 c 0.55444,-0.0722 1.10889,-0.10988 1.6543,-0.13086 z m -5.26563,1.71875 a 0.66758084,0.66758084 0 0 1 0.64649,0.6582 l 0.3125,23.125 a 0.66758084,0.66758084 0 0 1 0,0.0156 l -0.21875,27.15625 a 0.66758084,0.66758084 0 0 1 -1.21094,0.38281 c -5.66688,-7.92028 -10.60765,-16.28623 -16.07031,-24.26172 a 0.66758084,0.66758084 0 0 1 -0.0742,-0.61133 c 1.54371,-4.12134 4.31615,-7.49708 6.32227,-11.12109 a 0.66758084,0.66758084 0 0 1 0.0234,-0.0371 l 9.6875,-15 a 0.66758084,0.66758084 0 0 1 0.58203,-0.30664 z m 2.14258,0.0957 a 0.66758084,0.66758084 0 0 1 0.57813,0.29493 l 2,3 a 0.66758084,0.66758084 0 0 1 0.01,0.0156 c 4.70537,7.45615 9.55677,14.82875 14.25196,22.3125 a 0.66758084,0.66758084 0 0 1 -0.004,0.71485 c -5.23527,8.20501 -10.43724,16.43725 -15.75391,24.5996 a 0.66758084,0.66758084 0 0 1 -1.21484,-0.24804 c -0.7479,-4.16017 -0.27865,-8.30689 -0.41797,-12.3125 a 0.66758084,0.66758084 0 0 1 0,-0.0332 c 0.1706,-12.5493 0.0103,-25.10893 -0.0937,-37.67187 a 0.66758084,0.66758084 0 0 1 0.64453,-0.67188 z m 73.17578,0.0312 a 0.66758084,0.66758084 0 0 1 0.70313,0.66797 l -0.125,49.90625 a 0.66758084,0.66758084 0 0 1 -1.21875,0.37305 c -5.56299,-8.17012 -11.06525,-16.38449 -16.41602,-24.70117 a 0.66758084,0.66758084 0 0 1 -0.01,-0.70703 c 5.21963,-8.62534 10.94594,-16.90752 16.54687,-25.2461 a 0.66758084,0.66758084 0 0 1 0.51953,-0.29297 z m -110.73242,0.11524 a 0.66758084,0.66758084 0 0 1 0.375,0.25976 c 5.79621,8.20605 11.18173,16.67599 16.58008,25.11915 a 0.66758084,0.66758084 0 0 1 0.0742,0.55664 c -0.82603,2.65867 -2.7172,4.59899 -3.78906,6.75586 a 0.66758084,0.66758084 0 0 1 -0.043,0.0742 l -12.5625,18.78125 a 0.66758084,0.66758084 0 0 1 -1.22266,-0.36328 c -0.1727,-16.80236 -0.32891,-33.60553 -0.46875,-50.4082 a 0.66758084,0.66758084 0 0 1 0.16211,-0.44141 c 0.0222,-0.0258 0.078,-0.1042 0.20508,-0.19726 0.1271,-0.0931 0.40211,-0.21272 0.68945,-0.13672 z m 72.82617,0.0723 a 0.66758084,0.66758084 0 0 1 0.70313,0.66211 l 0.0312,6.15625 a 0.66758084,0.66758084 0 0 1 0,0.0156 c -0.23235,13.58016 -0.0798,27.17588 -0.3125,40.78125 l -0.0508,-0.26367 c 0.29242,0.71442 0.10675,1.43205 -0.29492,2.00586 -0.20084,0.2869 -0.49229,0.55727 -0.91016,0.64843 -0.41787,0.0912 -0.89354,-0.0683 -1.23438,-0.37695 a 0.66758084,0.66758084 0 0 1 -0.0996,-0.11133 c -1.38765,-1.98731 -2.35325,-4.13592 -3.62891,-6.00781 a 0.66758084,0.66758084 0 0 1 -0.0195,-0.0273 c -3.3433,-5.49168 -7.08355,-10.76718 -10.55664,-16.24024 a 0.66758084,0.66758084 0 0 1 -0.10157,-0.30273 c -0.12144,-1.46791 0.44171,-2.71315 1.09571,-3.80469 0.65399,-1.09154 1.40436,-2.07393 1.83398,-3.05078 a 0.66758084,0.66758084 0 0 1 0.0469,-0.0859 c 4.18693,-6.66939 8.5967,-13.18378 12.97851,-19.70508 a 0.66758084,0.66758084 0 0 1 0.51953,-0.29297 z m 2.36719,0.2793 c 0.53403,0.1036 0.61472,0.28134 0.69141,0.42188 5.30988,7.93118 10.35014,16.02434 15.53711,24.00781 a 0.66758084,0.66758084 0 0 1 0.10547,0.41601 c -0.0881,1.10474 -0.61691,1.98228 -1.14454,2.7461 -0.52762,0.76381 -1.06072,1.44062 -1.33984,2.13672 a 0.66758084,0.66758084 0 0 1 -0.0566,0.11133 c -4.29711,6.711 -8.69046,13.35716 -13.06641,20.00781 a 0.66758084,0.66758084 0 0 1 -1.0957,0.0293 c -0.69841,-0.9482 -0.78978,-2.0314 -0.77539,-3.00195 0.0144,-0.97055 0.11127,-1.87608 -0.0312,-2.61133 a 0.66758084,0.66758084 0 0 1 -0.0117,-0.14258 c 0.34841,-14.4805 0.38493,-28.96264 0.53125,-43.45898 a 0.66758084,0.66758084 0 0 1 0.65625,-0.66211 z m 17.38867,26.75195 a 0.66758084,0.66758084 0 0 1 0.58399,0.29297 l 4.375,6.5 a 0.66758084,0.66758084 0 0 1 0.002,0.004 l 13.34375,20.0625 a 0.66758084,0.66758084 0 0 1 -0.55078,1.03711 c -11.58771,0.10849 -23.1592,-0.16899 -34.71484,0 a 0.66758084,0.66758084 0 0 1 -0.66602,-0.79297 c 0.70857,-3.6903 3.49795,-6.20567 4.96875,-9.05664 a 0.66758084,0.66758084 0 0 1 0.043,-0.0703 l 12.09375,-17.6875 a 0.66758084,0.66758084 0 0 1 0.52148,-0.28907 z m -265.66015,0.36133 c 1.29789,-0.19132 3.17567,2.9422 2.42578,2.26953 4.17908,6.04089 8.01601,12.28447 12.12695,18.31641 a 0.66758084,0.66758084 0 0 1 0.0117,0.0156 l 4.1875,6.53124 a 0.66758084,0.66758084 0 0 1 -0.51758,1.0254 c -10.94921,0.74954 -21.88321,0.15261 -32.76562,0.12695 l 0.27929,-0.0605 c -0.44637,0.2038 -0.95494,0.19258 -1.34375,0.006 -0.3888,-0.18672 -0.6595,-0.50687 -0.82812,-0.85937 -0.33725,-0.70501 -0.29369,-1.6956 0.45312,-2.2793 l -0.16406,0.18555 c 4.95986,-8.39294 10.20816,-16.60077 15.44922,-24.80078 a 0.66758084,0.66758084 0 0 1 0.16211,-0.17383 c -0.002,0.002 0.13419,-0.20818 0.52344,-0.30274 z m 190.87109,0.13672 c 0.84399,0.16365 2.23661,2.29538 1.64453,1.78125 5.49181,7.74309 10.42299,15.83282 15.63672,23.70508 a 0.66758084,0.66758084 0 0 1 0.10742,0.43555 c -0.0494,0.48932 -0.27855,0.92915 -0.60937,1.20312 -0.33082,0.27397 -0.7141,0.38993 -1.07617,0.44531 -0.72415,0.11076 -1.44979,8.4e-4 -1.88282,-0.0176 l 0.0469,0.002 c -10.00471,0.26803 -20.00494,0.43525 -30.00586,0.625 a 0.66758084,0.66758084 0 0 1 -0.35547,-0.0957 c -0.398,-0.2382 -0.68536,-0.61435 -0.7832,-1.01368 -0.0978,-0.39932 -0.0315,-0.77652 0.0781,-1.10351 0.21757,-0.64882 0.62199,-1.18471 0.86524,-1.53906 l 0.008,-0.0117 15.74219,-24.11328 a 0.66758084,0.66758084 0 0 1 0.58398,-0.30274 z m 37.05859,0.0644 c 0.46017,-0.0119 0.77355,0.30814 0.70313,0.26172 2.90538,3.38418 4.82997,7.3377 7.31641,10.79492 a 0.66758084,0.66758084 0 0 1 0.0176,0.0254 l 9.0625,13.90625 a 0.66758084,0.66758084 0 0 1 0.0801,0.55664 c -0.13966,0.46554 -0.44562,0.8454 -0.80469,1.05664 -0.35906,0.21123 -0.73606,0.27644 -1.08398,0.30468 -0.69583,0.0565 -1.35796,-0.007 -1.6582,0.0645 a 0.66758084,0.66758084 0 0 1 -0.11328,0.0176 c -9.7389,0.5891 -19.46385,0.31767 -29.14063,0.68945 a 0.66758084,0.66758084 0 0 1 -0.31445,-0.0664 c -0.8428,-0.40539 -1.15832,-1.32759 -1.0625,-2.08984 0.0958,-0.76226 0.48673,-1.47485 1.13476,-1.91016 l -0.18359,0.1875 15.53125,-23.5 a 0.66758084,0.66758084 0 0 1 0.51562,-0.29883 z m 22.40039,27.87305 c 10.53536,0.23334 21.07469,0.3469 31.61719,0.46875 a 0.66758084,0.66758084 0 0 1 0.56641,1.00977 c -4.65018,7.82666 -9.67787,15.40278 -14.60742,23.02148 l 0.10547,-0.41992 c 0.0425,0.5061 -0.17394,0.98162 -0.48438,1.28711 -0.31044,0.30549 -0.69809,0.47743 -1.09961,0.54687 -0.40152,0.0694 -0.82957,0.0387 -1.22461,-0.16211 -0.39504,-0.20081 -0.7341,-0.61643 -0.82617,-1.12109 l 0.10156,0.25195 c -4.96058,-7.42501 -9.8783,-14.87446 -14.90234,-22.24609 l 0.3125,0.24805 c -0.715,-0.27357 -0.97622,-0.96698 -0.94922,-1.58789 0.0135,-0.31046 0.10669,-0.64489 0.36328,-0.91797 0.2566,-0.27308 0.68333,-0.41923 1.08399,-0.375 z m -6.57031,0.0625 a 0.66758084,0.66758084 0 0 1 0.60157,1 l -1.21876,2.125 a 0.66758084,0.66758084 0 0 1 -0.006,0.0117 c -4.57404,7.63256 -9.6446,14.91941 -14.1875,22.5 a 0.66758084,0.66758084 0 0 1 -0.95118,0.20508 c -2.79299,-1.92912 -3.52952,-5.26823 -5.28906,-7.3711 a 0.66758084,0.66758084 0 0 1 -0.0449,-0.0586 c -3.68825,-5.56094 -7.33636,-11.13081 -10.97266,-16.72461 a 0.66758084,0.66758084 0 0 1 0.46485,-1.02344 c 5.27534,-0.7687 10.51814,-0.10314 15.62109,-0.38086 a 0.66758084,0.66758084 0 0 1 0.0293,-0.002 c 5.32685,-0.0654 10.64477,-0.0953 15.95312,-0.28125 z m -37.85156,0.40625 c 2.50695,-0.13758 -2.14572,7.42071 -0.68555,4.50195 -0.7196,1.02699 -2.54599,4.32145 -2.04101,3.16211 -4.02374,6.00553 -8.01619,12.03365 -11.96485,18.08789 a 0.66758084,0.66758084 0 0 1 -1.08593,0.0449 c -5.20524,-6.70502 -9.4192,-14.04037 -14.17774,-20.9375 a 0.66758084,0.66758084 0 0 1 -0.0937,-0.19532 c -0.0663,-0.23235 -0.3376,-0.53376 -0.6875,-0.94336 -0.3499,-0.40959 -0.77874,-1.02952 -0.67578,-1.82617 a 0.66758084,0.66758084 0 0 1 0.43555,-0.54297 c 4.36571,-1.57058 8.88342,-0.39788 12.97656,-0.78515 a 0.66758084,0.66758084 0 0 1 0.0488,-0.004 c 5.90047,-0.12447 11.78037,-0.22019 17.66015,-0.49414 a 0.66758084,0.66758084 0 0 1 0.29102,-0.0684 z m -220.71094,0.21875 31.4375,0.375 a 0.66758084,0.66758084 0 0 1 0.58203,0.98047 c -4.57338,8.661 -10.32018,16.55597 -15.16796,24.92773 a 0.66758084,0.66758084 0 0 1 -0.86719,0.26758 c -1.36515,-0.65817 -2.19211,-1.79437 -2.87305,-2.91211 -0.68094,-1.11773 -1.24651,-2.23772 -2.00976,-3.04297 a 0.66758084,0.66758084 0 0 1 -0.0703,-0.0879 c -4.11908,-6.17628 -8.12986,-12.41703 -12.2207,-18.5957 a 0.66758084,0.66758084 0 0 1 -0.0742,-0.15039 c -0.12372,-0.35616 -0.10207,-0.71962 0.0488,-1.05273 0.1509,-0.33312 0.50014,-0.65829 0.95117,-0.70508 0.0509,-0.006 0.18829,-0.0352 0.40039,0.0117 z m 50.72852,0.46289 c -0.0317,0.0153 -0.008,-0.007 0,0 z m 211.82226,0.94531 c 0.24699,0.035 1.21338,0.26679 0.65039,0.32227 5.5649,8.20959 11.02624,16.48385 16.53321,24.72266 a 0.66758084,0.66758084 0 0 1 0.11328,0.37304 c -0.002,1.47093 -0.67447,2.65105 -1.38477,3.68555 -0.7103,1.0345 -1.46469,1.96308 -1.84961,2.93359 a 0.66758084,0.66758084 0 0 1 -0.0625,0.11719 l -12.96875,19.9375 a 0.66758084,0.66758084 0 0 1 -1.22656,-0.35937 c -0.10169,-17.00937 -0.26792,-34.01734 -0.5,-51.02539 a 0.66758084,0.66758084 0 0 1 0.36914,-0.60743 l 0.0625,-0.0312 a 0.66758084,0.66758084 0 0 1 0.26367,-0.0684 z m -37.29101,0.2168 c 1.362,0.66423 1.30108,1.75344 1.76367,2.05859 l 14.78125,23.125 a 0.66758084,0.66758084 0 0 1 -0.004,0.72461 c -5.41039,8.28801 -10.7588,16.62456 -16.28515,24.85157 a 0.66758084,0.66758084 0 0 1 -1.22266,-0.37696 l 0.3125,-49.71875 a 0.66758084,0.66758084 0 0 1 0.6543,-0.66406 z m -2.34375,0.12695 c 0.88368,0.15712 0.83851,1.06661 0.77539,1.11719 -0.32287,16.08465 -0.74772,32.16067 -0.71875,48.23438 a 0.66758084,0.66758084 0 0 1 -1.14063,0.47265 c -3.84108,-3.85029 -6.01109,-8.81165 -9.03515,-12.95117 a 0.66758084,0.66758084 0 0 1 -0.0234,-0.0352 l -6.78125,-10.625 a 0.66758084,0.66758084 0 0 1 0.004,-0.72461 l 16.40625,-25.1875 a 0.66758084,0.66758084 0 0 1 0.51367,-0.30079 z m 75.50195,0 a 0.66758084,0.66758084 0 0 1 0.71094,0.65821 l 0.3125,25.15625 a 0.66758084,0.66758084 0 0 1 0,0.002 l 0.1875,25.59375 a 0.66758084,0.66758084 0 0 1 -1.22656,0.37109 l -16.875,-25.75 a 0.66758084,0.66758084 0 0 1 0,-0.73046 l 16.375,-25 a 0.66758084,0.66758084 0 0 1 0.51562,-0.30079 z m -265.21484,0.18555 c 0.61902,-0.008 0.90547,0.89143 0.73828,0.67578 0.43276,12.19128 0.41863,24.37234 0.59375,36.54492 0.0677,3.53557 0.10828,7.07439 0.15234,10.60938 0.0343,-0.15579 0.008,-0.31311 0.0859,-0.46484 l -0.0742,0.28906 c 0.19346,-9.52521 -0.0631,-19.05306 -0.0312,-28.61328 -0.0187,-5.70902 0.0461,-11.42632 0.0625,-17.125 a 0.66758084,0.66758084 0 0 1 0.19531,-0.47071 l 0.0625,-0.0625 a 0.66758084,0.66758084 0 0 1 0.47266,-0.19531 h 0.0937 a 0.66758084,0.66758084 0 0 1 0.53516,0.26953 c 5.67504,7.647 10.53355,15.80893 15.80078,23.65039 a 0.66758084,0.66758084 0 0 1 0.084,0.17774 c 0.31266,1.02151 -0.0536,1.94916 -0.48242,2.66992 -0.42887,0.72076 -0.92097,1.33639 -1.12891,1.86328 a 0.66758084,0.66758084 0 0 1 -0.0488,0.0996 c -4.11699,6.84742 -8.85655,13.24283 -13.00391,19.97461 a 0.66758084,0.66758084 0 0 1 -0.25391,0.24023 c -0.40847,0.21753 -0.89662,0.246 -1.28125,0.0937 -0.38462,-0.15225 -0.65598,-0.43791 -0.8457,-0.74804 -0.12074,-0.19737 -0.16273,-0.42771 -0.22656,-0.65039 0.006,0.47494 0.0136,0.95102 0.0195,1.42578 a 0.66758084,0.66758084 0 0 1 -0.27735,0.54883 c -0.36463,0.26336 -0.80526,0.37517 -1.20312,0.33398 -0.39786,-0.0412 -0.74198,-0.21145 -1.02734,-0.42969 -0.0985,-0.0753 -0.15707,-0.18212 -0.24414,-0.26758 0.50817,0.73558 0.992,1.48934 1.50586,2.22071 a 0.66758084,0.66758084 0 0 1 0.12109,0.39648 c -0.01,0.50346 -0.19639,0.96488 -0.49219,1.29102 -0.2958,0.32613 -0.6708,0.51831 -1.04687,0.63672 -0.75215,0.23681 -1.54419,0.20825 -2.1543,0.12695 l 0.0918,0.006 c -5.89728,0.0421 -11.80412,0.21321 -17.72852,0.15625 l -13.36523,0.0937 a 0.66758084,0.66758084 0 0 1 -0.66993,-0.69531 c 0.0715,-1.73449 0.83506,-3.15682 1.69141,-4.43164 0.85635,-1.27483 1.80968,-2.43388 2.40625,-3.64844 a 0.66758084,0.66758084 0 0 1 0.0488,-0.082 l 12.4375,-18.15625 a 0.66758084,0.66758084 0 0 1 0.30273,-0.24219 l 0.15625,-0.0625 a 0.66758084,0.66758084 0 0 1 0.24805,-0.0488 H 145.25 a 0.66758084,0.66758084 0 0 1 0.50977,0.23633 c 3.70617,4.36791 7.08589,8.99987 10.11914,13.85937 1.64044,2.48522 3.32994,4.93528 5.01367,7.38868 -0.0384,-0.0914 -0.0848,-0.17924 -0.11328,-0.27344 -4.56905,-7.27048 -9.45218,-14.34638 -14.35938,-21.41211 a 0.66758084,0.66758084 0 0 1 -0.11914,-0.36133 c -0.091,-3.17042 2.1164,-5.50936 3.40234,-7.72851 a 0.66758084,0.66758084 0 0 1 0.006,-0.01 c 2.67942,-4.4615 5.621,-8.74441 8.38282,-13.10742 a 0.66758084,0.66758084 0 0 1 0.01,-0.0137 c 1.37267,-2.04924 2.65399,-4.27565 4.14063,-6.30469 a 0.66758084,0.66758084 0 0 1 0.53125,-0.27344 z m 226.88672,0.0937 c 1.70226,0.31947 1.24904,4.95178 0.85156,3.9375 0.24512,15.09523 0.27119,30.20021 0.5,45.2832 a 0.66758084,0.66758084 0 0 1 -0.49414,0.6543 c -0.47902,0.12938 -0.97053,0.0718 -1.34961,-0.12695 -0.37908,-0.1988 -0.64194,-0.49808 -0.85156,-0.79883 -0.41924,-0.6015 -0.68221,-1.27492 -0.89844,-1.5918 a 0.66758084,0.66758084 0 0 1 -0.004,-0.006 c -4.71878,-7.08086 -9.42349,-14.17382 -14.09765,-21.28515 a 0.66758084,0.66758084 0 0 1 -0.0352,-0.67188 c 4.50593,-8.78286 10.3751,-16.6877 15.52734,-24.95508 a 0.66758084,0.66758084 0 0 1 0.21289,-0.21289 c 0.0311,-0.0195 0.1838,-0.22939 0.63868,-0.22656 z m -74.67383,0.18945 a 0.66758084,0.66758084 0 0 1 0.71094,0.63672 l 0.0937,2.09375 a 0.66758084,0.66758084 0 0 1 0.002,0.0449 l -1.09375,46.46876 a 0.66758084,0.66758084 0 0 1 -1.22266,0.35546 l -15.53125,-23.15625 a 0.66758084,0.66758084 0 0 1 -0.004,-0.73437 l 16.53125,-25.40625 a 0.66758084,0.66758084 0 0 1 0.51367,-0.30274 z m 2.31055,0.2168 c 1.11753,-0.56269 4.23202,8.72849 2.44531,3.10938 4.67638,6.72236 8.76831,13.78703 13.19336,20.60156 l -0.13477,-0.15235 c 0.40352,0.33329 0.65812,0.77618 0.74414,1.22461 0.086,0.44844 0.0193,0.88638 -0.11133,1.28125 -0.26122,0.78974 -0.77296,1.45568 -1.23047,1.9375 l 0.0664,-0.082 -14.625,21.3125 a 0.66758084,0.66758084 0 0 1 -1.21875,-0.38086 l 0.21875,-48.1875 a 0.66758084,0.66758084 0 0 1 0.65235,-0.66406 z m -189.85352,0.18945 a 0.66758084,0.66758084 0 0 1 0.57226,0.28516 l 2.15626,3.09375 a 0.66758084,0.66758084 0 0 1 0.002,0.002 c 4.87573,7.07209 9.55985,14.26556 14.28906,21.41797 a 0.66758084,0.66758084 0 0 1 0.0723,0.58789 c -2.01629,5.73832 -6.4023,9.96791 -9.20508,14.89063 a 0.66758084,0.66758084 0 0 1 -0.0274,0.0449 l -6.25,9.21875 a 0.66758084,0.66758084 0 0 1 -1.13867,-0.0547 c -1.83724,-3.35727 -0.65327,-7.07027 -0.95312,-10.16211 a 0.66758084,0.66758084 0 0 1 -0.004,-0.0684 c 0.0903,-12.8616 -0.008,-25.71649 -0.15625,-38.58203 a 0.66758084,0.66758084 0 0 1 0.64258,-0.67383 z m 244.73633,26.2793 c 0.35769,-0.0161 1.09427,0.45523 0.68945,0.33203 l 17.75,26.96875 a 0.66758084,0.66758084 0 0 1 -0.5625,1.03516 c -11.60362,-0.0924 -23.21445,-0.15201 -34.82617,-0.5 a 0.66758084,0.66758084 0 0 1 -0.54883,-1.01953 c 5.51188,-8.90025 11.22908,-17.66288 16.84961,-26.47657 a 0.66758084,0.66758084 0 0 1 0.35156,-0.27343 l 0.0937,-0.0312 a 0.66758084,0.66758084 0 0 1 0.20313,-0.0352 z m 38.22656,0.25 c 0.26476,-0.0308 0.85708,0.52316 0.70703,0.29102 5.99199,8.72499 11.62746,17.66898 17.44336,26.47851 a 0.66758084,0.66758084 0 0 1 -0.0234,0.76953 c -0.3056,0.40452 -0.72261,0.66386 -1.13476,0.77735 -0.41216,0.11349 -0.80938,0.10433 -1.17383,0.0703 -0.72891,-0.068 -1.37093,-0.20405 -1.74805,-0.12695 a 0.66758084,0.66758084 0 0 1 -0.1289,0.0137 c -10.47462,0.0603 -20.94287,0.0177 -31.41211,0 a 0.66758084,0.66758084 0 0 1 -0.5625,-1.02344 c 5.67513,-9.0188 11.34603,-18.05142 17.32422,-26.89258 a 0.66758084,0.66758084 0 0 1 0.30468,-0.24609 l 0.15625,-0.0625 a 0.66758084,0.66758084 0 0 1 0.24805,-0.0488 z m -75.78711,0.0625 a 0.66758084,0.66758084 0 0 1 0.53516,0.30469 l 4.09375,6.3125 a 0.66758084,0.66758084 0 0 1 0.002,0.004 l 12.625,19.6875 a 0.66758084,0.66758084 0 0 1 -0.56445,1.02734 l -33.625,-0.0937 a 0.66758084,0.66758084 0 0 1 -0.55664,-1.0332 l 16.90625,-25.90625 a 0.66758084,0.66758084 0 0 1 0.58398,-0.30274 z m -152.24609,0.62695 c 4.2713,3.68575 2.57675,3.24619 4.79883,5.78125 4.56746,6.49586 9.08097,13.03041 13.5371,19.60352 a 0.66758084,0.66758084 0 0 1 -0.21679,0.95117 c -1.56378,0.90937 -3.2485,1.03144 -4.85938,0.98828 -1.61088,-0.0431 -3.17856,-0.23881 -4.59375,-0.0879 a 0.66758084,0.66758084 0 0 1 -0.0684,0.004 c -8.48156,0.0267 -16.95785,0.0371 -25.43945,0.0312 a 0.66758084,0.66758084 0 0 1 -0.59961,-0.96094 c 4.35759,-8.93728 10.50417,-16.7125 15.85352,-24.88476 a 0.66758084,0.66758084 0 0 1 0.10742,-0.12696 c 0.0222,-0.0204 0.16103,-0.25201 0.34765,-0.54297 0.18663,-0.29095 0.55074,-0.72707 1.13282,-0.75586 z m 114.3789,0.375 a 0.66758084,0.66758084 0 0 1 0.58789,0.29883 l 16.4375,25 a 0.66758084,0.66758084 0 0 1 -0.55859,1.03516 H 279.625 a 0.66758084,0.66758084 0 0 1 -0.55078,-1.04492 l 17.15625,-25 a 0.66758084,0.66758084 0 0 1 0.52148,-0.28907 z m -128.42968,26.99805 c 9.8531,0.15526 19.71734,0.0745 29.58789,0.125 a 0.66758084,0.66758084 0 0 1 0.39648,0.13281 c 0.40425,0.3028 0.66708,0.72898 0.75391,1.16016 0.0868,0.43118 0.0214,0.8446 -0.0977,1.2168 -0.23813,0.7444 -0.69698,1.38096 -1.01367,1.82617 l -13.91992,21.63086 a 0.66758084,0.66758084 0 0 1 -0.57032,0.30664 c -1.25692,-0.0191 -2.0906,-0.84199 -2.60546,-1.66602 -0.51487,-0.82402 -0.86499,-1.70278 -1.2754,-2.20312 a 0.66758084,0.66758084 0 0 1 -0.0293,-0.0371 c -4.75178,-6.68746 -9.01293,-13.67452 -13.54102,-20.45313 a 0.66758084,0.66758084 0 0 1 -0.10937,-0.4414 c 0.0706,-0.66677 0.5597,-1.15627 1.04297,-1.36914 0.48326,-0.21288 0.97998,-0.24961 1.40625,-0.22657 z m -7.81836,0.1582 c 1.68545,1.64563 1.23843,2.59773 0.0957,3.45508 -2.0821,3.39019 -4.04558,6.88345 -6.33008,10.21289 -2.56236,4.05614 -5.24624,8.01223 -7.69726,12.0918 a 0.66758084,0.66758084 0 0 1 -0.18165,0.19727 c -0.71771,0.51624 -1.62836,0.37048 -2.20117,-0.0312 -0.57281,-0.40174 -0.96153,-0.98104 -1.18554,-1.54493 l 0.0684,0.12891 c -2.97136,-4.39127 -5.48517,-9.00466 -8.52149,-13.23633 a 0.66758084,0.66758084 0 0 1 -0.0137,-0.0215 l -6.25,-9.46875 a 0.66758084,0.66758084 0 0 1 0.51758,-1.03321 c 9.56539,-0.55291 19.12227,-0.41621 28.64648,-0.6582 a 0.66758084,0.66758084 0 0 1 0.01,0 c 0.94234,-0.0115 1.96597,-0.14981 3.04297,-0.0918 z m 44.47851,0.18555 31.9375,0.625 a 0.66758084,0.66758084 0 0 1 0.56641,0.99805 c -4.73746,8.32865 -10.1692,16.20243 -15.4961,24.10547 a 0.66758084,0.66758084 0 0 1 -0.26562,0.22851 c -0.40816,0.19486 -0.8894,0.21617 -1.25977,0.0547 -0.37036,-0.16148 -0.6077,-0.43488 -0.79101,-0.69922 -0.36494,-0.52624 -0.58754,-1.11958 -0.72656,-1.33203 l -0.004,-0.006 -15.15234,-22.30664 a 0.66758084,0.66758084 0 0 1 -0.10938,-0.2832 c -0.0594,-0.4325 0.12913,-0.77387 0.36719,-1.01172 0.23805,-0.23786 0.5793,-0.42686 1.01172,-0.36719 z m 145.19141,0.34375 a 0.66758084,0.66758084 0 0 1 0.58789,1.00781 l -1.75,2.96875 A 0.66758084,0.66758084 0 0 1 349,616.98438 l -13.6875,21.46874 a 0.66758084,0.66758084 0 0 1 -1.11914,0.01 C 328.97527,630.60966 323.8274,622.71062 318.75,614.76562 a 0.66758084,0.66758084 0 0 1 0.42578,-1.01367 c 5.97943,-1.243 11.94262,-0.0517 17.68164,-0.48047 a 0.66758084,0.66758084 0 0 1 0.0352,-0.002 z m 10.85547,0.15625 c 1.57841,-0.005 3.15342,0.012 4.72656,0.0312 7.66904,0.0747 15.33415,0.19056 22.99609,0.21875 a 0.66758084,0.66758084 0 0 1 0.55469,1.03516 c -5.43248,8.22358 -10.82655,16.47314 -16.18359,24.74609 a 0.66758084,0.66758084 0 0 1 -1.11914,0.002 l -16.25,-24.9375 a 0.66758084,0.66758084 0 0 1 0.54687,-1.0332 c 1.5736,-0.0297 3.14935,-0.0573 4.72852,-0.0625 z m -86.98438,0.0625 c 0.77904,0.39198 1.04672,0.7003 0.58594,1.17383 -4.56327,7.43597 -9.49564,14.61008 -14.0957,21.97266 l 0.0937,-0.45508 c 0.0771,0.50345 -0.10922,0.9936 -0.4043,1.31445 -0.29508,0.32085 -0.67526,0.50869 -1.07227,0.5918 -0.397,0.0831 -0.8269,0.066 -1.22656,-0.12891 -0.39965,-0.19495 -0.74088,-0.61283 -0.83203,-1.11914 l 0.0957,0.24219 c -4.67415,-7.25534 -9.48212,-14.42738 -14.27539,-21.61524 a 0.66758084,0.66758084 0 0 1 -0.0918,-0.54101 c 0.12233,-0.46515 0.40367,-0.85598 0.75585,-1.08008 0.35219,-0.2241 0.73281,-0.29217 1.08204,-0.3125 0.69844,-0.0407 1.36849,0.0917 1.72851,0.082 a 0.66758084,0.66758084 0 0 1 0.0352,0 c 9.20029,0.23729 18.40985,0.11105 27.62109,-0.125 z m 6.67383,0.0312 31.28125,0.0312 a 0.66758084,0.66758084 0 0 1 0.56055,1.03125 l -15.53125,23.96875 a 0.66758084,0.66758084 0 0 1 -1.11914,0.004 l -15.75,-24 a 0.66758084,0.66758084 0 0 1 0.55859,-1.03516 z"
         transform="matrix(0.26458333,0,0,0.26458333,57.965035,-95.587941)" />
      <path
         style="display:inline;fill:#000000;fill-opacity:1;stroke:none;stroke-width:0.264583"
         d="m 151.66888,23.011545 c -0.29357,0.442981 -0.13156,0.998416 -0.20103,1.49403 -0.13618,4.965047 -0.24267,9.930929 -0.33775,14.896896 -0.0304,3.454527 -0.0474,6.909229 -0.007,10.363762 0.0593,8.087418 0.15651,16.174497 0.22888,24.261804 -0.11482,0.377669 0.18606,0.303398 0.45654,0.320943 0.33041,0.01363 0.20385,-0.424958 0.24819,-0.633101 0.0495,-1.362903 0.0316,-2.727036 0.0594,-4.090469 0.051,-4.399348 0.0489,-8.79907 0.0443,-13.198612 0.0207,-6.237404 0.10715,-12.474777 0.0495,-18.712236 -0.0225,-4.835144 -0.11732,-9.669544 -0.15215,-14.50458 -0.0435,-0.159453 -0.23586,-0.253799 -0.38861,-0.198437 z m 10.2526,0.611849 c -0.26191,-0.05244 -0.56144,0.07913 -0.49609,0.395634 0.0377,1.070499 0.006,2.144445 0.0165,3.216312 0.007,2.41758 -0.0239,4.835043 -0.0983,7.25148 -0.053,1.662192 -0.0564,3.325506 0.007,4.98748 0.12142,4.141439 0.20828,8.284666 0.16247,12.428065 -0.0397,7.479591 -0.11019,14.958975 -0.17864,22.438346 0.34175,0 0.6835,0 1.02526,0 0.0435,-5.555816 -0.13546,-11.110444 -0.10851,-16.666236 -0.009,-9.150191 -0.0216,-18.300399 -0.0496,-27.450548 -0.019,-2.203883 -0.10665,-4.406301 -0.18092,-6.608801 -0.0331,0.0027 -0.0661,0.0055 -0.0992,0.0083 z m 9.7069,8.276497 c -0.31214,0.03193 -0.32903,0.417981 -0.31419,0.661458 -0.0909,4.635003 -0.23604,9.270984 -0.14056,13.907162 0.0381,3.89391 -0.07,7.788264 0.0252,11.681764 0.05,5.156594 -0.0267,10.313294 -0.0413,15.469857 0.0744,0.232825 -0.16772,0.785511 0.20122,0.720579 0.22506,-0.07342 0.75663,0.161402 0.74992,-0.1451 0.0299,-3.954536 -0.10547,-7.90797 -0.1103,-11.862419 -0.0168,-2.609307 0.0464,-5.218798 0.16046,-7.82547 0.0552,-3.123171 -0.081,-6.245831 -0.0592,-9.369155 0.007,-3.331946 -0.018,-6.663831 -0.0629,-9.995424 -0.007,-0.959816 -0.0132,-1.919634 -0.0198,-2.87945 0.14688,-0.237106 -0.19506,-0.404828 -0.38861,-0.363802 z m -30.42708,2.33164 c -0.32748,1.505966 -0.0905,3.059886 -0.29196,4.57929 -0.26604,4.423145 -0.16307,8.855998 -0.15165,13.284062 0.0474,7.415205 0.0775,14.830499 0.0963,22.245828 0.31695,0 0.6339,0 0.95085,0 0.0841,-3.323928 0.0695,-6.649331 0.0347,-9.973849 -0.0327,-4.040987 -0.0574,-8.082376 0.005,-12.123217 0.0337,-3.355673 0.0626,-6.712236 -0.0256,-10.067356 -0.0456,-2.458085 -0.14618,-4.915212 -0.2619,-7.370524 0.006,-0.221906 -0.052,-0.619453 -0.35554,-0.574234 z m -50.262572,6.829558 c -0.0676,6.547355 -0.1197,13.094951 -0.10748,19.642712 0.003,4.545637 0.0115,9.091271 0.008,13.63691 0.20642,-0.01497 0.47371,0.07612 0.62839,-0.09922 0.0466,-0.292217 0.003,-0.600628 0.0211,-0.899134 0.0453,-8.278296 0.0253,-16.556789 0.0253,-24.835173 -0.002,-2.482032 -0.003,-4.964065 -0.005,-7.446097 -0.18935,0.02881 -0.38121,-0.02854 -0.57051,0 z M 101.15,45.765711 c -0.30908,-0.0044 -0.44306,0.379278 -0.38034,0.636654 0.0725,7.507325 0.075,15.015067 0.0579,22.522656 0,1.805231 0,3.610459 0,5.41569 0.21258,-0.06953 0.4995,0.119028 0.66146,-0.08268 0.0743,-0.546055 0.0394,-1.108472 0.0496,-1.661067 0.031,-8.615723 0.0243,-17.231678 0.0827,-25.847331 -0.0551,-0.302014 0.13258,-0.696032 -0.1571,-0.917774 -0.0922,-0.06298 -0.20438,-0.08749 -0.31419,-0.06615 z m 30.33613,10.08724 c -0.28255,2.024462 -0.13358,4.073051 -0.20696,6.108978 -0.0285,4.126269 0.0276,8.252499 0.0168,12.378782 0.23487,-0.07487 0.53102,0.127686 0.71933,-0.09095 0.0371,-5.338194 -0.013,-10.676491 0.005,-16.014695 0.007,-0.721672 0.008,-1.44435 0.0123,-2.164374 0.0324,-0.279418 -0.36284,-0.209171 -0.54655,-0.217741 z m -20.39772,2.728516 c -0.38771,0.07005 -0.48322,0.544875 -0.43822,0.876432 -0.0405,4.850588 -0.0516,9.701361 -0.0331,14.552083 -0.1124,0.302993 0.30593,0.399976 0.52917,0.363802 0.26707,0.04364 0.5542,-0.151071 0.46863,-0.442735 -0.0614,-3.122856 -0.0383,-6.246648 -0.07,-9.369883 -0.007,-1.830178 -0.0297,-3.660891 -0.0552,-5.490435 0.009,-0.224274 -0.12291,-0.547565 -0.40126,-0.489264 z m 10.31048,4.216796 c -0.31551,0.392684 -0.13553,0.921735 -0.19079,1.379549 -0.0363,3.388624 -0.16932,6.775161 -0.24742,10.162899 0.44372,0 0.88745,0 1.33118,0 -0.0195,-3.326063 -0.25318,-6.649127 -0.17202,-9.976019 0.005,-0.447728 0.01,-0.895458 0.0149,-1.343186 -0.1245,-0.286115 -0.48591,-0.230283 -0.73587,-0.223243 z"
         id="rect4416"
         inkscape:connector-curvature="0" />
      <path
         style="color:#000000;font-style:normal;font-variant:normal;font-weight:normal;font-stretch:normal;font-size:medium;line-height:normal;font-family:Sans;-inkscape-font-specification:Sans;text-indent:0;text-align:start;text-decoration:none;text-decoration-line:none;letter-spacing:normal;word-spacing:normal;text-transform:none;writing-mode:lr-tb;direction:ltr;baseline-shift:baseline;text-anchor:start;display:inline;overflow:visible;visibility:visible;fill:#000000;fill-opacity:1;stroke:none;stroke-width:1.32292;marker:none;enable-background:accumulate"
         d="m 155.38958,19.745594 c -0.19812,-0.0034 -0.3972,7.94e-4 -0.59531,0.0083 -2.69215,0.215684 -5.30554,1.301049 -7.35046,3.067513 -1.83597,1.571115 -3.27548,3.547571 -4.53099,5.597591 -1.86851,3.103396 -3.318,6.432352 -4.77903,9.739987 -1.49829,3.416491 -2.97781,6.844811 -4.63848,10.186459 -0.7532,1.491721 -1.5615,2.956859 -2.53835,4.316016 -1.04162,1.489741 -2.26553,2.849644 -3.60494,4.076236 -1.08359,0.96886 -2.32592,1.773902 -3.6959,2.273764 -1.54315,0.589486 -3.22261,0.854961 -4.86999,0.686263 -1.78993,-0.205248 -3.48428,-1.013487 -4.84518,-2.182813 -1.97925,-1.618369 -3.57663,-3.629977 -5.15938,-5.622396 -1.8234,-2.279412 -3.56419,-4.656804 -5.72988,-6.63112 -1.2717,-1.12912 -2.6662,-2.124533 -4.167192,-2.926953 -1.10157,-0.591333 -2.24471,-1.101492 -3.43131,-1.496549 -1.26752,-0.397788 -2.57814,-0.652884 -3.88607,-0.868165 -0.277,-0.04362 -0.44151,0.329182 -0.21497,0.496094 0.2888,0.09535 0.59809,0.109297 0.89297,0.19017 1.49265,0.314425 2.97301,0.75317 4.32428,1.471744 0.9997,0.533964 1.97357,1.125215 2.87734,1.810742 1.312222,0.963669 2.510232,2.077408 3.646292,3.241147 1.19249,1.240472 2.27162,2.588217 3.27422,3.985286 1.79079,2.435677 3.40358,5.005324 5.39915,7.28431 1.3066,1.452777 2.86828,2.725899 4.70463,3.439583 1.4696,0.605163 3.08666,0.807617 4.66328,0.636654 2.05039,-0.202912 4.03109,-0.983324 5.69681,-2.191081 1.83966,-1.310452 3.31197,-3.074461 4.53099,-4.960937 1.5494,-2.418242 2.75755,-5.028941 3.97702,-7.623308 1.83947,-4.013242 3.52376,-8.097311 5.35781,-12.112956 1.07215,-2.292548 2.17929,-4.585467 3.59668,-6.688997 0.94724,-1.404371 2.00994,-2.73582 3.23288,-3.910872 1.75704,-1.68933 4.02268,-2.915658 6.46575,-3.183268 2.05284,-0.247565 4.14325,0.189365 6.03581,0.983919 2.02888,0.854123 3.91581,2.005034 5.68027,3.31556 2.27751,1.686375 4.40345,3.581143 6.30866,5.680273 0.22462,0.239795 0.444,0.48985 0.66146,0.735872 v -1.579231 c -0.12941,-0.156636 -0.25814,-0.315529 -0.38861,-0.471289 -1.1161,-1.3261 -2.25845,-2.631265 -3.48919,-3.852995 -1.71274,-1.715595 -3.57585,-3.292512 -5.67201,-4.522721 -1.83501,-1.086596 -3.84128,-1.93021 -5.96139,-2.24069 -0.58743,-0.08946 -1.18331,-0.146847 -1.77767,-0.157097 z"
         id="path2989"
         inkscape:connector-curvature="0" />
      <path
         style="display:inline;fill:#000000;fill-opacity:1;stroke:none;stroke-width:0.264583"
         d="m 137.27029,32.64101 c -1.09235,0.07526 -3.1279,1.011206 -3.41285,1.304914 -0.076,0.07832 -0.0905,0.173673 -0.0703,0.271018 -0.0136,0.01884 -0.15303,0.220483 -0.16061,0.351325 -0.0185,0.319899 0.22106,0.611237 0.20076,0.933513 -0.0226,0.358164 -0.35133,1.033897 -0.35133,1.033897 l -0.77291,0.200755 -0.22083,-0.0803 c 0.0963,-0.112175 0.10057,-0.119552 0.17064,-0.301133 0.0532,-0.137771 -0.29109,-0.311171 -0.29109,-0.311171 0,0 0.0165,-0.150341 -0.0803,-0.130492 l -0.25095,0.05019 c -0.12583,-0.03399 -0.19514,-0.140655 -0.39147,-0.09034 0,0 -0.0939,-0.107548 -0.17065,-0.140528 -0.35262,-0.151575 -0.37674,0.298659 -0.54203,0.281056 0.0913,0.04478 0.16366,0.04835 0.21079,0.03011 -0.10156,0.106058 -0.25372,0.264078 -0.32121,0.411549 -0.27393,0.598413 0.0436,0.891439 -0.0402,1.425369 0.10504,-0.0594 0.15347,-0.147707 0.18068,-0.230871 -0.0381,0.402821 0.15256,0.199753 0.20075,0.481815 0.15372,-0.405231 -0.0577,-0.168021 0.32121,-0.501891 -0.14207,0.186229 0.008,0.473202 -0.20075,0.582194 0.33394,-0.04564 0.48391,-0.474546 0.6926,-0.772911 0.10919,-0.156054 -0.0298,-0.02074 0.0703,-0.230868 0.10007,-0.210219 0.44167,-0.08031 0.44167,-0.08031 0,0 0.0699,0.329975 0.19071,0.431628 0.12778,0.107537 0.48182,0.120454 0.48182,0.120454 l 0.25094,0.110414 c -0.36941,0.02987 -0.71435,0.09569 -0.83313,0.170643 -0.16623,0.104886 -0.27512,0.188248 -0.36136,0.27102 -0.0469,-0.0044 -0.14733,-0.0067 -0.17065,-0.01003 -0.19089,-0.02761 -0.57996,0.745472 -0.30113,0.833136 l 1.7265,0.542042 c -0.0798,0.06781 -0.16615,0.205221 -0.18068,0.23087 -0.0193,0.0342 -0.47178,1.294876 -0.47178,1.294876 l -0.10037,-0.110416 -0.19072,0.0803 -0.92348,-0.0803 0.0903,-0.140531 -0.19072,-0.13049 c 0,0 0.17274,-1.082484 0.15057,-1.22461 -0.0459,-0.294632 -0.58219,-0.883328 -0.58219,-0.883328 0.0691,-0.140721 -0.0223,-0.287171 -0.0803,-0.371398 -0.0478,-0.06945 -0.0798,-0.114358 -0.0903,-0.07027 -0.0266,0.112154 0.0574,0.236781 -0.01,0.250944 0,0 -0.0237,0.07023 -0.14053,-0.03011 -0.0567,-0.04868 -0.0301,-0.291097 -0.0301,-0.291097 -0.0186,-0.02823 -0.0277,-0.08878 -0.0803,-0.01003 l -0.0201,0.260985 c 0,0 -0.0492,-0.04696 -0.0602,-0.120455 -0.0157,-0.103618 0.014,-0.248404 -0.0502,-0.200755 -0.0816,0.0605 0.0245,0.29527 0.0301,0.341286 0.006,0.04603 -0.16997,-0.09567 -0.19072,-0.170643 -0.0207,-0.07497 -0.0595,-0.02577 -0.0401,0.07026 0.0194,0.09602 0.4762,0.410421 0.65246,0.46174 0.1215,0.03538 0.38942,0.453583 0.4517,0.742797 0.0573,0.265895 -0.0903,0.833138 -0.0903,0.833138 -0.0587,-0.525521 -0.077,-1.068387 -0.64242,-1.274802 0.009,-0.07168 -0.145,-0.175443 -0.23087,-0.180679 -0.18316,-0.01119 -0.32121,-0.190719 -0.32121,-0.190719 -0.0224,-0.162886 -0.14506,-0.253426 -0.11041,-0.05019 0.0422,0.07432 0.0803,0.170643 0.0803,0.170643 0,0 -0.18038,-0.213141 -0.2108,-0.271021 -0.0304,-0.05768 -0.0995,-0.03843 -0.0903,0.02008 0.009,0.05853 0.19072,0.32121 0.19072,0.32121 0,0 -0.17764,-0.104352 -0.23087,-0.140529 -0.0532,-0.03613 -0.0914,-0.07168 -0.10038,0 -0.009,0.07169 0.25797,0.204418 0.33125,0.260985 0.0733,0.05656 0.59227,0.158907 0.86325,0.331246 0.27098,0.172339 0.26509,1.151749 0.24091,1.194498 -0.0242,0.04275 -0.11042,-0.03011 -0.11042,-0.03011 l -0.11041,0.17064 h -0.10038 l -0.0703,0.240909 -0.19072,0.06023 -0.36136,-0.160605 c 0,0 0.2358,-0.370816 0.27102,-0.451702 0.0352,-0.08089 -0.29109,-0.230867 -0.29109,-0.230867 0,0 -0.0136,-0.12227 -0.0502,-0.150567 -0.0366,-0.02829 -0.22588,0.03027 -0.32121,0.05019 -0.0954,0.01971 -0.006,-0.100367 -0.34129,-0.140528 -0.098,-0.01188 -0.2409,0.04015 -0.2409,0.04015 0,0 -0.18239,0.0067 -0.27103,0.04015 -0.13227,0.04994 -0.36136,0.230867 -0.36136,0.230867 l 0.0502,0.03011 -0.11041,0.150569 0.0703,0.03011 c -0.0582,0.143737 -0.18245,0.28548 -0.16061,0.441663 l 0.15057,-0.03011 c -0.0972,0.26906 -0.0217,0.248433 -0.0201,0.311171 0.0396,-0.05551 0.0332,-0.179877 0.13049,-0.140528 -0.0404,0.169024 -0.0179,0.318074 0.0401,0.461738 0.0844,-0.155501 0.15847,-0.208272 0.23087,-0.220832 l -0.0201,0.130493 0.12045,-0.100378 c -0.0261,0.126831 -0.007,0.170243 0.01,0.220829 0.0412,-0.09699 0.0762,-0.222806 0.23087,-0.250944 l -0.0402,0.140528 c 0.0636,0.05153 0.4562,-0.286517 0.52196,-0.26098 0.0861,0.03346 0.40152,0.351322 0.40152,0.351322 0,0 0.13686,0.187698 0.23086,0.250944 0.22172,0.149183 0.5922,0.291746 0.92348,0.401513 -0.32151,0.03284 -0.61673,0.08369 -0.72272,0.150567 -0.15248,0.09621 -0.25698,0.183009 -0.34129,0.260982 -0.17487,-0.0057 -0.30113,-0.02008 -0.30113,-0.02008 l -0.30113,1.084083 c -0.0973,0.35183 2.70835,0.953616 3.91474,1.134271 0.20681,0.03096 0.4819,-0.158541 0.56212,-0.331247 0.001,-0.0026 0.0574,-0.13439 0.0602,-0.140529 0.0646,0.06763 0.14568,0.124304 0.24091,0.160605 0.36107,0.137642 0.78621,-0.04118 0.95359,-0.401513 0.16737,-0.360331 0.0198,-0.76576 -0.34129,-0.903401 -0.0934,-0.03562 -0.19434,-0.05478 -0.29109,-0.05019 0.0515,-0.110569 0.15593,-0.332523 0.22082,-0.471776 0.0469,0.03439 0.10282,0.06831 0.16061,0.09034 0.36107,0.137641 0.78622,-0.04118 0.9536,-0.401511 0.16737,-0.360328 0.01,-0.765762 -0.35133,-0.903404 -0.058,-0.02209 -0.1206,-0.03388 -0.18068,-0.04015 0.77212,-1.659403 1.40919,-3.029241 2.19828,-4.747879 0.0591,0.05416 0.1298,0.09962 0.21079,0.130492 0.36107,0.137642 0.79626,-0.05122 0.96363,-0.411551 0.16738,-0.360328 0.01,-0.755722 -0.35132,-0.893363 -0.0838,-0.03196 -0.17398,-0.05081 -0.26099,-0.05019 0.0385,-0.08474 0.0751,-0.162785 0.11042,-0.240906 0.0715,0.118663 0.17828,0.216538 0.32121,0.271021 0.36107,0.137642 0.78622,-0.04118 0.95359,-0.401513 0.16738,-0.360328 0.01,-0.76576 -0.35132,-0.903401 -0.15499,-0.05908 -0.31795,-0.05726 -0.47178,-0.01003 0.006,-0.01402 0.0269,-0.07094 0.0301,-0.0803 0.20081,-0.578482 -0.97145,-1.324028 -1.40529,-1.345065 -0.0636,-0.0031 -0.13797,-0.005 -0.2108,0 z m -3.47308,1.606047 c 0.0236,0.08482 0.0675,0.175387 0.13049,0.260983 l -0.13049,-0.04015 z m 0.19072,0.331248 c 0.14368,0.173453 0.3312,0.322781 0.43162,0.411549 0.1468,0.129765 0.75545,0.384246 1.29488,0.59223 -0.15517,0.05296 -0.32338,0.0931 -0.38144,0.120454 -0.19283,-0.08426 -0.0813,-0.10006 -0.22083,-0.01003 -0.15481,0.09985 -0.25094,1.415331 -0.25094,1.415331 l -0.85322,-0.271021 0.0903,-0.160605 -0.2409,-0.120451 0.25094,-0.963631 -0.21079,-0.642419 0.0903,-0.371398 z m 2.18824,1.284838 c 0.0749,-0.0055 0.123,0.01974 0.1606,0.05019 l 0.12046,-0.04015 c 0.1572,0.07515 0.20052,0.227751 0.14052,0.431625 -0.16169,-0.07363 -0.33677,-0.122049 -0.47177,-0.09034 -0.006,0.0013 -0.0139,-0.0016 -0.0201,0 l -0.27102,-0.23087 c 0.16212,-0.08251 0.26639,-0.114961 0.34128,-0.120454 z m -2.36892,4.005082 c 0,0 0.35842,0.02878 0.65245,0.05019 0.18534,0.07766 0.11253,0.310282 -0.10037,0.602269 -0.0842,-0.02003 -0.16135,-0.02635 -0.23087,-0.01003 -0.24615,0.05782 -0.417,0.279477 -0.54205,0.542041 0.0885,-0.518078 0.22084,-1.18446 0.22084,-1.18446 z"
         id="path4018"
         inkscape:connector-curvature="0" />
      <path
         style="display:inline;fill:#000000;fill-opacity:1;stroke:none;stroke-width:0.264583"
         d="m 143.90504,20.938479 c -1.13824,0.03189 -3.01746,0.638297 -3.31502,0.877753 -0.0638,0.05131 -0.0905,0.116977 -0.0991,0.187121 -0.0324,0.07908 -0.0803,0.165849 -0.0803,0.165849 0,0 0.0531,-0.277096 0.0798,-0.336786 0.0267,-0.05968 -0.0334,-0.09912 -0.0738,-0.0558 -0.0405,0.04325 -0.12933,0.34989 -0.12933,0.34989 0,0 -0.0421,-0.204467 -0.0467,-0.26866 -0.005,-0.06418 0.007,-0.114335 -0.055,-0.07707 -0.0619,0.03725 0.0145,0.318815 0.0153,0.411387 5.3e-4,0.03743 0.0389,0.1495 0.0874,0.276214 0.001,0.0037 -2.6e-4,0.0163 0.001,0.02005 0.007,0.04706 -0.001,0.07712 -0.0351,0.08262 0,0 -0.0109,0.06257 -0.1233,-0.0427 -0.0545,-0.05107 -0.0185,-0.300566 -0.0185,-0.300566 -0.0174,-0.02899 -0.0243,-0.07148 -0.0802,0.0049 l -0.0347,0.253553 c 0,0 -0.0502,-0.05328 -0.0581,-0.127164 -0.0113,-0.104193 0.0332,-0.254032 -0.033,-0.209164 -0.0841,0.05694 0.009,0.315055 0.0122,0.361294 0.004,0.04622 -0.16454,-0.104082 -0.18204,-0.179877 -0.0175,-0.0758 -0.0622,-0.04359 -0.047,0.05318 0.0153,0.09676 0.45992,0.435178 0.6338,0.494016 0.0699,0.02365 0.072,0.266306 0.0421,0.520362 -0.0125,0.0019 -0.0203,0.01196 -0.0294,0.01185 -0.17894,-0.003 -0.16169,0.150741 -0.16169,0.150741 -0.24676,0.359981 -0.47723,0.731004 -0.95211,1.034084 l -0.22936,0.195136 c -0.0441,-0.05185 -0.0571,-0.01902 -0.2793,0.0373 l -0.0569,-0.107125 c 0,0 0.19436,-0.07119 0.32601,-0.422328 0.0162,-0.04337 -0.16964,-0.28212 -0.29594,-0.233212 -0.0223,-0.0824 -0.0442,-0.08478 -0.0863,-0.09526 -0.0669,-0.01667 -0.0977,0.04624 -0.0977,0.04624 0,0 -0.038,-0.04399 0.0127,-0.121459 0.0253,-0.03873 -0.24635,-0.02471 -0.34249,-0.0091 -0.0961,0.01558 -0.038,-0.09361 -0.37116,-0.14813 -0.0973,-0.0159 -0.23922,0.03484 -0.23922,0.03484 0,0 -0.1893,0.0076 -0.27929,0.0373 -0.44306,0.234352 -0.55035,0.587023 -0.46859,0.883656 0.136,0.494456 0.79749,0.846936 1.26515,0.294264 0.0846,0.03712 0.39473,0.367932 0.39473,0.367932 0,0 0.1158,0.191569 0.207,0.258797 0.0268,0.01971 0.0628,0.03488 0.0939,0.05457 -0.14838,0.0731 -0.25397,0.138602 -0.33956,0.201914 -0.0517,-0.01124 -0.15881,-0.03228 -0.18343,-0.039 -0.12372,-0.03377 -0.37353,0.274717 -0.4507,0.520512 l 0.0259,-0.232902 c 0,0 -0.18753,0.209429 -0.21009,0.344803 -0.0526,0.316068 0.16337,0.630459 0.10865,0.948706 -0.0608,0.353689 -0.47181,0.994483 -0.47181,0.994483 l -0.78779,0.108807 -0.31243,-0.01095 c 0.10777,-0.101203 0.21992,-0.197972 0.30905,-0.370998 0.0676,-0.131276 -0.25201,-0.336484 -0.25201,-0.336484 0,0 0.029,-0.155856 -0.0694,-0.146585 l -0.25988,0.02604 c -0.12147,-0.04727 -0.17934,-0.156485 -0.37994,-0.127476 0,0 -0.0889,-0.105571 -0.15074,-0.161692 -0.0619,-0.05611 -0.63767,0.260482 -0.63767,0.260482 l 0.38704,-0.08415 c 0,0 -0.36477,0.28311 -0.48323,0.482285 -0.33637,0.565603 -0.26766,1.343636 -0.40818,1.865503 0.14742,-0.161116 0.23692,-0.235823 0.23692,-0.235823 -0.28889,0.483615 -0.24735,0.795109 -0.33989,1.17744 0,0 0.24742,-0.579456 0.29179,-0.651528 0.12757,-0.207201 0.47382,-0.471649 0.47382,-0.471649 0.0304,0.102994 -0.0966,0.349604 -0.19653,0.565213 0,0 0.29198,-0.334613 0.39182,-0.496773 0.0998,-0.162158 0.36726,-0.676653 0.48924,-0.874871 0.0756,-0.122944 0.27765,-0.07113 0.34187,-7.94e-4 -0.0794,0.04057 -0.13163,0.148892 -0.13163,0.148892 l 0.19344,0.03838 c 0.29742,0.233447 0.57567,0.275114 0.8593,0.39969 l 0.15645,0.09094 c -0.29417,-0.0024 -0.55477,0.01117 -0.66001,0.06072 -0.16682,0.07853 -0.28447,0.156202 -0.37841,0.224419 -0.17343,-0.02721 -0.29548,-0.06228 -0.29548,-0.06228 l -0.42867,1.042106 c -0.13964,0.337256 2.57389,1.272506 3.74903,1.599684 0.20146,0.05609 0.48679,-0.09583 0.58757,-0.257397 0.002,-0.0038 0.1213,-0.187381 0.12856,-0.198991 0.0396,0.0357 0.0864,0.06571 0.13641,0.09218 0.34147,0.180866 0.78805,0.05442 0.99834,-0.282673 0.21029,-0.337093 0.1032,-0.749811 -0.23828,-0.930677 -0.052,-0.02752 -0.10898,-0.04665 -0.16461,-0.06027 0.05,-0.07987 0.14352,-0.220776 0.20192,-0.314126 0.0431,0.04121 0.0915,0.08187 0.14765,0.111595 0.34148,0.180872 0.78807,0.05443 0.99835,-0.282667 0.21029,-0.337095 0.10258,-0.75983 -0.2389,-0.940697 -0.0559,-0.0296 -0.11459,-0.0461 -0.17463,-0.05966 0.97111,-1.554474 1.77937,-2.834883 2.77375,-4.44478 0.0519,0.0608 0.11441,0.118755 0.19081,0.159226 0.34148,0.180864 0.78806,0.05442 0.99835,-0.28267 0.21029,-0.337095 0.10258,-0.759828 -0.2389,-0.9407 -0.0824,-0.04362 -0.16676,-0.07557 -0.25663,-0.08478 0.05,-0.08171 0.10094,-0.155157 0.14674,-0.230277 0.049,0.05313 0.11024,0.0934 0.17895,0.129783 0.34147,0.180872 0.78806,0.05443 0.99834,-0.282667 0.21029,-0.337095 0.1032,-0.749811 -0.23828,-0.930678 -0.0884,-0.04682 -0.19005,-0.07564 -0.28669,-0.08293 0.0764,-0.549611 -0.87579,-1.321429 -1.27222,-1.39002 -0.12556,-0.02172 -0.27128,-0.02814 -0.43389,-0.02357 z m -3.3924,1.254617 c 0.086,0.275188 0.36729,0.586219 0.49769,0.733692 0.11452,0.129516 0.59445,0.411655 1.06692,0.668507 -0.0189,0.0011 -0.13519,0.0086 -0.14026,0.0086 -0.0857,-0.0011 -0.25557,0.214977 -0.27637,0.248309 -0.0208,0.03334 -0.52146,1.168498 -0.52146,1.168498 l -0.10019,0.0062 -0.11144,-0.01326 -0.88335,-0.136734 0.53748,-0.908008 0.16802,-0.211476 c 0,0 0.0516,-0.313179 -0.0874,-0.276209 -0.0163,0.0043 -0.0261,-0.02447 -0.0438,-0.05765 0.037,-0.219051 0.0157,-0.441272 -0.0495,-0.640591 0.0619,-0.03725 0.0505,-0.231042 0.002,-0.301799 -0.0737,-0.10653 -0.0686,-0.214911 -0.0579,-0.288079 z m 1.67435,1.878174 c 0,0 0.40074,-0.01834 0.7733,-0.01741 0.12732,0.09577 0.13921,0.252423 0.0572,0.438981 -0.15127,-0.0927 -0.32428,-0.167508 -0.46194,-0.152604 -0.22248,0.02408 -0.39297,0.189603 -0.53887,0.395198 0.0884,-0.354071 0.17033,-0.66417 0.17033,-0.66417 z m -4.28657,2.576782 1.44887,0.66512 c -0.14946,0.06997 -0.43276,0.215099 -0.54441,0.305028 -0.14347,0.115562 -0.22938,1.502513 -0.22938,1.502513 l -0.81614,-0.352057 0.28793,-0.550725 -0.19081,-0.159224 0.12886,-0.520827 -0.14149,-0.665099 z m 1.63476,0.744194 0.41432,0.19576 -0.31753,0.06982 z m 1.00943,0.551362 c 0.009,0.116134 -0.10177,0.276514 -0.27344,0.459322 -0.0774,-0.02772 -0.15557,-0.04389 -0.2235,-0.03654 -0.0612,0.0066 -0.11334,0.02569 -0.16786,0.05056 l 0.027,-0.05195 -0.17247,-0.351433 0.8103,-0.06997 z"
         id="path4032"
         inkscape:connector-curvature="0" />
    </g>
    <text
       xml:space="preserve"
       style="font-style:normal;font-weight:normal;font-size:10.5833px;line-height:1.25;font-family:sans-serif;fill:#000000;fill-opacity:1;stroke:none;stroke-width:0.264583"
       x="11.886539"
       y="76.630608"
       id="text135-3"><tspan
         sodipodi:role="line"
         id="tspan133-0"
         x="11.886539"
         y="76.630608"
         style="font-style:normal;font-variant:normal;font-weight:normal;font-stretch:normal;font-size:6.35px;font-family:'Ubuntu Condensed';-inkscape-font-specification:'Ubuntu Condensed, ';stroke-width:0.264583">From Processing</tspan></text>
    <text
       xml:space="preserve"
       style="font-style:normal;font-weight:normal;font-size:10.5833px;line-height:1.25;font-family:sans-serif;fill:#000000;fill-opacity:1;stroke:none;stroke-width:0.264583"
       x="189.21069"
       y="32.180565"
       id="text135-3-3"><tspan
         sodipodi:role="line"
         id="tspan133-0-6"
         x="189.21069"
         y="32.180565"
         style="font-style:normal;font-variant:normal;font-weight:normal;font-stretch:normal;font-size:6.35px;font-family:'Ubuntu Condensed';-inkscape-font-specification:'Ubuntu Condensed, ';stroke-width:0.264583">To Modelling</tspan></text>
    <text
       xml:space="preserve"
       style="font-style:normal;font-weight:normal;font-size:10.5833px;line-height:0;font-family:sans-serif;fill:#000000;fill-opacity:1;stroke:none;stroke-width:0.264583"
       x="12.182872"
       y="85.542542"
       id="text2754-4-8-9-9"><tspan
         sodipodi:role="line"
         x="12.182872"
         y="85.542542"
         style="font-style:normal;font-variant:normal;font-weight:normal;font-stretch:normal;font-size:4.93889px;line-height:1.25;font-family:Ubuntu;-inkscape-font-specification:Ubuntu;stroke-width:0.264583"
         id="tspan7954"> Original data</tspan><tspan
         sodipodi:role="line"
         x="12.182872"
         y="91.716156"
         style="font-style:normal;font-variant:normal;font-weight:normal;font-stretch:normal;font-size:4.93889px;line-height:1.25;font-family:Ubuntu;-inkscape-font-specification:Ubuntu;stroke-width:0.264583"
         id="tspan1753"> Clean and processed</tspan><tspan
         sodipodi:role="line"
         x="12.182872"
         y="97.889763"
         style="font-style:normal;font-variant:normal;font-weight:normal;font-stretch:normal;font-size:4.93889px;line-height:1.25;font-family:Ubuntu;-inkscape-font-specification:Ubuntu;stroke-width:0.264583"
         id="tspan1781"> Not always informative</tspan><tspan
         sodipodi:role="line"
         x="12.182872"
         y="104.06338"
         style="font-style:normal;font-variant:normal;font-weight:normal;font-stretch:normal;font-size:4.93889px;line-height:1.25;font-family:Ubuntu;-inkscape-font-specification:Ubuntu;stroke-width:0.264583"
         id="tspan1783"> Can be redundant</tspan><tspan
         style="font-style:normal;font-variant:normal;font-weight:normal;font-stretch:normal;font-size:4.93889px;line-height:1.25;font-family:Ubuntu;-inkscape-font-specification:Ubuntu;stroke-width:0.264583"
         sodipodi:role="line"
         id="tspan2605"
         x="12.182872"
         y="110.23699"> Multi-dimensional</tspan></text>
    <text
       xml:space="preserve"
       style="font-style:normal;font-weight:normal;font-size:4.93889px;line-height:0;font-family:sans-serif;fill:#000000;fill-opacity:1;stroke:none;stroke-width:0.264583"
       x="189.06253"
       y="41.092499"
       id="text2754-4-8-9-9-7"><tspan
         sodipodi:role="line"
         x="189.06253"
         y="41.092499"
         style="font-style:normal;font-variant:normal;font-weight:normal;font-stretch:normal;font-size:4.93889px;line-height:1.25;font-family:Ubuntu;-inkscape-font-specification:Ubuntu;stroke-width:0.264583"
         id="tspan7954-5"> Derived data</tspan><tspan
         sodipodi:role="line"
         x="189.06253"
         y="47.266109"
         style="font-style:normal;font-variant:normal;font-weight:normal;font-stretch:normal;font-size:4.93889px;line-height:1.25;font-family:Ubuntu;-inkscape-font-specification:Ubuntu;stroke-width:0.264583"
         id="tspan1753-3"> Informative</tspan><tspan
         style="font-style:normal;font-variant:normal;font-weight:normal;font-stretch:normal;font-size:4.93889px;line-height:1.25;font-family:Ubuntu;-inkscape-font-specification:Ubuntu;stroke-width:0.264583"
         sodipodi:role="line"
         id="tspan2611"> Less redundant</tspan><tspan
         style="font-style:normal;font-variant:normal;font-weight:normal;font-stretch:normal;font-size:4.93889px;line-height:1.15;font-family:Ubuntu;-inkscape-font-specification:Ubuntu;stroke-width:0.264583"
         sodipodi:role="line"
         id="tspan2613"> Less dimensions</tspan></text>
    <text
       xml:space="preserve"
       style="font-style:normal;font-weight:normal;font-size:10.5833px;line-height:1.25;font-family:sans-serif;fill:#000000;fill-opacity:1;stroke:none;stroke-width:0.264583"
       x="132.52675"
       y="104.35844"
       id="text135-3-3-6"><tspan
         sodipodi:role="line"
         id="tspan133-0-6-2"
         x="132.52675"
         y="104.35844"
         style="font-style:normal;font-variant:normal;font-weight:normal;font-stretch:normal;font-size:6.35px;font-family:'Ubuntu Condensed';-inkscape-font-specification:'Ubuntu Condensed, ';fill:#f91c72;fill-opacity:1;stroke-width:0.264583">Feature extraction</tspan></text>
    <text
       xml:space="preserve"
       style="font-style:normal;font-weight:normal;font-size:10.5833px;line-height:0;font-family:sans-serif;text-align:center;text-anchor:middle;fill:#000000;fill-opacity:1;stroke:none;stroke-width:0.264583"
       x="102.73598"
       y="33.754284"
       id="text2754-4-8-9-9-7-9"><tspan
         sodipodi:role="line"
         x="102.73598"
         y="33.754284"
         style="font-style:normal;font-variant:normal;font-weight:normal;font-stretch:normal;font-size:4.23333px;line-height:1.15;font-family:Ubuntu;-inkscape-font-specification:Ubuntu;text-align:center;text-anchor:middle;stroke-width:0.264583"
         id="tspan1785-0">The roof...</tspan><tspan
         sodipodi:role="line"
         x="102.73598"
         y="38.622612"
         style="font-style:normal;font-variant:normal;font-weight:normal;font-stretch:normal;font-size:4.23333px;line-height:1.15;font-family:Ubuntu;-inkscape-font-specification:Ubuntu;text-align:center;text-anchor:middle;stroke-width:0.264583"
         id="tspan2842">The roof...</tspan><tspan
         sodipodi:role="line"
         x="102.73598"
         y="43.490944"
         style="font-style:normal;font-variant:normal;font-weight:normal;font-stretch:normal;font-size:4.23333px;line-height:1.15;font-family:Ubuntu;-inkscape-font-specification:Ubuntu;text-align:center;text-anchor:middle;stroke-width:0.264583"
         id="tspan2844">The roof is on Fire!</tspan></text>
    <path
       id="path2846"
       style="opacity:1;fill:none;fill-opacity:1;stroke:#000000;stroke-width:0.396875;stroke-linecap:square;stroke-miterlimit:4;stroke-dasharray:none;stroke-opacity:1;stop-color:#000000"
       d="M 102.56376,25.08736 A 23.221498,12.794245 0 0 0 79.398253,37.881411 23.221498,12.794245 0 0 0 102.61958,50.675979 23.221498,12.794245 0 0 0 114.9103,48.736562 l 7.2409,5.835819 -3.32951,-7.52512 a 23.221498,12.794245 0 0 0 7.01921,-9.16585 23.221498,12.794245 0 0 0 -23.22132,-12.794051 23.221498,12.794245 0 0 0 -0.0558,0 z" />
  </g>
</svg>
